<svg width="182" height="54" viewBox="0 0 182 54" fill="none" xmlns="http://www.w3.org/2000/svg">
<g id="1">
<path id="Vector" d="M65.5928 13.9063C65.5928 14.9224 65.3385 15.8115 64.7027 16.4466C63.9397 17.2087 63.0495 17.5897 61.9051 17.5897C60.7606 17.5897 59.8704 17.2087 59.1075 16.4466C58.3445 15.6845 57.963 14.7954 57.963 13.6523C57.963 12.5092 58.3445 11.6201 59.1075 10.858C59.8704 10.0959 60.7606 9.71484 61.9051 9.71484C62.4137 9.71484 62.9224 9.84184 63.431 10.0959C63.9396 10.3499 64.3212 10.604 64.5755 10.985L63.9397 11.62C63.431 10.985 62.7952 10.731 61.9051 10.731C61.1421 10.731 60.3791 10.985 59.8704 11.62C59.2346 12.1281 58.9803 12.8902 58.9803 13.7793C58.9803 14.6684 59.2346 15.4305 59.8704 15.9385C60.5062 16.4466 61.1421 16.8276 61.9051 16.8276C62.7952 16.8276 63.431 16.5736 64.0669 15.9385C64.4483 15.5575 64.7027 15.0494 64.7027 14.4143H61.9051V13.5253H65.5928C65.5928 13.5253 65.5928 13.6523 65.5928 13.9063Z" fill="#161925" stroke="#161925" stroke-width="0.18" stroke-miterlimit="10"/>
<path id="Vector_2" d="M71.443 10.731H68.0096V13.1442H71.1887V14.0333H68.0096V16.4466H71.443V17.3357H66.9923V9.71484H71.443V10.731Z" fill="#161925" stroke="#161925" stroke-width="0.18" stroke-miterlimit="10"/>
<path id="Vector_3" d="M75.6395 17.3357H74.6219V10.604H72.4601V9.71484H77.8007V10.604H75.6395V17.3357Z" fill="#161925" stroke="#161925" stroke-width="0.18" stroke-miterlimit="10"/>
<path id="Vector_4" d="M81.4884 17.3357V9.71484H82.5051V17.3357H81.4884Z" fill="#161925" stroke="#161925" stroke-width="0.18" stroke-miterlimit="10"/>
<path id="Vector_5" d="M86.8292 17.3357H85.8125V10.604H83.6505V9.71484H88.8641V10.604H86.7022V17.3357H86.8292Z" fill="#161925" stroke="#161925" stroke-width="0.18" stroke-miterlimit="10"/>
<path id="Vector_6" d="M98.9099 16.4466C98.1471 17.2087 97.2567 17.5897 96.1122 17.5897C94.9677 17.5897 94.078 17.2087 93.3145 16.4466C92.5518 15.6845 92.17 14.7954 92.17 13.6523C92.17 12.5092 92.5518 11.6201 93.3145 10.858C94.078 10.0959 94.9677 9.71484 96.1122 9.71484C97.2567 9.71484 98.1471 10.0959 98.9099 10.858C99.6726 11.6201 100.054 12.5092 100.054 13.6523C100.054 14.6684 99.6726 15.6845 98.9099 16.4466ZM94.078 15.8115C94.5867 16.3196 95.3495 16.7006 96.1122 16.7006C96.8757 16.7006 97.6384 16.4466 98.1471 15.8115C98.6559 15.3035 99.0369 14.5414 99.0369 13.6523C99.0369 12.7632 98.7829 12.0011 98.1471 11.493C97.6384 10.985 96.8757 10.604 96.1122 10.604C95.3495 10.604 94.5867 10.858 94.078 11.493C93.5692 12.0011 93.1875 12.7632 93.1875 13.6523C93.1875 14.4143 93.4423 15.1765 94.078 15.8115Z" fill="#161925" stroke="#161925" stroke-width="0.18" stroke-miterlimit="10"/>
<path id="Vector_7" d="M101.454 17.3357V9.71484H102.599L106.286 15.6845V14.1603V9.71484H107.304V17.3357H106.286L102.344 11.112V12.6362V17.3357H101.454Z" fill="#161925" stroke="#161925" stroke-width="0.18" stroke-miterlimit="10"/>
<path id="Vector_8" d="M91.9152 28.5126C88.8635 28.5126 86.4476 30.7988 86.4476 33.9742C86.4476 37.0225 88.8635 39.4358 91.9152 39.4358C94.9669 39.4358 97.3835 37.1495 97.3835 33.9742C97.3835 30.7988 94.9669 28.5126 91.9152 28.5126ZM91.9152 37.1495C90.262 37.1495 88.8635 35.7524 88.8635 33.8472C88.8635 31.942 90.262 30.5448 91.9152 30.5448C93.5684 30.5448 94.9669 31.815 94.9669 33.8472C94.9669 35.8794 93.5684 37.1495 91.9152 37.1495ZM80.0888 28.5126C77.0371 28.5126 74.6211 30.7988 74.6211 33.9742C74.6211 37.0225 77.0371 39.4358 80.0888 39.4358C83.1412 39.4358 85.5571 37.1495 85.5571 33.9742C85.5571 30.7988 83.1412 28.5126 80.0888 28.5126ZM80.0888 37.1495C78.4363 37.1495 77.0371 35.7524 77.0371 33.8472C77.0371 31.942 78.4363 30.5448 80.0888 30.5448C81.742 30.5448 83.1412 31.815 83.1412 33.8472C83.1412 35.8794 81.742 37.1495 80.0888 37.1495ZM65.974 30.1638V32.45H71.442C71.3148 33.7202 70.8062 34.7363 70.1703 35.3713C69.4074 36.1334 68.1357 37.0225 65.974 37.0225C62.5406 37.0225 59.9973 34.3552 59.9973 30.9259C59.9973 27.4965 62.6677 24.8292 65.974 24.8292C67.7543 24.8292 69.153 25.5913 70.1703 26.4804L71.8235 24.8292C70.4246 23.5591 68.6444 22.543 66.1011 22.543C61.5232 22.543 57.5812 26.3534 57.5812 30.9259C57.5812 35.4983 61.5232 39.3088 66.1011 39.3088C68.6444 39.3088 70.4246 38.5467 71.9506 36.8955C73.4766 35.3713 73.9852 33.2121 73.9852 31.561C73.9852 31.0529 73.9852 30.5448 73.858 30.1638H65.974ZM123.706 31.942C123.198 30.6718 121.925 28.5126 119.128 28.5126C116.331 28.5126 114.042 30.6718 114.042 33.9742C114.042 37.0225 116.331 39.4358 119.382 39.4358C121.798 39.4358 123.325 37.9117 123.833 37.0225L122.053 35.7524C121.417 36.6415 120.654 37.2765 119.382 37.2765C118.111 37.2765 117.348 36.7685 116.712 35.6254L123.96 32.577L123.706 31.942ZM116.331 33.7202C116.331 31.688 117.984 30.5448 119.128 30.5448C120.018 30.5448 120.909 31.0529 121.163 31.688L116.331 33.7202ZM110.354 38.9277H112.77V23.051H110.354V38.9277ZM106.539 29.6557C105.903 29.0206 104.886 28.3856 103.614 28.3856C100.944 28.3856 98.4003 30.7988 98.4003 33.8472C98.4003 36.8955 100.817 39.1818 103.614 39.1818C104.886 39.1818 105.903 38.5467 106.412 37.9117H106.539V38.6737C106.539 40.7059 105.395 41.849 103.614 41.849C102.215 41.849 101.198 40.833 100.944 39.9438L98.909 40.833C99.5447 42.2301 101.071 44.0083 103.742 44.0083C106.539 44.0083 108.828 42.3571 108.828 38.4197V28.7667H106.539V29.6557ZM103.742 37.1495C102.088 37.1495 100.689 35.7524 100.689 33.8472C100.689 31.942 102.088 30.5448 103.742 30.5448C105.395 30.5448 106.666 31.942 106.666 33.8472C106.666 35.7524 105.395 37.1495 103.742 37.1495ZM134.769 23.051H129.047V38.9277H131.463V32.9581H134.769C137.439 32.9581 139.983 31.0529 139.983 28.0046C139.983 24.9562 137.439 23.051 134.769 23.051ZM134.896 30.7988H131.463V25.3373H134.896C136.677 25.3373 137.694 26.8615 137.694 28.0046C137.567 29.2747 136.55 30.7988 134.896 30.7988ZM149.52 28.5126C147.739 28.5126 145.959 29.2747 145.324 30.9259L147.485 31.815C147.994 30.9259 148.757 30.6718 149.647 30.6718C150.919 30.6718 152.063 31.434 152.19 32.7041V32.8311C151.809 32.577 150.792 32.196 149.774 32.196C147.485 32.196 145.197 33.4662 145.197 35.7524C145.197 37.9117 147.104 39.3088 149.139 39.3088C150.792 39.3088 151.555 38.5467 152.19 37.7847H152.317V39.0548H154.606V32.9581C154.352 30.0368 152.19 28.5126 149.52 28.5126ZM149.266 37.1495C148.503 37.1495 147.358 36.7685 147.358 35.7524C147.358 34.4823 148.757 34.1012 149.901 34.1012C150.919 34.1012 151.428 34.3553 152.063 34.6093C151.809 36.1335 150.537 37.1495 149.266 37.1495ZM162.618 28.7667L159.948 35.6254H159.821L157.023 28.7667H154.479L158.676 38.4197L156.259 43.7543H158.676L165.161 28.7667H162.618ZM141.254 38.9277H143.67V23.051H141.254V38.9277Z" fill="#161925"/>
<path id="Vector_9" d="M17.9076 42.1032C17.3989 41.8492 17.1447 41.2142 17.1447 40.5791C17.1447 40.452 17.1447 40.198 17.1447 40.071C17.1447 30.672 17.1447 21.273 17.1447 12.001C17.1447 11.4929 17.2718 11.1119 17.3989 10.6039C17.5262 10.3498 17.7805 10.0958 18.0348 9.8418C23.5028 15.3034 28.8436 20.7649 34.1845 26.2265C28.7165 31.307 23.3757 36.6417 17.9076 42.1032Z" fill="#161925"/>
<path id="Vector_10" d="M39.5245 20.6381C37.9985 22.1623 36.3454 23.6864 34.8195 25.3376C29.733 20.13 24.5193 14.9224 19.4327 9.71489C19.4327 9.71489 19.4327 9.58789 19.5599 9.58789C26.1724 13.2713 32.7849 16.9547 39.5245 20.6381Z" fill="#161925"/>
<path id="Vector_11" d="M19.4327 42.1029C24.5193 37.0224 29.733 31.9419 34.8195 26.8613C36.2183 28.2584 37.7442 29.6556 39.3974 31.1798C32.7849 34.8632 26.1724 38.5466 19.5599 42.1029H19.4327Z" fill="#161925"/>
<path id="Vector_12" d="M40.2883 30.6725C38.6352 29.1484 37.1093 27.6242 35.4562 26.1001C37.1093 24.4489 38.7624 22.7977 40.4155 21.1465C40.9242 21.4005 41.4328 21.6545 41.9415 22.0355C43.2131 22.7977 44.6119 23.4327 45.8835 24.1948C46.2651 24.3218 46.5194 24.5759 46.7736 24.9569C47.2823 25.5919 47.2823 26.227 46.7736 26.8621C46.5194 27.1161 46.2651 27.3702 45.8835 27.4972C44.1033 28.6403 42.1958 29.6564 40.2883 30.6725Z" fill="#161925"/>
</g>
</svg>
