<svg width="182" height="54" viewBox="0 0 182 54" fill="none" xmlns="http://www.w3.org/2000/svg">
<g id="2">
<path id="Vector" d="M42.8813 25.3078C42.8471 21.2242 46.2302 19.2336 46.3877 19.1447C44.4701 16.3539 41.498 15.9708 40.4501 15.9434C37.9506 15.6835 35.5331 17.4347 34.2593 17.4347C32.9649 17.4347 31.0063 15.9708 28.8902 16.0119C26.1714 16.0529 23.6307 17.6262 22.2405 20.0613C19.3642 25.0342 21.5077 32.3396 24.2676 36.3617C25.644 38.3317 27.2535 40.5275 29.3628 40.4522C31.4241 40.3701 32.1979 39.1388 34.6839 39.1388C37.1493 39.1388 37.8752 40.4522 40.0256 40.4043C42.2376 40.3701 43.6347 38.4274 44.9632 36.4438C46.5589 34.1865 47.1958 31.9634 47.2232 31.854C47.1684 31.8197 42.9224 30.1986 42.8813 25.3078ZM38.8203 13.2962C39.9297 11.9077 40.6898 10.0266 40.4775 8.11133C38.8751 8.17969 36.8616 9.21942 35.7111 10.5738C34.6907 11.7709 33.773 13.7272 34.0128 15.5672C35.807 15.6972 37.6629 14.6575 38.8203 13.2962Z" fill="#161925"/>
<path id="Vector_2" d="M72.7526 40.1593H69.8695L68.2875 35.2069H62.802L61.2953 40.1593H58.4875L63.9251 23.2911H67.2808L72.7526 40.1593ZM67.815 33.1274L66.3836 28.7223C66.233 28.2708 65.9454 27.2106 65.5345 25.5416H65.4865C65.3222 26.2598 65.0482 27.3201 64.6853 28.7223L63.2814 33.1274H67.815ZM86.7099 33.9278C86.7099 35.9936 86.148 37.6284 85.0249 38.8323C84.0178 39.8994 82.7648 40.4329 81.2718 40.4329C79.6555 40.4329 78.4985 39.8583 77.7933 38.7091V45.0912H75.088V31.992C75.088 30.6924 75.054 29.3584 74.9853 27.9972H77.368L77.5194 29.9262H77.5667C78.4712 28.4761 79.8408 27.7441 81.6757 27.7441C83.114 27.7441 84.3124 28.3119 85.2715 29.4474C86.2299 30.5829 86.7099 32.0809 86.7099 33.9278ZM83.9565 34.0304C83.9565 32.847 83.6892 31.8689 83.1554 31.1028C82.5728 30.3024 81.7857 29.9057 80.7992 29.9057C80.1354 29.9057 79.5256 30.1314 78.9843 30.5692C78.4438 31.0138 78.0872 31.5953 77.9233 32.3066C77.848 32.5734 77.8066 32.8538 77.8 33.1274V35.159C77.8 36.0414 78.0739 36.787 78.6152 37.4026C79.1556 38.0115 79.8615 38.3192 80.7306 38.3192C81.751 38.3192 82.5455 37.9225 83.114 37.1427C83.6685 36.3493 83.9565 35.3163 83.9565 34.0304ZM100.721 33.9278C100.721 35.9936 100.16 37.6284 99.0362 38.8323C98.0298 39.8994 96.7768 40.4329 95.2838 40.4329C93.6675 40.4329 92.5097 39.8583 91.8046 38.7091V45.0912H89.0992V31.992C89.0992 30.6924 89.0653 29.3584 88.9966 27.9972H91.38L91.5307 29.9262H91.5787C92.4824 28.4761 93.8521 27.7441 95.6877 27.7441C97.126 27.7441 98.3244 28.3119 99.2828 29.4474C100.235 30.5829 100.721 32.0809 100.721 33.9278ZM97.9611 34.0304C97.9611 32.847 97.6946 31.8689 97.16 31.1028C96.5781 30.3024 95.7903 29.9057 94.8046 29.9057C94.1401 29.9057 93.5302 30.1314 92.9823 30.5692C92.4418 31.0138 92.0852 31.5953 91.9213 32.3066C91.8386 32.6418 91.7913 32.9154 91.7913 33.1274V35.159C91.7913 36.0414 92.0652 36.787 92.6057 37.4026C93.147 38.0115 93.8521 38.3192 94.7293 38.3192C95.749 38.3192 96.5434 37.9225 97.112 37.1427C97.6805 36.3493 97.9611 35.3163 97.9611 34.0304ZM116.383 35.4326C116.383 36.8691 115.884 38.0388 114.884 38.9349C113.788 39.9199 112.247 40.4124 110.282 40.4124C108.467 40.4124 107.008 40.0635 105.905 39.3589L106.528 37.1085C107.713 37.8131 109.021 38.1619 110.439 38.1619C111.459 38.1619 112.254 37.9294 112.822 37.471C113.391 37.0127 113.678 36.3971 113.678 35.631C113.678 34.947 113.439 34.3724 112.973 33.9004C112.507 33.4353 111.733 32.9975 110.645 32.6008C107.686 31.4995 106.206 29.8852 106.206 27.7716C106.206 26.3898 106.727 25.2543 107.775 24.3719C108.816 23.4895 110.2 23.0449 111.925 23.0449C113.459 23.0449 114.74 23.3117 115.76 23.8452L115.082 26.0478C114.123 25.5279 113.048 25.2748 111.836 25.2748C110.884 25.2748 110.131 25.5074 109.596 25.9725C109.144 26.3898 108.918 26.896 108.918 27.4979C108.918 28.1614 109.179 28.7155 109.7 29.1464C110.152 29.5432 110.966 29.981 112.151 30.4461C113.603 31.0343 114.671 31.7115 115.356 32.4982C116.041 33.2848 116.383 34.263 116.383 35.4326ZM125.355 30.0288H122.369V35.932C122.369 37.4369 122.896 38.1824 123.951 38.1824C124.437 38.1824 124.834 38.1414 125.156 38.0593L125.231 40.1114C124.697 40.3098 123.999 40.4124 123.129 40.4124C122.061 40.4124 121.225 40.084 120.622 39.4342C120.02 38.7844 119.719 37.6899 119.719 36.1577V30.0288H117.945V28.0041H119.719V25.7742L122.376 24.9739V28.0041H125.361L125.355 30.0288ZM138.784 33.9825C138.784 35.8499 138.25 37.389 137.182 38.586C136.065 39.8241 134.58 40.4397 132.723 40.4397C130.936 40.4397 129.512 39.8447 128.45 38.6681C127.389 37.4847 126.862 35.9867 126.862 34.1877C126.862 32.2998 127.409 30.7607 128.505 29.5568C129.601 28.3529 131.073 27.7578 132.929 27.7578C134.716 27.7578 136.155 28.3529 137.236 29.5363C138.263 30.6786 138.784 32.163 138.784 33.9825ZM135.977 34.0441C135.977 32.9291 135.737 31.9715 135.25 31.178C134.682 30.2135 133.874 29.7279 132.819 29.7279C131.737 29.7279 130.902 30.2135 130.34 31.178C129.854 31.9783 129.614 32.9496 129.614 34.0988C129.614 35.2137 129.854 36.1714 130.34 36.9717C130.923 37.9362 131.744 38.4219 132.799 38.4219C133.833 38.4219 134.641 37.9294 135.23 36.9512C135.73 36.1235 135.977 35.159 135.977 34.0441ZM147.585 30.3777C147.303 30.3298 147.016 30.3024 146.728 30.3024C145.776 30.3024 145.044 30.6581 144.523 31.3764C144.071 32.0125 143.845 32.8128 143.845 33.7773V40.1593H141.14V31.8278C141.14 30.5487 141.119 29.2764 141.065 27.9972H143.421L143.516 30.3229H143.591C143.879 29.5226 144.325 28.8797 144.948 28.394C145.509 27.9699 146.201 27.7441 146.906 27.7441C147.16 27.7441 147.379 27.7647 147.585 27.7921V30.3777ZM159.686 33.5037C159.692 33.9141 159.658 34.3245 159.59 34.7281H151.468C151.495 35.932 151.892 36.8486 152.645 37.4847C153.33 38.0525 154.214 38.3329 155.303 38.3329C156.508 38.3329 157.603 38.1414 158.59 37.7583L159.014 39.6325C157.863 40.1319 156.501 40.385 154.933 40.385C153.043 40.385 151.563 39.8309 150.481 38.7228C149.406 37.6147 148.865 36.1235 148.865 34.2561C148.865 32.4229 149.365 30.8975 150.372 29.68C151.42 28.3803 152.844 27.7305 154.632 27.7305C156.384 27.7305 157.713 28.3803 158.617 29.68C159.322 30.7129 159.686 31.9851 159.686 33.5037ZM157.104 32.806C157.124 32.0057 156.946 31.3148 156.576 30.7265C156.11 29.9741 155.385 29.5979 154.419 29.5979C153.536 29.5979 152.817 29.9672 152.261 30.6991C151.81 31.2806 151.543 31.9851 151.46 32.7992L157.104 32.806Z" fill="#161925"/>
<path id="Vector_3" d="M62.0214 17.3338C61.2681 17.3338 60.6175 17.2996 60.0764 17.238V9.07755C60.8366 8.96125 61.6037 8.89966 62.3707 8.90652C65.4729 8.90652 66.9042 10.4319 66.9042 12.9149C66.8974 15.781 65.2127 17.3338 62.0214 17.3338ZM62.4802 9.95311C62.0625 9.95311 61.7064 9.98047 61.4119 10.042V16.2393C61.5694 16.2667 61.8776 16.2735 62.309 16.2735C64.3429 16.2735 65.5003 15.1175 65.5003 12.956C65.4935 11.0202 64.4457 9.95311 62.4802 9.95311ZM71.3556 17.3953C69.6093 17.3953 68.4725 16.0888 68.4725 14.3172C68.4725 12.4703 69.6299 11.157 71.4516 11.157C73.1773 11.157 74.3349 12.4019 74.3349 14.2214C74.3349 16.0888 73.1431 17.3953 71.3556 17.3953ZM71.4036 12.1283C70.4448 12.1283 69.8285 13.0244 69.8285 14.283C69.8285 15.5142 70.4585 16.4103 71.3899 16.4103C72.3281 16.4103 72.9513 15.4526 72.9513 14.2556C72.9581 13.0381 72.3418 12.1283 71.4036 12.1283ZM84.3058 11.2801L82.4362 17.2585H81.2172L80.4434 14.666C80.2514 14.0299 80.0875 13.3869 79.9642 12.7371H79.9369C79.8409 13.3869 79.6556 14.0436 79.4569 14.666L78.6351 17.2585H77.4028L75.6425 11.2801H77.0122L77.69 14.1188C77.848 14.796 77.9846 15.4321 78.0946 16.041H78.122C78.218 15.5347 78.3819 14.9123 78.6152 14.1325L79.4643 11.2801H80.546L81.3612 14.0709C81.5598 14.7481 81.7171 15.4116 81.8404 16.041H81.8743C81.9637 15.4253 82.0936 14.7755 82.279 14.0709L83.0048 11.2801H84.3058ZM91.2021 17.2585H89.8738V13.8247C89.8738 12.7645 89.4692 12.2377 88.6681 12.2377C87.881 12.2377 87.3397 12.9149 87.3397 13.7015V17.2585H86.0114V12.9901C86.0114 12.4635 85.9974 11.8958 85.9634 11.2801H87.1345L87.1958 12.2035H87.2297C87.5864 11.5674 88.3122 11.157 89.1273 11.157C90.3803 11.157 91.2088 12.1146 91.2088 13.681L91.2021 17.2585ZM94.8659 17.2585H93.5376V8.53711H94.8659V17.2585ZM99.7214 17.3953C97.9752 17.3953 96.8381 16.0888 96.8381 14.3172C96.8381 12.4703 97.9959 11.157 99.8174 11.157C101.543 11.157 102.701 12.4019 102.701 14.2214C102.701 16.0888 101.502 17.3953 99.7214 17.3953ZM99.7694 12.1283C98.8103 12.1283 98.1945 13.0244 98.1945 14.283C98.1945 15.5142 98.8243 16.4103 99.7554 16.4103C100.694 16.4103 101.317 15.4526 101.317 14.2556C101.317 13.0381 100.708 12.1283 99.7694 12.1283ZM107.946 17.2585L107.85 16.5676H107.816C107.412 17.1217 106.816 17.3884 106.063 17.3884C104.987 17.3884 104.228 16.636 104.228 15.6305C104.228 14.153 105.508 13.3938 107.727 13.3938V13.2843C107.727 12.4976 107.31 12.1009 106.488 12.1009C105.899 12.1009 105.378 12.2515 104.926 12.5456L104.659 11.67C105.214 11.328 105.905 11.1501 106.714 11.1501C108.275 11.1501 109.069 11.971 109.069 13.6194V15.8221C109.069 16.424 109.096 16.8959 109.158 17.2516L107.946 17.2585ZM107.762 14.283C106.282 14.283 105.543 14.6387 105.543 15.4869C105.543 16.1162 105.926 16.424 106.453 16.424C107.132 16.424 107.762 15.9109 107.762 15.2064V14.283ZM115.514 17.2585L115.452 16.3008H115.418C115.034 17.026 114.391 17.3953 113.493 17.3953C112.048 17.3953 110.98 16.1299 110.98 14.3446C110.98 12.4771 112.09 11.157 113.603 11.157C114.405 11.157 114.972 11.4238 115.288 11.971H115.315V8.53711H116.643V15.6442C116.643 16.2188 116.657 16.766 116.691 17.2516H115.514V17.2585ZM115.322 13.7426C115.322 12.9081 114.767 12.1899 113.918 12.1899C112.932 12.1899 112.329 13.0654 112.329 14.2898C112.329 15.4937 112.952 16.3214 113.891 16.3214C114.726 16.3214 115.322 15.5963 115.322 14.7345V13.7426ZM125.095 17.3953C123.348 17.3953 122.211 16.0888 122.211 14.3172C122.211 12.4703 123.368 11.157 125.191 11.157C126.916 11.157 128.073 12.4019 128.073 14.2214C128.073 16.0888 126.882 17.3953 125.095 17.3953ZM125.143 12.1283C124.184 12.1283 123.567 13.0244 123.567 14.283C123.567 15.5142 124.198 16.4103 125.129 16.4103C126.067 16.4103 126.69 15.4526 126.69 14.2556C126.697 13.0381 126.08 12.1283 125.143 12.1283ZM135.23 17.2585H133.901V13.8247C133.901 12.7645 133.497 12.2377 132.696 12.2377C131.908 12.2377 131.368 12.9149 131.368 13.7015V17.2585H130.039V12.9901C130.039 12.4635 130.025 11.8958 129.991 11.2801H131.162L131.224 12.2035H131.258C131.614 11.5674 132.34 11.157 133.155 11.157C134.408 11.157 135.237 12.1146 135.237 13.681V17.2585H135.23ZM144.174 12.2787H142.708V15.179C142.708 15.9178 142.962 16.2872 143.482 16.2872C143.715 16.2872 143.913 16.2598 144.071 16.2256L144.105 17.2311C143.846 17.3269 143.503 17.3817 143.072 17.3817C142.023 17.3817 141.393 16.8071 141.393 15.2885V12.272H140.517V11.2732H141.393V10.1788L142.702 9.78208V11.2732H144.167L144.174 12.2787ZM151.221 17.2585H149.892V13.8521C149.892 12.785 149.488 12.2446 148.687 12.2446C147.995 12.2446 147.359 12.7097 147.359 13.6605V17.2653H146.03V8.53711H147.359V12.1283H147.386C147.804 11.4785 148.413 11.157 149.187 11.157C150.454 11.157 151.228 12.1419 151.228 13.7015L151.221 17.2585ZM158.432 14.5908H154.44C154.467 15.7195 155.213 16.3624 156.323 16.3624C156.912 16.3624 157.46 16.2667 157.939 16.082L158.145 17.0054C157.576 17.2516 156.912 17.3748 156.138 17.3748C154.268 17.3748 153.159 16.1914 153.159 14.3651C153.159 12.5319 154.296 11.157 155.987 11.157C157.514 11.157 158.473 12.2856 158.473 13.9957C158.487 14.1872 158.473 14.3924 158.432 14.5908ZM157.213 13.64C157.213 12.7165 156.748 12.0667 155.899 12.0667C155.131 12.0667 154.529 12.7302 154.446 13.64H157.213Z" fill="#161925"/>
</g>
</svg>
