<svg xmlns="http://www.w3.org/2000/svg" width="20" height="21" viewBox="0 0 20 21" fill="none">
  <path opacity="0.5" fill-rule="evenodd" clip-rule="evenodd" d="M2.64268 3.91417C1.66602 4.89 1.66602 6.46167 1.66602 9.60417V11.2708C1.66602 14.4133 1.66602 15.985 2.64268 16.9608C3.61852 17.9375 5.19018 17.9375 8.33268 17.9375H12.4993V2.9375H8.33268C5.19018 2.9375 3.61852 2.9375 2.64268 3.91417Z" fill="#161925"/>
  <path d="M4.58398 8.14572C4.41822 8.14572 4.25925 8.21156 4.14204 8.32877C4.02483 8.44598 3.95898 8.60496 3.95898 8.77072C3.95898 8.93648 4.02483 9.09545 4.14204 9.21266C4.25925 9.32987 4.41822 9.39572 4.58398 9.39572H9.58398C9.74974 9.39572 9.90872 9.32987 10.0259 9.21266C10.1431 9.09545 10.209 8.93648 10.209 8.77072C10.209 8.60496 10.1431 8.44598 10.0259 8.32877C9.90872 8.21156 9.74974 8.14572 9.58398 8.14572H4.58398ZM5.41732 11.479C5.25156 11.479 5.09259 11.5449 4.97538 11.6621C4.85817 11.7793 4.79232 11.9383 4.79232 12.104C4.79232 12.2698 4.85817 12.4288 4.97538 12.546C5.09259 12.6632 5.25156 12.729 5.41732 12.729H8.75065C8.91641 12.729 9.07538 12.6632 9.19259 12.546C9.3098 12.4288 9.37565 12.2698 9.37565 12.104C9.37565 11.9383 9.3098 11.7793 9.19259 11.6621C9.07538 11.5449 8.91641 11.479 8.75065 11.479H5.41732ZM18.334 11.2707V9.60405C18.334 6.46155 18.334 4.88988 17.3573 3.91405C16.5457 3.10155 14.6973 2.96488 12.5007 2.94238V17.9324C14.6973 17.9099 16.5457 17.7732 17.3573 16.9607C18.334 15.9849 18.334 14.4132 18.334 11.2707Z" fill="#161925"/>
</svg>