<svg xmlns="http://www.w3.org/2000/svg" width="12" height="13" viewBox="0 0 12 13" fill="none">
  <g clip-path="url(#clip0_883_39913)">
    <path d="M2.36424 8.50594C1.59148 7.73318 1.20509 7.34679 1.06132 6.84549C0.917547 6.34418 1.04042 5.81175 1.28616 4.74688L1.42787 4.13279C1.63461 3.2369 1.73798 2.78896 2.04472 2.48222C2.35146 2.17548 2.7994 2.07211 3.69528 1.86537L4.30938 1.72366C5.37425 1.47792 5.90668 1.35505 6.40799 1.49882C6.90929 1.64259 7.29568 2.02898 8.06844 2.80174L8.98326 3.71656C10.3278 5.06105 11 5.7333 11 6.56866C11 7.40402 10.3278 8.07627 8.98326 9.42076C7.63877 10.7653 6.96652 11.4375 6.13116 11.4375C5.2958 11.4375 4.62355 10.7653 3.27906 9.42076L2.36424 8.50594Z" stroke="#161925"/>
    <path d="M7.69466 8.13302C7.98755 7.84013 8.02712 7.40483 7.78305 7.16075C7.53897 6.91667 7.10367 6.95624 6.81077 7.24914C6.51788 7.54203 6.08258 7.5816 5.8385 7.33753C5.59442 7.09345 5.634 6.65815 5.92689 6.36525M7.69466 8.13302L7.87143 8.3098M7.69466 8.13302C7.49416 8.33351 7.22694 8.41531 7 8.36867M5.75011 6.18848L5.92689 6.36525M5.92689 6.36525C6.0925 6.19964 6.30364 6.11502 6.5 6.11687" stroke="#161925" stroke-width="0.8" stroke-linecap="round"/>
    <circle cx="4.30337" cy="4.87695" r="1" transform="rotate(-45 4.30337 4.87695)" stroke="#161925" stroke-width="0.6"/>
  </g>
  <defs>
    <clipPath id="clip0_883_39913">
      <rect width="12" height="12" fill="white" transform="translate(0 0.4375)"/>
    </clipPath>
  </defs>
</svg>