<svg xmlns="http://www.w3.org/2000/svg" width="22" height="22" viewBox="0 0 22 22" fill="none">
    <path d="M2 11.585C2 11.508 2 11.469 2.002 11.437C2.01775 11.1947 2.12111 10.9664 2.29279 10.7947C2.46446 10.6231 2.69273 10.5197 2.935 10.504C2.968 10.502 3.005 10.502 3.083 10.502H18.917C18.994 10.502 19.032 10.502 19.065 10.504C19.3073 10.5197 19.5355 10.6231 19.7072 10.7947C19.8789 10.9664 19.9822 11.1947 19.998 11.437C20 11.469 20 11.507 20 11.585C20 11.98 20 12.178 19.986 12.4C19.777 15.687 16.983 18.589 13.706 18.92C13.485 18.943 13.356 18.948 13.098 18.958C12.399 18.9855 11.6995 19.0002 11 19.002C10.35 19.002 9.636 18.985 8.902 18.958C8.644 18.948 8.515 18.943 8.295 18.921C5.017 18.589 2.223 15.687 2.015 12.4C2 12.178 2 11.98 2 11.585Z" stroke="#555456" stroke-width="1.5"/>
    <path opacity="0.5" d="M5 18.502L4 20.502M17 18.502L18 20.502" stroke="#555456" stroke-width="1.5" stroke-linecap="round"/>
    <path d="M1 10.502H21" stroke="#555456" stroke-width="1.5" stroke-linecap="round"/>
    <path opacity="0.5" d="M2 11.5017V2.88667C1.99984 2.3322 2.19287 1.795 2.54591 1.36744C2.89895 0.939879 3.38992 0.648686 3.93441 0.543932C4.4789 0.439177 5.04287 0.527407 5.52935 0.79345C6.01583 1.05949 6.39441 1.48672 6.6 2.00167L7 2.88767" stroke="#555456" stroke-linecap="round"/>
    <path d="M5.346 7.24391L4.64799 7.51891C4.68482 7.61234 4.74003 7.69742 4.81036 7.76911C4.88068 7.8408 4.96469 7.89763 5.05739 7.93624C5.15009 7.97485 5.24961 7.99445 5.35003 7.99388C5.45045 7.99331 5.54974 7.97257 5.642 7.93291L5.346 7.24391ZM11.306 4.67791L11.603 5.36591C11.7817 5.28882 11.9235 5.14525 11.9983 4.96554C12.0732 4.78584 12.0752 4.58408 12.004 4.40291L11.306 4.67791ZM6.043 6.96791C5.79171 6.32709 5.79672 5.61413 6.057 4.97691L4.66699 4.41191C4.26126 5.40651 4.2551 6.51916 4.64799 7.51891L6.043 6.96891V6.96791ZM11.01 3.98791L5.05 6.55591L5.642 7.93291L11.603 5.36591L11.01 3.98991V3.98791ZM9.28199 3.56991C9.90399 3.83491 10.367 4.33991 10.609 4.95191L12.004 4.40291C11.8133 3.91114 11.5265 3.46127 11.1605 3.0815C10.7944 2.70172 10.3564 2.39863 9.87199 2.18991L9.28199 3.56991ZM6.057 4.97691C6.29176 4.38669 6.73717 3.90458 7.307 3.62391L6.651 2.27391C5.74795 2.71661 5.04108 3.47835 4.66699 4.41191L6.057 4.97691ZM7.307 3.62391C7.61276 3.47279 7.94763 3.38971 8.28857 3.38039C8.62952 3.37106 8.96843 3.43572 9.28199 3.56991L9.87199 2.18991C9.36067 1.97121 8.80814 1.86558 8.2522 1.88025C7.69627 1.89492 7.15007 2.02855 6.651 2.27391L7.307 3.62391Z" fill="#555456"/>
</svg>