<svg xmlns="http://www.w3.org/2000/svg" width="22" height="19" viewBox="0 0 22 19" fill="none">
  <path opacity="0.4" d="M18 17.502V16.002M4 17.502V16.002" stroke="#555456" stroke-width="1.5" stroke-linecap="round"/>
  <path d="M20 9.50195C20 5.73095 20 3.84495 18.828 2.67395C17.657 1.50195 15.771 1.50195 12 1.50195H10C6.229 1.50195 4.343 1.50195 3.172 2.67395C2 3.84495 2 5.73095 2 9.50195M1 12.502C1 11.57 1 11.104 1.152 10.737C1.25251 10.4941 1.3999 10.2735 1.58572 10.0877C1.77155 9.90185 1.99218 9.75447 2.235 9.65395C2.602 9.50195 3.068 9.50195 4 9.50195H18C18.932 9.50195 19.398 9.50195 19.765 9.65395C20.0078 9.75447 20.2284 9.90185 20.4143 10.0877C20.6001 10.2735 20.7475 10.4941 20.848 10.737C21 11.104 21 11.57 21 12.502C21 13.434 21 13.9 20.848 14.267C20.7475 14.5098 20.6001 14.7304 20.4143 14.9162C20.2284 15.1021 20.0078 15.2494 19.765 15.35C19.398 15.502 18.932 15.502 18 15.502H4C3.068 15.502 2.602 15.502 2.235 15.35C1.99218 15.2494 1.77155 15.1021 1.58572 14.9162C1.3999 14.7304 1.25251 14.5098 1.152 14.267C1 13.9 1 13.434 1 12.502Z" stroke="#555456" stroke-width="1.5"/>
  <path opacity="0.4" d="M17.5 9.50195V8.00195C17.5 6.11595 17.5 5.17395 16.914 4.58795C16.328 4.00195 15.386 4.00195 13.5 4.00195H8.5C6.614 4.00195 5.672 4.00195 5.086 4.58795C4.5 5.17395 4.5 6.11595 4.5 8.00195V9.50195M11 4.50195V9.50195" stroke="#555456"/>
</svg>