<svg xmlns="http://www.w3.org/2000/svg" width="21" height="21" viewBox="0 0 21 21" fill="none">
  <path opacity="0.5" d="M18.2422 10.136V14.2971C18.2422 16.8776 18.2422 18.1678 17.6304 18.7316C17.3387 19.0005 16.9704 19.1694 16.5781 19.2143C15.7555 19.3084 14.7949 18.4588 12.8737 16.7595C12.0245 16.0084 11.5999 15.6329 11.1086 15.5339C10.8667 15.4852 10.6177 15.4852 10.3758 15.5339C9.88448 15.6329 9.45987 16.0084 8.61065 16.7595C6.68946 18.4588 5.72887 19.3084 4.90628 19.2143C4.51398 19.1694 4.1457 19.0005 3.85394 18.7316C3.24219 18.1678 3.24219 16.8776 3.24219 14.2971V10.136C3.24219 6.56211 3.24219 4.77519 4.34054 3.66494C5.43889 2.55469 7.20665 2.55469 10.7422 2.55469C14.2777 2.55469 16.0455 2.55469 17.1438 3.66494C18.2422 4.77519 18.2422 6.56211 18.2422 10.136Z" fill="#4784C4"/>
  <path d="M8.24219 5.26367C7.89701 5.26367 7.61719 5.54349 7.61719 5.88867C7.61719 6.23385 7.89701 6.51367 8.24219 6.51367H13.2422C13.5874 6.51367 13.8672 6.23385 13.8672 5.88867C13.8672 5.54349 13.5874 5.26367 13.2422 5.26367H8.24219Z" fill="#4784C4"/>
</svg>