<svg xmlns="http://www.w3.org/2000/svg" width="20" height="20" viewBox="0 0 20 20" fill="none">
    <path opacity="0.5" d="M17.5 9.24728V13.4084C17.5 15.9889 17.5 17.2792 16.8882 17.8429C16.5965 18.1118 16.2282 18.2807 15.8359 18.3256C15.0133 18.4198 14.0527 17.5701 12.1315 15.8709C11.2823 15.1198 10.8577 14.7442 10.3664 14.6452C10.1245 14.5965 9.87548 14.5965 9.63356 14.6452C9.14229 14.7442 8.71768 15.1198 7.86847 15.8709C5.94728 17.5701 4.98668 18.4198 4.1641 18.3256C3.77179 18.2807 3.40351 18.1118 3.11176 17.8429C2.5 17.2792 2.5 15.9889 2.5 13.4084V9.24728C2.5 5.67344 2.5 3.88652 3.59835 2.77627C4.6967 1.66602 6.46447 1.66602 10 1.66602C13.5355 1.66602 15.3033 1.66602 16.4016 2.77627C17.5 3.88652 17.5 5.67344 17.5 9.24728Z" fill="#928F93"/>
    <path d="M7.5 4.375C7.15482 4.375 6.875 4.65482 6.875 5C6.875 5.34518 7.15482 5.625 7.5 5.625H12.5C12.8452 5.625 13.125 5.34518 13.125 5C13.125 4.65482 12.8452 4.375 12.5 4.375H7.5Z" fill="#928F93"/>
</svg>