<svg xmlns="http://www.w3.org/2000/svg" width="16" height="15" viewBox="0 0 16 15" fill="none">
  <path d="M1.33301 7.00033C1.33301 4.48633 1.33301 3.22899 2.11434 2.44833C2.89501 1.66699 4.15234 1.66699 6.66634 1.66699H9.33301C11.847 1.66699 13.1043 1.66699 13.885 2.44833C14.6663 3.22899 14.6663 4.48633 14.6663 7.00033V8.33366C14.6663 10.8477 14.6663 12.105 13.885 12.8857C13.1043 13.667 11.847 13.667 9.33301 13.667H6.66634C4.15234 13.667 2.89501 13.667 2.11434 12.8857C1.33301 12.105 1.33301 10.8477 1.33301 8.33366V7.00033Z" stroke="#6D6C6E"/>
  <path opacity="0.5" d="M4.66634 1.66699V0.666992M11.333 1.66699V0.666992M1.33301 5.00033H14.6663" stroke="#6D6C6E" stroke-linecap="round"/>
  <path d="M11 11C11.5523 11 12 10.5523 12 10C12 9.44772 11.5523 9 11 9C10.4477 9 10 9.44772 10 10C10 10.5523 10.4477 11 11 11Z" stroke="#6D6C6E" stroke-width="0.8"/>
</svg>