<svg xmlns="http://www.w3.org/2000/svg" width="18" height="18" viewBox="0 0 18 18" fill="none">
  <path opacity="0.5" d="M0.666992 8.99935C0.666992 5.07102 0.666992 3.10685 1.88699 1.88602C3.10866 0.666016 5.07199 0.666016 9.00033 0.666016C12.9287 0.666016 14.8928 0.666016 16.1128 1.88602C17.3337 3.10768 17.3337 5.07102 17.3337 8.99935C17.3337 12.9277 17.3337 14.8918 16.1128 16.1118C14.8937 17.3327 12.9287 17.3327 9.00033 17.3327C5.07199 17.3327 3.10783 17.3327 1.88699 16.1118C0.666992 14.8927 0.666992 12.9277 0.666992 8.99935Z" stroke="#BB730D" stroke-width="1.25"/>
  <path d="M11.0837 6.91602L6.91699 11.0827M6.91699 6.91602L11.0837 11.0827" stroke="#BB730D" stroke-width="1.25" stroke-linecap="round"/>
</svg>