<svg width="43" height="43" viewBox="0 0 43 43" fill="none" xmlns="http://www.w3.org/2000/svg">
<path d="M2.3335 2.00195L2.90766 2.19262C5.76766 3.14595 7.19766 3.62262 8.0145 4.75795C8.8335 5.89329 8.8335 7.40129 8.8335 10.4151V16.0853C8.8335 22.2126 8.8335 25.2785 10.738 27.1808C12.6403 29.0853 15.7062 29.0853 21.8335 29.0853H39.1668" stroke="#FEFDFE" stroke-width="2.8" stroke-linecap="round"/>
<g opacity="0.5">
<path d="M24.8333 14.9583C24.8333 15.1793 24.7455 15.3913 24.5893 15.5476C24.433 15.7039 24.221 15.7917 24 15.7917C23.779 15.7917 23.567 15.7039 23.4107 15.5476C23.2545 15.3913 23.1667 15.1793 23.1667 14.9583C23.1667 14.7373 23.2545 14.5254 23.4107 14.3691C23.567 14.2128 23.779 14.125 24 14.125C24.221 14.125 24.433 14.2128 24.5893 14.3691C24.7455 14.5254 24.8333 14.7373 24.8333 14.9583Z" fill="#FEFDFE"/>
<path fill-rule="evenodd" clip-rule="evenodd" d="M9.8335 8.50195H33.6418C38.0943 8.50195 40.3217 8.50195 41.2858 9.96229C42.2478 11.4248 41.3725 13.4701 39.6175 17.563L38.688 19.7296C37.869 21.6406 37.4595 22.594 36.647 23.1313C35.8323 23.6686 34.7923 23.6686 32.7145 23.6686H9.8335V8.50195ZM27.3335 20.1667H25.25H22.75H20.6668V14.9167L23.2193 12.875C23.441 12.6977 23.7163 12.6011 24.0002 12.6011C24.284 12.6011 24.5594 12.6977 24.781 12.875L25.4585 13.4169V12.4583C25.4585 12.4031 25.4804 12.3501 25.5195 12.311C25.5586 12.2719 25.6116 12.25 25.6668 12.25H26.7085C26.7638 12.25 26.8167 12.2719 26.8558 12.311C26.8949 12.3501 26.9168 12.4031 26.9168 12.4583V14.5835L27.3335 14.9167V20.1667Z" fill="#FEFDFE"/>
<path d="M22.75 20.1667H25.25V18.0833C25.25 17.4942 25.25 17.1996 25.0667 17.0167C24.8842 16.8333 24.5896 16.8333 24 16.8333C23.4108 16.8333 23.1162 16.8333 22.9333 17.0167C22.75 17.1992 22.75 17.4938 22.75 18.0833V20.1667Z" fill="#FEFDFE"/>
<path d="M28.1668 20.1667H19.8335M19.8335 15.5833L23.2193 12.875M23.2193 12.875C23.441 12.6977 23.7163 12.6011 24.0002 12.6011C24.284 12.6011 24.5594 12.6977 24.781 12.875M23.2193 12.875L20.6668 14.9167V20.1667H22.75M24.781 12.875L28.1668 15.5833M24.781 12.875L25.4585 13.4169V12.4583C25.4585 12.4031 25.4804 12.3501 25.5195 12.311C25.5586 12.2719 25.6116 12.25 25.6668 12.25H26.7085C26.7637 12.25 26.8167 12.2719 26.8558 12.311C26.8949 12.3501 26.9168 12.4031 26.9168 12.4583V14.5835L27.3335 14.9167V20.1667H25.25M25.25 20.1667V18.0833C25.25 17.4942 25.25 17.1996 25.0667 17.0167C24.8842 16.8333 24.5896 16.8333 24 16.8333C23.4108 16.8333 23.1162 16.8333 22.9333 17.0167C22.75 17.1992 22.75 17.4938 22.75 18.0833V20.1667M25.25 20.1667H22.75M14.2502 34.502C15.1121 34.502 15.9388 34.8444 16.5483 35.4539C17.1578 36.0634 17.5002 36.89 17.5002 37.752C17.5002 38.6139 17.1578 39.4406 16.5483 40.05C15.9388 40.6595 15.1121 41.002 14.2502 41.002C13.3882 41.002 12.5616 40.6595 11.9521 40.05C11.3426 39.4406 11.0002 38.6139 11.0002 37.752C11.0002 36.89 11.3426 36.0634 11.9521 35.4539C12.5616 34.8444 13.3882 34.502 14.2502 34.502ZM33.7502 34.502C34.6121 34.502 35.4388 34.8444 36.0483 35.4539C36.6577 36.0634 37.0002 36.89 37.0002 37.752C37.0002 38.6139 36.6577 39.4406 36.0483 40.05C35.4388 40.6595 34.6121 41.002 33.7502 41.002C32.8882 41.002 32.0616 40.6595 31.4521 40.05C30.8426 39.4406 30.5002 38.6139 30.5002 37.752C30.5002 36.89 30.8426 36.0634 31.4521 35.4539C32.0616 34.8444 32.8882 34.502 33.7502 34.502ZM9.8335 8.50195H33.6418C38.0943 8.50195 40.3217 8.50195 41.2858 9.96229C42.2478 11.4248 41.3725 13.4701 39.6175 17.563L38.688 19.7296C37.869 21.6406 37.4595 22.594 36.647 23.1313C35.8323 23.6686 34.7923 23.6686 32.7145 23.6686H9.8335V8.50195ZM24.8333 14.9583C24.8333 15.1793 24.7455 15.3913 24.5893 15.5476C24.433 15.7039 24.221 15.7917 24 15.7917C23.779 15.7917 23.567 15.7039 23.4107 15.5476C23.2545 15.3913 23.1667 15.1793 23.1667 14.9583C23.1667 14.7373 23.2545 14.5254 23.4107 14.3691C23.567 14.2128 23.779 14.125 24 14.125C24.221 14.125 24.433 14.2128 24.5893 14.3691C24.7455 14.5254 24.8333 14.7373 24.8333 14.9583Z" stroke="#FEFDFE" stroke-width="0.8" stroke-linecap="round"/>
</g>
<path d="M16.5481 35.4539C15.9386 34.8444 15.112 34.502 14.25 34.502C13.388 34.502 12.5614 34.8444 11.9519 35.4539C11.3424 36.0634 11 36.89 11 37.752C11 38.6139 11.3424 39.4406 11.9519 40.05C12.5614 40.6595 13.388 41.002 14.25 41.002C15.112 41.002 15.9386 40.6595 16.5481 40.05C17.1576 39.4406 17.5 38.6139 17.5 37.752C17.5 36.89 17.1576 36.0634 16.5481 35.4539Z" stroke="#FEFDFE" stroke-width="2.4"/>
<path d="M36.0481 35.4539C35.4386 34.8444 34.612 34.502 33.75 34.502C32.888 34.502 32.0614 34.8444 31.4519 35.4539C30.8424 36.0634 30.5 36.89 30.5 37.752C30.5 38.6139 30.8424 39.4406 31.4519 40.05C32.0614 40.6595 32.888 41.002 33.75 41.002C34.612 41.002 35.4386 40.6595 36.0481 40.05C36.6576 39.4406 37 38.6139 37 37.752C37 36.89 36.6576 36.0634 36.0481 35.4539Z" stroke="#FEFDFE" stroke-width="2.4"/>
<path d="M28.1668 20.1667H19.8335M19.8335 15.5833L23.2193 12.875C23.441 12.6977 23.7163 12.6011 24.0002 12.6011C24.284 12.6011 24.5594 12.6977 24.781 12.875L28.1668 15.5833M25.4585 13.2917V12.4583C25.4585 12.4031 25.4804 12.3501 25.5195 12.311C25.5586 12.2719 25.6116 12.25 25.6668 12.25H26.7085C26.7638 12.25 26.8167 12.2719 26.8558 12.311C26.8949 12.3501 26.9168 12.4031 26.9168 12.4583V14.5417M20.6668 20.1667V14.9583M27.3335 20.1667V14.9583M25.25 20.1667V18.0833C25.25 17.4942 25.25 17.1996 25.0667 17.0167C24.8842 16.8333 24.5896 16.8333 24 16.8333C23.4108 16.8333 23.1162 16.8333 22.9333 17.0167C22.75 17.1992 22.75 17.4938 22.75 18.0833V20.1667M24.8333 14.9583C24.8333 15.1793 24.7455 15.3913 24.5893 15.5476C24.433 15.7039 24.221 15.7917 24 15.7917C23.779 15.7917 23.567 15.7039 23.4107 15.5476C23.2545 15.3913 23.1667 15.1793 23.1667 14.9583C23.1667 14.7373 23.2545 14.5254 23.4107 14.3691C23.567 14.2128 23.779 14.125 24 14.125C24.221 14.125 24.433 14.2128 24.5893 14.3691C24.7455 14.5254 24.8333 14.7373 24.8333 14.9583Z" stroke="#FEFDFE" stroke-width="0.8" stroke-linecap="round"/>
</svg>
