<svg xmlns="http://www.w3.org/2000/svg" width="12" height="12" viewBox="0 0 12 12" fill="none">
<path opacity="0.5" d="M6.5 11C8.5275 10.996 9.589 10.9465 10.2675 10.2675C11 9.536 11 8.357 11 6C11 3.643 11 2.4645 10.2675 1.732C9.5355 1 8.357 1 6 1C3.643 1 2.4645 1 1.732 1.732C1.0535 2.411 1.004 3.472 1 5.5" stroke="#4784C4" stroke-linecap="round"/>
<path d="M8.5 3.5L6 6M6 6H7.875M6 6V4.125" stroke="#4784C4" stroke-linecap="round" stroke-linejoin="round"/>
<path d="M1 9C1 8.057 1 7.586 1.293 7.293C1.586 7 2.057 7 3 7C3.943 7 4.414 7 4.707 7.293C5 7.586 5 8.057 5 9C5 9.943 5 10.414 4.707 10.707C4.414 11 3.943 11 3 11C2.057 11 1.586 11 1.293 10.707C1 10.414 1 9.943 1 9Z" stroke="#4784C4" stroke-width="1.2"/>
</svg>