<svg xmlns="http://www.w3.org/2000/svg" width="20" height="21" viewBox="0 0 20 21" fill="none">
  <path d="M13 7.68164L17 3.68164M17 3.68164V6.68164M17 3.68164H14" stroke="#161925" stroke-linecap="round" stroke-linejoin="round"/>
  <path opacity="0.5" d="M13.645 14.2249L14.1 13.7449L13.012 12.7119L12.557 13.1929L13.645 14.2249ZM15.599 13.5429L17.509 14.6439L18.258 13.3429L16.347 12.2429L15.599 13.5429ZM17.878 16.9229L16.458 18.4179L17.545 19.4519L18.965 17.9569L17.878 16.9229ZM15.603 18.8979C14.168 19.0389 10.423 18.9189 6.359 14.6409L5.272 15.6729C9.701 20.3359 13.926 20.5719 15.75 20.3909L15.603 18.8979ZM6.359 14.6409C2.483 10.5599 1.833 7.11691 1.752 5.60691L0.254001 5.68791C0.354001 7.53791 1.138 11.3209 5.272 15.6729L6.359 14.6409ZM7.735 8.00291L8.021 7.70091L6.934 6.66791L6.647 6.96991L7.735 8.00291ZM8.247 3.94091L6.986 2.15891L5.761 3.02491L7.021 4.80791L8.247 3.94091ZM2.717 1.77291L1.149 3.42691L2.237 4.45991L3.807 2.80691L2.717 1.77291ZM7.191 7.48591C7.01102 7.31247 6.82935 7.14079 6.646 6.97091L6.644 6.97291L6.641 6.97591C6.62344 6.99446 6.60676 7.01381 6.591 7.03391C6.49298 7.16366 6.41541 7.30767 6.361 7.46091C6.263 7.73591 6.211 8.09991 6.277 8.55391C6.407 9.44591 6.992 10.6449 8.519 12.2539L9.607 11.2199C8.179 9.71691 7.827 8.79191 7.761 8.33591C7.729 8.11591 7.761 8.00091 7.774 7.96391L7.782 7.94491C7.77384 7.95809 7.76447 7.97048 7.754 7.98191C7.74813 7.98869 7.74213 7.99536 7.736 8.00191C7.736 8.00191 7.734 8.00191 7.191 7.48591ZM8.519 12.2539C10.042 13.8579 11.192 14.4869 12.069 14.6299C12.52 14.7029 12.885 14.6439 13.161 14.5349C13.3139 14.4749 13.4561 14.3904 13.582 14.2849C13.5943 14.2739 13.6063 14.2626 13.618 14.2509L13.632 14.2369C13.6344 14.2349 13.6367 14.2329 13.639 14.2309L13.642 14.2279L13.643 14.2259C13.643 14.2259 13.645 14.2249 13.101 13.7079C12.557 13.1919 12.558 13.1909 12.558 13.1899L12.56 13.1889L12.562 13.1859C12.5637 13.1843 12.5654 13.1826 12.567 13.1809L12.577 13.1709C12.5887 13.1596 12.6011 13.1489 12.614 13.1389C12.624 13.1329 12.623 13.1349 12.61 13.1399C12.59 13.1479 12.5 13.1799 12.31 13.1489C11.908 13.0829 11.04 12.7289 9.607 11.2199L8.519 12.2539ZM6.986 2.15891C5.972 0.724912 3.944 0.481912 2.718 1.77391L3.804 2.80691C4.327 2.25691 5.249 2.29991 5.761 3.02491L6.986 2.15891ZM1.752 5.60691C1.73 5.20691 1.905 4.80791 2.237 4.45991L1.149 3.42691C0.613001 3.99091 0.205001 4.77391 0.254001 5.68791L1.752 5.60691ZM16.457 18.4189C16.178 18.7129 15.887 18.8699 15.603 18.8979L15.75 20.3909C16.497 20.3179 17.102 19.9189 17.545 19.4519L16.457 18.4189ZM8.021 7.70191C8.989 6.68291 9.057 5.08891 8.247 3.94191L7.022 4.80791C7.444 5.40491 7.379 6.19991 6.934 6.66791L8.021 7.70191ZM17.509 14.6439C18.33 15.1169 18.491 16.2789 17.878 16.9239L18.965 17.9569C20.27 16.5829 19.89 14.2829 18.258 13.3429L17.509 14.6439ZM14.1 13.7459C14.485 13.3399 15.086 13.2489 15.599 13.5439L16.347 12.2439C15.248 11.6119 13.887 11.7939 13.012 12.7139L14.1 13.7459Z" fill="#161925"/>
</svg>