<svg xmlns="http://www.w3.org/2000/svg" width="22" height="22" viewBox="0 0 22 22" fill="none">
  <path d="M21 12.8408V10.8408C21 7.06982 21 5.18382 19.828 4.01282C18.657 2.84082 16.771 2.84082 13 2.84082H9C5.229 2.84082 3.343 2.84082 2.172 4.01282C1 5.18382 1 7.06982 1 10.8408V12.8408C1 16.6118 1 18.4978 2.172 19.6688C3.343 20.8408 5.229 20.8408 9 20.8408H13" stroke="#161925" stroke-width="1.25" stroke-linecap="round"/>
  <path opacity="0.5" d="M6 2.84082V1.34082M16 2.84082V1.34082M1 7.84082H21" stroke="#161925" stroke-width="1.25" stroke-linecap="round"/>
  <path d="M17 19.8408C18.6569 19.8408 20 18.4977 20 16.8408C20 15.184 18.6569 13.8408 17 13.8408C15.3431 13.8408 14 15.184 14 16.8408C14 18.4977 15.3431 19.8408 17 19.8408Z" stroke="#161925" stroke-width="1.25"/>
  <path d="M19.5 19.3408L21 20.8408" stroke="#161925" stroke-width="1.25" stroke-linecap="round"/>
</svg>