<svg xmlns="http://www.w3.org/2000/svg" width="14" height="15" viewBox="0 0 14 15" fill="none">
  <path d="M12.6663 3.4375H1.33301M11.555 5.10417L11.2483 9.70417C11.1303 11.4735 11.0717 12.3582 10.495 12.8975C9.91834 13.4375 9.03167 13.4375 7.25767 13.4375H6.74167C4.96834 13.4375 4.08167 13.4375 3.50434 12.8975C2.92767 12.3582 2.86901 11.4735 2.75101 9.70417L2.44434 5.10417" stroke="#8C560A" stroke-width="1.2" stroke-linecap="round"/>
  <path opacity="0.5" d="M5.33301 6.77148L5.66634 10.1048M8.66634 6.77148L8.33301 10.1048" stroke="#8C560A" stroke-linecap="round"/>
  <path opacity="0.5" d="M3.33301 3.4375H3.40634C3.67464 3.43064 3.93462 3.34298 4.15229 3.18597C4.36996 3.02897 4.53518 2.80993 4.62634 2.5575L4.64901 2.48883L4.71367 2.29483C4.76901 2.12883 4.79701 2.04617 4.83367 1.9755C4.90581 1.83709 5.00935 1.71749 5.13599 1.62627C5.26264 1.53505 5.40888 1.47474 5.56301 1.45017C5.64101 1.4375 5.72834 1.4375 5.90301 1.4375H8.09634C8.27101 1.4375 8.35834 1.4375 8.43634 1.45017C8.59047 1.47474 8.73671 1.53505 8.86336 1.62627C8.99 1.71749 9.09354 1.83709 9.16567 1.9755C9.20234 2.04617 9.23034 2.12883 9.28567 2.29483L9.35034 2.48883C9.43483 2.76968 9.60955 3.01484 9.84746 3.18634C10.0854 3.35784 10.3732 3.44612 10.6663 3.4375" stroke="#8C560A"/>
</svg>