<svg xmlns="http://www.w3.org/2000/svg" width="12" height="16" viewBox="0 0 12 16" fill="none">
  <path opacity="0.5" d="M0.666992 6.76167C0.666992 3.76367 3.05499 1.33301 6.00033 1.33301C8.94566 1.33301 11.3337 3.76367 11.3337 6.76167C11.3337 9.73634 9.63166 13.2083 6.97566 14.449C6.67038 14.592 6.33741 14.666 6.00033 14.666C5.66324 14.666 5.33027 14.592 5.02499 14.449C2.36899 13.2077 0.666992 9.73701 0.666992 6.76234V6.76167Z" stroke="#555456"/>
  <path d="M6 8.66602C7.10457 8.66602 8 7.77059 8 6.66602C8 5.56145 7.10457 4.66602 6 4.66602C4.89543 4.66602 4 5.56145 4 6.66602C4 7.77059 4.89543 8.66602 6 8.66602Z" stroke="#555456" stroke-width="0.8"/>
</svg>