<svg xmlns="http://www.w3.org/2000/svg" width="16" height="16" viewBox="0 0 16 16" fill="none">
<path opacity="0.5" fill-rule="evenodd" clip-rule="evenodd" d="M8.00065 14.6673C11.6825 14.6673 14.6673 11.6825 14.6673 8.00065C14.6673 4.31875 11.6825 1.33398 8.00065 1.33398C4.31875 1.33398 1.33398 4.31875 1.33398 8.00065C1.33398 11.6825 4.31875 14.6673 8.00065 14.6673ZM8.00065 10.6673C9.47341 10.6673 10.6673 9.47341 10.6673 8.00065C10.6673 6.52789 9.47341 5.33398 8.00065 5.33398C6.52789 5.33398 5.33398 6.52789 5.33398 8.00065C5.33398 9.47341 6.52789 10.6673 8.00065 10.6673Z" fill="#FEFDFE"/>
<path d="M3.6525 13.0542L6.501 10.2057C6.2232 10.0166 5.98298 9.7764 5.79386 9.49862L2.94538 12.3471C3.16314 12.6 3.39956 12.8364 3.6525 13.0542Z" fill="#FEFDFE"/>
<path d="M2.94531 3.65242L5.7938 6.50091C5.98291 6.22312 6.22312 5.98291 6.50091 5.7938L3.65242 2.94531C3.39948 3.16306 3.16306 3.39948 2.94531 3.65242Z" fill="#FEFDFE"/>
<path d="M9.49862 5.79386L12.3471 2.94538C12.6 3.16314 12.8364 3.39956 13.0542 3.6525L10.2057 6.501C10.0166 6.2232 9.7764 5.98298 9.49862 5.79386Z" fill="#FEFDFE"/>
<path d="M13.0541 12.347L10.2056 9.49853C10.0165 9.77631 9.77631 10.0165 9.49853 10.2056L12.347 13.0541C12.6 12.8364 12.8364 12.6 13.0541 12.347Z" fill="#FEFDFE"/>
</svg>