<svg xmlns="http://www.w3.org/2000/svg" width="97" height="97" viewBox="0 0 97 97" fill="none">
  <path fill-rule="evenodd" clip-rule="evenodd" d="M70.498 44.498C62.014 44.498 57.77 44.498 55.134 41.862C52.498 39.226 52.498 34.982 52.498 26.498C52.498 18.014 52.498 13.77 55.134 11.134C57.77 8.49805 62.014 8.49805 70.498 8.49805C78.982 8.49805 83.226 8.49805 85.862 11.134C88.498 13.77 88.498 18.014 88.498 26.498C88.498 34.982 88.498 39.226 85.862 41.862C83.226 44.498 78.982 44.498 70.498 44.498ZM73.498 18.498C73.498 17.7024 73.182 16.9393 72.6194 16.3767C72.0568 15.8141 71.2937 15.498 70.498 15.498C69.7024 15.498 68.9393 15.8141 68.3767 16.3767C67.8141 16.9393 67.498 17.7024 67.498 18.498V23.498H62.498C61.7024 23.498 60.9393 23.8141 60.3767 24.3767C59.8141 24.9393 59.498 25.7024 59.498 26.498C59.498 27.2937 59.8141 28.0568 60.3767 28.6194C60.9393 29.182 61.7024 29.498 62.498 29.498H67.498V34.498C67.498 35.2937 67.8141 36.0568 68.3767 36.6194C68.9393 37.182 69.7024 37.498 70.498 37.498C71.2937 37.498 72.0568 37.182 72.6194 36.6194C73.182 36.0568 73.498 35.2937 73.498 34.498V29.498H78.498C79.2937 29.498 80.0568 29.182 80.6194 28.6194C81.182 28.0568 81.498 27.2937 81.498 26.498C81.498 25.7024 81.182 24.9393 80.6194 24.3767C80.0568 23.8141 79.2937 23.498 78.498 23.498H73.498V18.498Z" fill="#B6B3B8"/>
  <path opacity="0.5" d="M88.502 51.294C88.494 57.174 88.45 62.166 88.118 66.266C87.73 71.026 86.934 75.002 85.158 78.302C84.3829 79.7489 83.399 81.0738 82.238 82.234C78.906 85.566 74.666 87.074 69.29 87.794C64.038 88.502 57.302 88.502 48.714 88.502H48.29C39.698 88.502 32.97 88.502 27.714 87.794C22.342 87.074 18.098 85.566 14.77 82.234C11.818 79.282 10.29 75.6101 9.48195 71.0541C8.68195 66.5741 8.53795 61.006 8.50995 54.09C8.50195 52.33 8.50195 50.47 8.50195 48.502V48.286C8.50195 39.694 8.50195 32.966 9.20995 27.71C9.92995 22.338 11.438 18.094 14.77 14.766C18.098 11.434 22.342 9.92605 27.714 9.20605C32.386 8.57805 38.394 8.50605 45.71 8.49805C46.4504 8.49805 47.1606 8.7922 47.6842 9.3158C48.2078 9.83941 48.502 10.5496 48.502 11.29C48.502 12.0305 48.2078 12.7407 47.6842 13.2643C47.1606 13.7879 46.4504 14.082 45.71 14.082C38.29 14.09 32.774 14.154 28.458 14.734C23.702 15.374 20.834 16.59 18.714 18.71C16.594 20.83 15.382 23.702 14.742 28.462C14.09 33.302 14.082 39.654 14.082 48.502V51.6381L17.81 48.382C19.4441 46.9523 21.5604 46.197 23.7305 46.269C25.9006 46.341 27.9623 47.2351 29.498 48.7701L45.458 64.73C46.6962 65.969 48.3319 66.7314 50.077 66.8828C51.8222 67.0343 53.5647 66.5652 54.998 65.558L56.11 64.778C58.1771 63.3251 60.676 62.6167 63.1981 62.7685C65.7202 62.9204 68.1161 63.9236 69.9939 65.614L80.526 75.094C81.586 72.866 82.218 69.942 82.554 65.814C82.87 61.926 82.914 57.206 82.918 51.294C82.918 50.5536 83.2121 49.8434 83.7357 49.3198C84.2593 48.7962 84.9695 48.502 85.71 48.502C86.4504 48.502 87.1606 48.7962 87.6842 49.3198C88.2078 49.8434 88.502 50.5536 88.502 51.294Z" fill="#B6B3B8"/>
</svg>