<svg xmlns="http://www.w3.org/2000/svg" width="20" height="21" viewBox="0 0 20 21" fill="none">
  <path opacity="0.5" d="M11.834 3.10156H8.16732C4.71065 3.10156 2.98148 3.10156 1.90815 4.1999C0.833984 5.29823 0.833984 7.06656 0.833984 10.6016C0.833984 14.1374 0.833984 15.9049 1.90815 17.0032C2.98148 18.1016 4.71065 18.1016 8.16732 18.1016H11.834C15.2906 18.1016 17.0198 18.1016 18.0931 17.0032C19.1673 15.9049 19.1673 14.1366 19.1673 10.6016C19.1673 7.06573 19.1673 5.29823 18.0931 4.1999C17.0198 3.10156 15.2906 3.10156 11.834 3.10156Z" fill="#E8E8E9"/>
  <path d="M15.9401 7.29597C16.0802 7.17928 16.1682 7.0117 16.1848 6.8301C16.2013 6.6485 16.1451 6.46776 16.0284 6.32764C15.9117 6.18752 15.7441 6.09949 15.5625 6.08292C15.3809 6.06636 15.2002 6.12261 15.0601 6.2393L13.0809 7.8893C12.2259 8.6018 11.6326 9.09514 11.1309 9.4168C10.6459 9.7293 10.3167 9.83347 10.0001 9.83347C9.68339 9.83347 9.35506 9.7293 8.86923 9.4168C8.36839 9.09514 7.77423 8.6018 6.91923 7.88847L4.94006 6.2393C4.79994 6.12261 4.6192 6.06636 4.4376 6.08292C4.256 6.09949 4.08842 6.18752 3.97173 6.32764C3.85503 6.46776 3.79878 6.6485 3.81534 6.8301C3.83191 7.0117 3.91994 7.17928 4.06006 7.29597L6.07339 8.9743C6.88589 9.65097 7.54423 10.1993 8.12589 10.5743C8.73089 10.9626 9.32089 11.2093 10.0009 11.2093C10.6792 11.2093 11.2692 10.9626 11.8751 10.5735C12.4559 10.2001 13.1142 9.65097 13.9267 8.97347L15.9401 7.29597Z" fill="#E8E8E9"/>
</svg>