<svg xmlns="http://www.w3.org/2000/svg" width="228" height="253" viewBox="0 0 228 253" fill="none">
  <g clip-path="url(#clip0_883_36450)">
    <path d="M114 240.793C176.881 240.793 227.855 189.818 227.855 126.937C227.855 64.0568 176.881 13.082 114 13.082C51.1193 13.082 0.144531 64.0568 0.144531 126.937C0.144531 189.818 51.1193 240.793 114 240.793Z" fill="#CCE3FC"/>
    <g filter="url(#filter0_d_883_36450)">
      <path d="M48.7227 79.1184H179.277C183.05 79.1184 186.108 82.1769 186.108 85.9497V245.347C186.108 249.12 183.05 252.179 179.277 252.179H48.7227C44.9498 252.179 41.8914 249.12 41.8914 245.347V85.9497C41.8914 82.1769 44.9498 79.1184 48.7227 79.1184Z" fill="#FEFDFE" stroke="#CCE3FC" stroke-width="1.51807"/>
    </g>
    <path d="M98.819 101.131H59.3491C56.8339 101.131 54.7949 103.17 54.7949 105.685C54.7949 108.2 56.8339 110.239 59.3491 110.239H98.819C101.334 110.239 103.373 108.2 103.373 105.685C103.373 103.17 101.334 101.131 98.819 101.131Z" fill="#CCE3FC"/>
    <path d="M126.144 120.865H59.3491C56.8339 120.865 54.7949 122.904 54.7949 125.419C54.7949 127.935 56.8339 129.974 59.3491 129.974H126.144C128.66 129.974 130.699 127.935 130.699 125.419C130.699 122.904 128.66 120.865 126.144 120.865Z" fill="#4784C4"/>
    <path d="M98.819 142.119H59.3491C56.8339 142.119 54.7949 144.158 54.7949 146.673C54.7949 149.189 56.8339 151.228 59.3491 151.228H98.819C101.334 151.228 103.373 149.189 103.373 146.673C103.373 144.158 101.334 142.119 98.819 142.119Z" fill="#CCE3FC"/>
    <path d="M126.144 161.854H59.3491C56.8339 161.854 54.7949 163.893 54.7949 166.408C54.7949 168.923 56.8339 170.962 59.3491 170.962H126.144C128.66 170.962 130.699 168.923 130.699 166.408C130.699 163.893 128.66 161.854 126.144 161.854Z" fill="#4784C4"/>
    <path d="M98.819 183.105H59.3491C56.8339 183.105 54.7949 185.144 54.7949 187.66C54.7949 190.175 56.8339 192.214 59.3491 192.214H98.819C101.334 192.214 103.373 190.175 103.373 187.66C103.373 185.144 101.334 183.105 98.819 183.105Z" fill="#CCE3FC"/>
    <path d="M126.144 202.84H59.3491C56.8339 202.84 54.7949 204.879 54.7949 207.394C54.7949 209.909 56.8339 211.948 59.3491 211.948H126.144C128.66 211.948 130.699 209.909 130.699 207.394C130.699 204.879 128.66 202.84 126.144 202.84Z" fill="#4784C4"/>
    <g filter="url(#filter1_d_883_36450)">
      <path d="M179.277 0.9375H48.7227C44.5306 0.9375 41.1323 4.33582 41.1323 8.52786V54.07C41.1323 58.2621 44.5306 61.6604 48.7227 61.6604H179.277C183.469 61.6604 186.867 58.2621 186.867 54.07V8.52786C186.867 4.33582 183.469 0.9375 179.277 0.9375Z" fill="#4784C4"/>
    </g>
    <path d="M98.819 17.6367H59.3491C56.8339 17.6367 54.7949 19.6757 54.7949 22.1909C54.7949 24.7062 56.8339 26.7452 59.3491 26.7452H98.819C101.334 26.7452 103.373 24.7062 103.373 22.1909C103.373 19.6757 101.334 17.6367 98.819 17.6367Z" fill="#CCE3FC"/>
    <path opacity="0.5" d="M126.144 37.3711H59.3491C56.8339 37.3711 54.7949 39.4101 54.7949 41.9253C54.7949 44.4405 56.8339 46.4795 59.3491 46.4795H126.144C128.66 46.4795 130.699 44.4405 130.699 41.9253C130.699 39.4101 128.66 37.3711 126.144 37.3711Z" fill="#EEF6FE"/>
  </g>
  <defs>
    <filter id="filter0_d_883_36450" x="32.0239" y="64.6967" width="163.952" height="192.795" filterUnits="userSpaceOnUse" color-interpolation-filters="sRGB">
      <feFlood flood-opacity="0" result="BackgroundImageFix"/>
      <feColorMatrix in="SourceAlpha" type="matrix" values="0 0 0 0 0 0 0 0 0 0 0 0 0 0 0 0 0 0 127 0" result="hardAlpha"/>
      <feOffset dy="-4.55422"/>
      <feGaussianBlur stdDeviation="4.55422"/>
      <feColorMatrix type="matrix" values="0 0 0 0 0.788235 0 0 0 0 0.803922 0 0 0 0 0.85098 0 0 0 0.349 0"/>
      <feBlend mode="normal" in2="BackgroundImageFix" result="effect1_dropShadow_883_36450"/>
      <feBlend mode="normal" in="SourceGraphic" in2="effect1_dropShadow_883_36450" result="shape"/>
    </filter>
    <filter id="filter1_d_883_36450" x="32.0239" y="-12.7252" width="163.952" height="78.9395" filterUnits="userSpaceOnUse" color-interpolation-filters="sRGB">
      <feFlood flood-opacity="0" result="BackgroundImageFix"/>
      <feColorMatrix in="SourceAlpha" type="matrix" values="0 0 0 0 0 0 0 0 0 0 0 0 0 0 0 0 0 0 127 0" result="hardAlpha"/>
      <feOffset dy="-4.55422"/>
      <feGaussianBlur stdDeviation="4.55422"/>
      <feColorMatrix type="matrix" values="0 0 0 0 0.788235 0 0 0 0 0.803922 0 0 0 0 0.85098 0 0 0 0.349 0"/>
      <feBlend mode="normal" in2="BackgroundImageFix" result="effect1_dropShadow_883_36450"/>
      <feBlend mode="normal" in="SourceGraphic" in2="effect1_dropShadow_883_36450" result="shape"/>
    </filter>
    <clipPath id="clip0_883_36450">
      <rect width="227.711" height="252" fill="white" transform="translate(0.144531 0.9375)"/>
    </clipPath>
  </defs>
</svg>