<svg width="66" height="41" viewBox="0 0 66 41" fill="none" xmlns="http://www.w3.org/2000/svg">
<g id="Frame 10">
<path id="Vector 10" d="M9.27178 40.1837C4.08844 40.1837 0.941406 33.7045 0.941406 31.2362V1.30859L22.5387 18.2779L44.1359 1.30859C44.1359 10.5646 42.7022 13.3414 38.8909 16.4267C32.4117 21.6717 22.5387 29.385 22.5387 29.385L9.27178 19.2035V40.1837Z" fill="#E8E8E9"/>
<g id="Vector 12">
<path d="M29.3264 40.1836C29.3264 31.2362 30.7602 28.1508 34.5714 25.0655L64.8076 0.999973L64.8076 31.2362C64.8076 33.7044 59.5626 40.1836 56.7858 40.1836L56.7858 18.5863L29.3264 40.1836Z" fill="#E8E8E9"/>
<path d="M34.5714 25.0655L34.3793 24.8241L34.3773 24.8257L34.5714 25.0655ZM29.3264 40.1836H29.0179C29.0179 40.3017 29.0853 40.4095 29.1916 40.4611C29.2979 40.5127 29.4243 40.4991 29.5171 40.4261L29.3264 40.1836ZM56.7858 18.5863H57.0943V17.9511L56.595 18.3438L56.7858 18.5863ZM64.8076 0.999973H65.1161C65.1161 0.881512 65.0483 0.77351 64.9416 0.722057C64.8349 0.670609 64.7082 0.684799 64.6155 0.758572L64.8076 0.999973ZM56.7858 40.1836H56.4772C56.4772 40.354 56.6154 40.4921 56.7858 40.4921V40.1836ZM34.3773 24.8257C32.4424 26.3921 31.0895 27.9775 30.23 30.32C29.376 32.6476 29.0179 35.7001 29.0179 40.1836H29.6349C29.6349 35.7197 29.9936 32.7557 30.8093 30.5325C31.6196 28.3241 32.8892 26.8243 34.7656 25.3053L34.3773 24.8257ZM29.5171 40.4261L56.9765 18.8288L56.595 18.3438L29.1357 39.9411L29.5171 40.4261ZM34.7636 25.3069L64.9998 1.24137L64.6155 0.758572L34.3793 24.8241L34.7636 25.3069ZM64.4991 0.999973L64.4991 31.2362H65.1161L65.1161 0.999973H64.4991ZM64.4991 31.2362C64.4991 31.7687 64.2068 32.577 63.6756 33.5246C63.1521 34.4584 62.4222 35.483 61.6041 36.4343C60.7856 37.3861 59.8866 38.2553 59.0284 38.8837C58.1577 39.5212 57.3771 39.8751 56.7858 39.8751V40.4921C57.5829 40.4921 58.4992 40.036 59.3929 39.3816C60.2991 38.718 61.2321 37.8132 62.0719 36.8366C62.9122 35.8596 63.6671 34.8016 64.2138 33.8264C64.7528 32.8649 65.1161 31.9377 65.1161 31.2362H64.4991ZM57.0943 40.1836L57.0943 18.5863H56.4772L56.4772 40.1836H57.0943Z" fill="#E8E8E9"/>
</g>
</g>
</svg>
