<svg xmlns="http://www.w3.org/2000/svg" width="18" height="18" viewBox="0 0 18 18" fill="none">
  <path d="M5.66602 9H12.3327M12.3327 9L9.83268 6.5M12.3327 9L9.83268 11.5" stroke="#161925" stroke-width="1.25" stroke-linecap="round" stroke-linejoin="round"/>
  <path opacity="0.5" d="M0.666016 8.99935C0.666016 5.07102 0.666016 3.10685 1.88602 1.88602C3.10768 0.666016 5.07102 0.666016 8.99935 0.666016C12.9277 0.666016 14.8918 0.666016 16.1118 1.88602C17.3327 3.10768 17.3327 5.07102 17.3327 8.99935C17.3327 12.9277 17.3327 14.8918 16.1118 16.1118C14.8927 17.3327 12.9277 17.3327 8.99935 17.3327C5.07102 17.3327 3.10685 17.3327 1.88602 16.1118C0.666016 14.8927 0.666016 12.9277 0.666016 8.99935Z" stroke="#161925" stroke-width="1.25"/>
</svg>