<svg xmlns="http://www.w3.org/2000/svg" width="18" height="19" viewBox="0 0 18 19" fill="none">
<path fill-rule="evenodd" clip-rule="evenodd" d="M17.64 10.1108C17.64 9.47262 17.5827 8.85899 17.4764 8.2699H9V11.7513H13.8436C13.635 12.8763 13.0009 13.8294 12.0477 14.4676V16.7258H14.9564C16.6582 15.159 17.64 12.8517 17.64 10.1108Z" fill="#4285F4"/>
<path fill-rule="evenodd" clip-rule="evenodd" d="M8.99988 18.9061C11.4299 18.9061 13.4672 18.1002 14.9562 16.7256L12.0476 14.4675C11.2417 15.0075 10.2108 15.3265 8.99988 15.3265C6.65579 15.3265 4.6717 13.7434 3.96397 11.6161H0.957153V13.9479C2.43806 16.8893 5.4817 18.9061 8.99988 18.9061Z" fill="#34A853"/>
<path fill-rule="evenodd" clip-rule="evenodd" d="M3.96409 11.6163C3.78409 11.0763 3.68182 10.4995 3.68182 9.90629C3.68182 9.31311 3.78409 8.73629 3.96409 8.19629V5.86447H0.957273C0.347727 7.07947 0 8.45402 0 9.90629C0 11.3586 0.347727 12.7331 0.957273 13.9481L3.96409 11.6163Z" fill="#FBBC05"/>
<path fill-rule="evenodd" clip-rule="evenodd" d="M8.99988 4.4858C10.3212 4.4858 11.5076 4.93989 12.4403 5.8317L15.0217 3.25034C13.4631 1.79807 11.4258 0.90625 8.99988 0.90625C5.4817 0.90625 2.43806 2.92307 0.957153 5.86443L3.96397 8.19625C4.6717 6.06898 6.65579 4.4858 8.99988 4.4858Z" fill="#EA4335"/>
</svg>