<svg xmlns="http://www.w3.org/2000/svg" width="20" height="20" viewBox="0 0 20 20" fill="none">
<path d="M2.08344 5.41732C2.08344 3.84597 2.08344 3.0603 2.57159 2.57214C3.05975 2.08398 3.84542 2.08398 5.41677 2.08398C6.98812 2.08398 7.77379 2.08398 8.26195 2.57214C8.7501 3.0603 8.7501 3.84597 8.7501 5.41732C8.7501 6.98867 8.7501 7.77434 8.26195 8.2625C7.77379 8.75065 6.98812 8.75065 5.41677 8.75065C3.84542 8.75065 3.05975 8.75065 2.57159 8.2625C2.08344 7.77434 2.08344 6.98867 2.08344 5.41732Z" stroke="#928F93" stroke-width="1.5"/>
<path d="M11.2501 14.5833C11.2501 13.012 11.2501 12.2263 11.7383 11.7382C12.2264 11.25 13.0121 11.25 14.5835 11.25C16.1548 11.25 16.9405 11.25 17.4286 11.7382C17.9168 12.2263 17.9168 13.012 17.9168 14.5833C17.9168 16.1547 17.9168 16.9404 17.4286 17.4285C16.9405 17.9167 16.1548 17.9167 14.5835 17.9167C13.0121 17.9167 12.2264 17.9167 11.7383 17.4285C11.2501 16.9404 11.2501 16.1547 11.2501 14.5833Z" stroke="#928F93" stroke-width="1.5"/>
<path d="M2.08344 14.5833C2.08344 13.012 2.08344 12.2263 2.57159 11.7382C3.05975 11.25 3.84542 11.25 5.41677 11.25C6.98812 11.25 7.77379 11.25 8.26195 11.7382C8.7501 12.2263 8.7501 13.012 8.7501 14.5833C8.7501 16.1547 8.7501 16.9404 8.26195 17.4285C7.77379 17.9167 6.98812 17.9167 5.41677 17.9167C3.84542 17.9167 3.05975 17.9167 2.57159 17.4285C2.08344 16.9404 2.08344 16.1547 2.08344 14.5833Z" stroke="#928F93" stroke-width="1.5"/>
<path d="M11.2501 5.41732C11.2501 3.84597 11.2501 3.0603 11.7383 2.57214C12.2264 2.08398 13.0121 2.08398 14.5835 2.08398C16.1548 2.08398 16.9405 2.08398 17.4286 2.57214C17.9168 3.0603 17.9168 3.84597 17.9168 5.41732C17.9168 6.98867 17.9168 7.77434 17.4286 8.2625C16.9405 8.75065 16.1548 8.75065 14.5835 8.75065C13.0121 8.75065 12.2264 8.75065 11.7383 8.2625C11.2501 7.77434 11.2501 6.98867 11.2501 5.41732Z" stroke="#928F93" stroke-width="1.5"/>
</svg>