<svg width="20" height="22" viewBox="0 0 20 22" fill="none" xmlns="http://www.w3.org/2000/svg">
<path d="M3.76601 6.14075C2.65401 7.06275 2.36201 8.62375 1.77601 11.7437C0.953006 16.1337 0.542006 18.3278 1.74201 19.7738C2.94201 21.2188 5.17401 21.2188 9.63901 21.2188H10.361C14.826 21.2188 17.059 21.2188 18.258 19.7738C19.458 18.3278 19.045 16.1337 18.223 11.7437C17.637 8.62375 17.345 7.06275 16.233 6.14075M16.235 6.14075C15.124 5.21875 13.536 5.21875 10.36 5.21875H9.63801C6.46301 5.21875 4.87501 5.21875 3.76401 6.14075" stroke="#161925" stroke-width="1.5"/>
<path opacity="0.5" d="M8 13.5188L9.333 14.7188L12 11.7188" stroke="#161925" stroke-width="1.5" stroke-linecap="round" stroke-linejoin="round"/>
<path opacity="0.5" d="M7 5.21875V4.21875C7 3.4231 7.31607 2.66004 7.87868 2.09743C8.44129 1.53482 9.20435 1.21875 10 1.21875C10.7956 1.21875 11.5587 1.53482 12.1213 2.09743C12.6839 2.66004 13 3.4231 13 4.21875V5.21875" stroke="#161925" stroke-width="1.5" stroke-linecap="round"/>
</svg>
