<svg width="53" height="65" viewBox="0 0 53 65" fill="none" xmlns="http://www.w3.org/2000/svg">
<path d="M26.696 1.05653C26.3768 1.23062 26.3333 1.36118 26.2898 2.15909C26.2462 3.02953 26.2607 3.07305 26.6524 3.21812C26.8701 3.29066 27.2037 3.33418 27.3778 3.27615C27.6534 3.21812 27.7115 3.26165 27.7115 3.55179C27.7115 4.03054 27.4794 4.1611 27.2763 3.78391C27.0586 3.3777 26.2607 3.3777 26.2607 3.7694C26.2607 4.26265 26.6669 4.50928 27.4794 4.50928C28.4223 4.50928 28.669 4.27716 28.8721 3.20362C29.1042 1.95599 29.0607 1.50626 28.6835 1.24513C28.1902 0.925964 27.1312 0.824413 26.696 1.05653ZM27.784 2.11557C27.784 2.43473 27.7115 2.69586 27.6099 2.72487C27.4794 2.7684 27.4213 2.59431 27.4213 2.11557C27.4213 1.63682 27.4794 1.46274 27.6099 1.49175C27.7115 1.53527 27.784 1.7964 27.784 2.11557Z" fill="#161925"/>
<path d="M22.3144 1.25953C21.9662 1.44812 21.9082 1.56418 21.9082 2.12997C21.9082 3.13097 22.6191 3.74028 23.3589 3.34858C23.5765 3.23252 23.6491 3.26154 23.7216 3.50816C23.8667 3.92888 23.562 4.20452 23.3154 3.88535C23.1848 3.69676 23.0253 3.65324 22.6626 3.72577C22.1113 3.84183 22.0968 3.91437 22.503 4.34959C22.7786 4.63974 22.9237 4.68326 23.533 4.62523C23.9392 4.58171 24.3599 4.43663 24.534 4.27705C24.8097 4.03043 24.8387 3.88535 24.7661 2.7973C24.6791 1.27403 24.4905 1.02741 23.446 1.02741C23.0398 1.04192 22.532 1.14347 22.3144 1.25953ZM23.533 2.14447C23.6201 2.7828 23.5911 2.84083 23.2864 2.72477C22.9963 2.60871 22.9817 1.6077 23.2719 1.6077C23.388 1.6077 23.504 1.8108 23.533 2.14447Z" fill="#161925"/>
<path d="M18.9631 2.12974C18.5859 2.41989 18.2812 2.71004 18.2812 2.78257C18.2812 2.8406 18.4844 2.91314 18.7455 2.94215C19.1807 2.98567 19.2387 3.05821 19.5869 3.92865C20.0802 5.2053 20.0947 5.23431 20.5734 5.10375C21.0522 4.97318 21.0376 4.92966 20.5154 3.0437C20.0511 1.38987 19.9786 1.33184 18.9631 2.12974Z" fill="#161925"/>
<path d="M30.7721 1.79651C30.598 2.02863 30.1483 3.71148 30.1483 4.19022C30.1338 4.69798 30.569 5.06066 31.2799 5.17672C32.1793 5.30729 32.4985 5.04616 32.9917 3.79853C33.4705 2.5654 33.427 2.18821 32.7161 1.85454C32.1068 1.5644 31.0042 1.53538 30.7721 1.79651ZM32.2083 2.30427C32.2083 2.59442 31.57 4.32079 31.3959 4.50939C31.2218 4.68347 31.1928 4.68347 31.1928 4.46586C31.1928 3.97261 31.8312 2.18821 32.0197 2.18821C32.1213 2.18821 32.2083 2.24624 32.2083 2.30427Z" fill="#161925"/>
<path d="M22.1541 14.0551C21.5158 14.3742 21.0515 15.1721 21.1966 15.7379C21.2546 15.97 21.4868 16.3327 21.7189 16.5648C22.5893 17.4498 24.3302 16.942 24.5623 15.7524C24.6784 15.0851 24.2867 14.3162 23.6774 14.0261C23.0681 13.7359 22.7779 13.7359 22.1541 14.0551Z" fill="#161925"/>
<path d="M24.5333 18.6101C24.069 19.437 23.5468 20.351 23.3582 20.6556L23.01 21.1924L21.8639 20.322C21.2401 19.8432 20.6888 19.4515 20.6453 19.4515C20.5873 19.4515 20.5728 26.328 20.5873 34.7132L20.6308 49.9895L23.068 50.033L25.4907 50.062V33.5962C25.4907 24.5436 25.4617 17.1303 25.4327 17.1303C25.4037 17.1303 24.9975 17.7977 24.5333 18.6101Z" fill="#161925"/>
<path d="M4.10674 19.6547C3.51194 21.0039 3.01869 22.5127 2.62699 24.1665C2.17726 26.1395 2.00318 29.8389 2.26431 31.8409C3.07672 37.8904 6.06523 43.3452 10.7221 47.2332C11.9117 48.2342 12.2599 48.4518 13.1738 48.7274C14.3924 49.0756 16.0608 49.4238 17.2649 49.5689L18.0918 49.6704V39.3557V29.041L14.581 28.9974C12.6371 28.9684 10.9687 28.9829 10.8817 29.012C10.7366 29.041 10.6931 29.6213 10.6931 31.2751C10.6931 32.9144 10.7366 33.5092 10.8817 33.5528C10.9687 33.5963 11.3894 33.6108 11.7811 33.5963C13.1303 33.5237 13.0142 33.0305 13.0142 38.6884C13.0142 44.5058 13.1593 44.2011 11.4039 42.1846C8.29936 38.6013 6.61651 34.4812 6.38439 29.9549C6.25383 27.3146 6.80511 24.0795 7.7771 21.7873C8.02372 21.1925 8.21232 20.6993 8.19781 20.6847C8.00921 20.5397 4.65802 18.8713 4.57098 18.8713C4.49844 18.8713 4.29534 19.2195 4.10674 19.6547Z" fill="#161925"/>
<path d="M32.2222 19.2921C31.4968 19.5968 31.2067 20.6558 31.6564 21.2941C31.787 21.4827 32.1351 21.7004 32.4398 21.7874C32.8895 21.918 33.0636 21.9035 33.4408 21.7149C33.9921 21.4247 34.3838 20.7429 34.2532 20.2641C34.0646 19.4952 32.9766 18.973 32.2222 19.2921Z" fill="#161925"/>
<path d="M13.667 24.2535C13.2173 24.5146 13.0142 24.8338 13.0142 25.3125C13.0287 26.0959 13.696 26.6182 14.5084 26.4586C14.9872 26.3715 15.4804 25.7767 15.4804 25.3125C15.4804 24.5436 14.3343 23.8763 13.667 24.2535Z" fill="#161925"/>
<path d="M42.3776 24.2972C41.4056 24.7179 41.5217 26.1106 42.5517 26.4007C43.3641 26.6329 44.0459 26.1251 44.0605 25.2837C44.0605 24.8485 43.6543 24.2391 43.3496 24.2391C43.2771 24.2391 43.132 24.2101 43.0159 24.1666C42.9144 24.1376 42.6242 24.1956 42.3776 24.2972Z" fill="#161925"/>
<path d="M27.957 36.9329C27.957 48.5243 27.9715 49.6414 28.1891 49.7284C28.4503 49.83 30.1912 49.5833 31.845 49.2352L32.8895 49.0031V43.6498V38.3111H35.3558H37.822V35.99V33.6688L35.3993 33.6398L32.9621 33.5963V31.2751V28.9539L35.3993 28.9104L37.822 28.8814V26.5602V24.239H32.8895H27.957V36.9329Z" fill="#161925"/>
<path d="M37.9668 31.2753V33.5094L39.0984 33.5529L40.2154 33.5964L40.259 39.5009C40.2735 42.9972 40.346 45.4199 40.4185 45.4199C40.7087 45.4199 42.7397 43.6645 44.0309 42.3154L45.3655 40.9081V37.2233V33.5239H47.1644H48.9489L49.1084 32.5374C49.21 31.9861 49.326 30.9706 49.3696 30.2888L49.4711 29.0266H43.7117H37.9668V31.2753Z" fill="#161925"/>
<path d="M25.129 58.2878L25.1725 59.7095H25.8253C26.3331 59.7095 26.4782 59.6514 26.5217 59.4483C26.5507 59.2743 26.4782 59.2017 26.2751 59.2017C26.0429 59.2017 25.9704 59.1147 25.9704 58.839C25.9704 58.6069 26.0574 58.4763 26.188 58.4763C26.3041 58.4763 26.4056 58.3748 26.4056 58.2587C26.4056 58.1427 26.3041 58.0411 26.188 58.0411C26.0719 58.0411 25.9704 57.9106 25.9704 57.751C25.9704 57.5914 26.0574 57.4608 26.1735 57.4608C26.3911 57.4608 26.5797 57.1127 26.4491 56.9676C26.3911 56.9241 26.0719 56.8805 25.7238 56.8805H25.0854L25.129 58.2878Z" fill="#161925"/>
<path d="M30.2648 57.2574C29.8151 57.6926 30.0327 58.2149 30.8886 58.7807C31.1353 58.9258 31.2078 59.0853 31.1498 59.2449C31.0192 59.5786 30.7581 59.5496 30.7581 59.2014C30.7581 58.9838 30.6565 58.9112 30.3954 58.9112C30.1198 58.9112 30.0327 58.9838 30.0327 59.2159C30.0327 59.6221 30.4244 59.9123 30.9467 59.9268C31.6285 59.9268 31.9187 59.6801 31.9187 59.1289C31.9187 58.7081 31.8316 58.5631 31.4109 58.3019C30.9467 57.9973 30.7146 57.4605 31.0482 57.4605C31.1353 57.4605 31.1933 57.5621 31.1933 57.6781C31.1933 57.8087 31.3239 57.8957 31.556 57.8957C31.9477 57.8957 32.0637 57.5185 31.7446 57.1994C31.498 56.9528 30.526 56.9818 30.2648 57.2574Z" fill="#161925"/>
<path d="M16.2799 57.577C16.0478 57.606 15.9753 57.7076 16.0188 57.8672C16.0623 57.9977 16.1639 58.5635 16.2509 59.1293C16.338 59.6806 16.4685 60.2029 16.5266 60.2609C16.7152 60.4495 17.7017 60.2174 17.7017 59.9853C17.7017 59.8692 17.6146 59.7822 17.4986 59.7822C17.2084 59.7822 17.1504 59.6806 16.9908 58.6216C16.8167 57.5915 16.7587 57.49 16.2799 57.577Z" fill="#161925"/>
<path d="M35.603 57.6209C35.545 57.7225 35.6175 57.882 35.7626 57.9836C35.9947 58.1577 36.0092 58.2882 35.8787 59.2022C35.8061 59.768 35.7771 60.2612 35.8207 60.2903C35.8497 60.3338 36.0238 60.3628 36.1978 60.3628C36.488 60.3628 36.546 60.2467 36.7056 59.2892C36.8652 58.3753 36.9377 58.2012 37.1843 58.1577C37.7211 58.0851 37.6196 57.766 37.0393 57.6789C36.7346 57.6209 36.3139 57.5484 36.0963 57.5194C35.8787 57.4758 35.6756 57.5194 35.603 57.6209Z" fill="#161925"/>
<path d="M11.0428 58.433C10.7237 58.491 10.7092 58.549 10.7962 59.2454C11.0428 61.2619 11.0283 61.2329 11.42 61.2329C11.6521 61.2329 11.8117 61.1313 11.8552 60.9427C11.9423 60.5946 12.1309 60.5655 12.2905 60.8702C12.421 61.0878 13.0594 61.0153 13.0594 60.7977C13.0594 60.7251 12.8272 60.1448 12.5371 59.5065C11.9713 58.2734 11.9568 58.2589 11.0428 58.433ZM11.8988 59.9562C11.8988 60.1013 11.8407 60.2174 11.7537 60.2174C11.6812 60.2174 11.6086 59.9998 11.6086 59.7386C11.6086 59.3905 11.6521 59.3324 11.7537 59.492C11.8262 59.6081 11.8988 59.8257 11.8988 59.9562Z" fill="#161925"/>
<path d="M40.6949 59.405C40.4192 59.9998 40.1871 60.6091 40.1581 60.7541C40.1001 61.1168 40.7239 61.1894 40.985 60.8412C41.1736 60.5946 41.1881 60.6091 41.3332 60.9717C41.5073 61.436 42.015 61.523 42.1311 61.1168C42.1601 60.9863 42.2326 60.3624 42.2907 59.7531L42.3922 58.6361L41.9715 58.549C41.7539 58.491 41.4783 58.4185 41.3767 58.3894C41.2606 58.3604 40.9995 58.7376 40.6949 59.405ZM41.5508 59.8402C41.4637 60.2029 41.2026 60.3769 41.2026 60.0578C41.2026 59.8402 41.5073 59.3034 41.5798 59.3904C41.6233 59.434 41.6088 59.6226 41.5508 59.8402Z" fill="#161925"/>
<path d="M5.9792 59.6514C5.70356 59.7384 5.51497 59.869 5.55849 59.9706C5.58751 60.0721 5.80512 60.6524 6.03723 61.2617C6.47245 62.4658 6.5595 62.5238 7.38642 62.2337C7.9522 62.0306 8.01023 61.5954 7.45895 61.7114C7.02373 61.784 6.83514 61.4793 7.08176 61.0731C7.34289 60.6669 7.29937 60.4783 6.9657 60.5799C6.57401 60.7104 6.38541 60.2462 6.71908 59.9996C6.86415 59.898 6.9657 59.7529 6.9657 59.6514C6.9657 59.4628 6.64654 59.4628 5.9792 59.6514Z" fill="#161925"/>
<path d="M45.8458 59.7093C45.8458 59.8109 45.9474 59.9705 46.0779 60.043C46.281 60.1591 46.2665 60.2751 45.9329 61.102C45.5122 62.1176 45.5412 62.4367 46.0199 62.3642C46.281 62.3352 46.4261 62.103 46.7163 61.3342C47.0064 60.5217 47.1225 60.3622 47.3981 60.3622C48.0364 60.3622 47.7608 59.9415 46.9774 59.7093C46.0489 59.4337 45.8458 59.4337 45.8458 59.7093Z" fill="#161925"/>
<path d="M0.626398 61.3343L0.0170898 61.5374L0.66992 62.843C1.25021 64.0181 1.35177 64.1342 1.64191 64.0471C2.10615 63.9021 2.10615 63.8876 1.84501 63.3363C1.71445 63.0461 1.59839 62.7415 1.59839 62.6544C1.59839 62.3933 1.99009 62.7995 2.17868 63.2638C2.36728 63.7135 2.54137 63.786 2.87504 63.5684C3.03462 63.4814 3.02011 63.3508 2.81701 62.9301C2.67193 62.6254 2.46883 62.3933 2.35277 62.3933C2.22221 62.3933 2.19319 62.2918 2.25122 62.1032C2.38179 61.6825 1.96107 61.0876 1.55487 61.1022C1.38078 61.1022 0.960067 61.2037 0.626398 61.3343ZM1.45332 61.726C1.45332 61.755 1.49684 61.8856 1.54036 62.0161C1.67093 62.3498 1.35177 62.3063 1.16317 61.9581C1.0326 61.726 1.04711 61.6679 1.23571 61.6679C1.35177 61.6679 1.45332 61.697 1.45332 61.726Z" fill="#161925"/>
<path d="M50.648 62.3352C50.3144 63.0316 50.0532 63.6119 50.0532 63.6264C50.0532 63.6554 50.3289 63.7715 50.648 63.902C51.0978 64.0906 51.3009 64.1051 51.4169 63.9891C51.533 63.873 51.504 63.7715 51.2863 63.6119C51.0542 63.4378 51.0397 63.3507 51.1703 63.1476C51.2573 63.0171 51.4604 62.9155 51.6345 62.93C51.9682 62.9736 52.0407 62.6979 51.7796 62.4368C51.533 62.1902 51.7361 61.813 52.0988 61.8565C52.534 61.9 52.621 61.5518 52.2003 61.3923C51.1993 61.0296 51.2863 60.9715 50.648 62.3352Z" fill="#161925"/>
</svg>
