<svg width="78" height="77" viewBox="0 0 78 77" fill="none" xmlns="http://www.w3.org/2000/svg">
<path d="M0.983887 38.5V77H39.4839H77.9839V38.5V0H39.4839H0.983887V38.5ZM34.7612 28.1307C35.0692 28.3702 35.035 28.7809 34.6586 29.8418C33.8372 32.1689 34.1794 35.2489 35.2403 35.2489C35.4457 35.2489 35.343 34.9067 35.0692 34.496C34.3848 33.5378 34.3848 31.9978 35.035 30.1156C35.3088 29.3284 35.5483 28.3018 35.5483 27.8569C35.5483 26.8644 35.8906 26.8302 36.9514 27.6858L37.7386 28.336L37.1568 30.184C36.4381 32.4769 36.4039 33.88 37.0883 34.7698C37.807 35.728 37.7043 35.9676 36.7803 35.5911C36.3354 35.42 35.651 35.3858 35.3088 35.4542C34.3163 35.728 32.8448 34.2907 32.7421 33.0244C32.7079 32.4427 32.7079 30.8684 32.7421 29.4996C32.8106 27.0356 32.8106 27.0013 33.5977 27.412C34.0083 27.6173 34.5217 27.9596 34.7612 28.1307ZM41.0581 29.568C42.119 31.8267 42.2901 33.0244 41.6741 34.3591C41.1608 35.4884 39.6208 36.1387 38.6626 35.6253C36.7461 34.5987 36.4723 32.648 37.807 29.7733C39.347 26.4196 39.5866 26.4196 41.0581 29.568ZM43.4194 27.8569C43.4194 28.3018 43.659 29.3284 43.9328 30.1156C44.9937 33.0929 44.5146 34.7356 42.2901 35.5569C41.2634 35.9676 41.1608 35.728 41.8794 34.7698C42.5639 33.88 42.5297 32.1347 41.811 30.0471L41.195 28.336L42.0163 27.6858C43.0772 26.8302 43.4194 26.8644 43.4194 27.8569ZM46.1914 30.6289C46.2599 33.9142 46.2257 34.0169 45.3359 34.804C44.3092 35.6938 43.4194 35.8991 44.0697 35.112C44.9937 34.0169 45.0963 32.5111 44.4461 30.4236L43.8301 28.3702L44.891 27.72C45.4728 27.3436 45.9861 27.104 46.0546 27.1382C46.0888 27.2067 46.1572 28.7809 46.1914 30.6289ZM32.0234 27.9938C32.3314 28.1649 32.4341 29.1573 32.3657 31.0396C32.2972 33.264 32.3999 33.9484 32.9132 34.4618C33.7688 35.4542 33.6319 35.6938 32.5026 35.0778C31.339 34.496 31.2021 34.188 30.7914 30.9027C30.6203 29.568 30.3808 28.3018 30.2439 28.0964C30.0043 27.6516 31.4074 27.5831 32.0234 27.9938ZM48.5186 28.8151C48.3474 29.4311 48.2106 30.492 48.2106 31.1764C48.2106 33.0244 47.5603 34.5302 46.4994 35.0778L45.5754 35.5569L46.2257 34.2907C46.7732 33.2298 46.8417 32.6138 46.6363 30.6631C46.3968 28.1649 46.6021 27.72 48.1079 27.72C48.7923 27.72 48.8266 27.8227 48.5186 28.8151ZM61.215 40.4849C61.215 41.1351 61.1808 41.1351 60.599 40.6218C59.7777 39.8689 58.8537 39.8689 58.5799 40.6218C58.443 40.9982 58.7852 41.5458 59.7777 42.4013C62.1048 44.3862 61.523 46.4053 58.7168 46.1316C57.9981 46.0631 57.5874 45.8236 57.519 45.4129C57.3821 44.8311 57.4506 44.7969 58.2377 45.3102C58.6826 45.6182 59.3328 45.7893 59.6408 45.6524C60.5306 45.3102 60.2568 44.2493 59.0248 43.2911C57.7243 42.2987 57.3479 41.6142 57.6217 40.6902C58.0666 39.3556 61.215 39.1844 61.215 40.4849ZM21.2092 40.04C22.6123 40.7929 21.6199 43.4622 19.9088 43.4622C19.2243 43.4622 19.1217 43.6333 19.1217 44.8311C19.1217 45.892 18.9848 46.2 18.5399 46.2C17.9923 46.2 17.9239 45.8236 17.9239 42.9489V39.6978H19.2243C19.943 39.6978 20.8328 39.8689 21.2092 40.04ZM26.8901 40.4507C28.0194 41.5116 28.0194 44.1809 26.8217 45.3444C24.6999 47.5004 21.4146 45.3787 22.0648 42.2987C22.5781 39.8347 25.179 38.8422 26.8901 40.4507ZM29.7306 42.7778C29.7306 46.0973 29.9017 46.3369 31.4074 45.3102C32.1603 44.7627 32.1946 44.7969 32.0577 45.3787C31.9892 45.892 31.5786 46.0631 30.2439 46.1316L28.4986 46.2342L28.5328 42.9489C28.5328 40.0742 28.6012 39.6978 29.1488 39.6978C29.6621 39.6978 29.7306 40.0742 29.7306 42.7778ZM33.6661 42.9489C33.6661 45.9604 33.6319 46.2 32.9817 46.2C32.3314 46.2 32.2972 45.9604 32.2972 42.9489C32.2972 39.9373 32.3314 39.6978 32.9817 39.6978C33.6319 39.6978 33.6661 39.9373 33.6661 42.9489ZM37.6359 42.4698C37.499 45.6524 37.807 46.2342 39.0732 45.4129C39.9972 44.8311 40.4079 44.9338 40.0999 45.7209C39.9972 46.0289 39.3812 46.2 38.2519 46.2H36.575V42.9489C36.575 40.0742 36.6434 39.6978 37.191 39.6978C37.7043 39.6978 37.7728 40.0058 37.6359 42.4698ZM45.0279 40.4507C46.1572 41.5116 46.1572 44.1809 44.9594 45.3444C44.0354 46.3027 42.2559 46.4738 41.2977 45.7209C39.8603 44.6258 39.7577 41.9564 41.1266 40.4507C42.0506 39.4582 43.9328 39.424 45.0279 40.4507ZM51.2906 40.2111C51.2906 40.6218 51.1537 40.656 50.6403 40.3822C49.2714 39.6636 49.1688 39.9031 49.3057 43.12C49.4083 46.0289 49.3741 46.2 48.7239 46.2C48.0737 46.2 48.0394 45.9947 48.1421 43.12C48.2448 40.5533 48.1763 40.04 47.7314 40.04C47.4577 40.04 47.1154 40.1769 47.0128 40.3822C46.7048 40.8956 46.1572 40.7929 46.1572 40.2111C46.1572 39.8004 46.6706 39.6978 48.7239 39.6978C50.8114 39.6978 51.2906 39.8004 51.2906 40.2111ZM53.0701 42.0591C52.899 44.7627 53.3439 45.8578 54.5074 45.8578C55.8421 45.8578 56.1501 45.1049 56.0132 42.2644C55.9448 40.1769 56.0132 39.6978 56.4239 39.6978C56.8688 39.6978 56.903 40.1769 56.7661 42.6067C56.5608 45.8578 56.3554 46.2 54.3021 46.2C52.4883 46.2 51.975 45.3102 51.975 42.196C51.975 40.04 52.0434 39.6978 52.591 39.6978C53.1386 39.6978 53.1728 39.9716 53.0701 42.0591ZM54.6786 48.7324L54.6443 49.7933L54.4048 48.8009C54.0968 47.3978 53.3439 47.2267 53.3439 48.5613C53.3439 49.1431 53.1728 49.6222 52.9674 49.6222C52.7279 49.6222 52.6594 49.28 52.7963 48.664C52.9332 48.1507 53.0701 47.5004 53.1043 47.1924C53.1386 46.6791 53.2412 46.6791 53.9257 47.124C54.5074 47.5004 54.7128 47.9453 54.6786 48.7324ZM60.1883 47.432C60.1883 47.7058 60.4279 47.9111 60.7017 47.9111C60.9754 47.9111 61.215 48.048 61.215 48.2533C61.215 48.4244 60.9754 48.4929 60.7017 48.3902C60.3594 48.2533 60.1883 48.3902 60.1883 48.9036C60.1883 49.3142 60.0514 49.6222 59.8461 49.6222C59.675 49.6222 59.5039 49.3142 59.5039 48.9378C59.5039 48.4587 59.3328 48.3218 58.9221 48.4587C58.4088 48.6298 58.4088 48.5613 58.9906 48.0822C59.4697 47.6716 59.5381 47.432 59.2643 47.3293C58.5457 47.0556 58.751 46.5764 59.5039 46.7818C59.8803 46.8844 60.1883 47.1924 60.1883 47.432ZM41.0239 47.5689C41.0239 47.9453 41.2634 48.2533 41.5372 48.2533C41.8452 48.2533 42.0506 48.5613 42.0163 49.0062C41.9821 49.588 41.9479 49.6564 41.811 49.1773C41.6057 48.4244 41.0239 48.4244 41.0239 49.1773C41.0239 49.6907 40.9554 49.6564 40.5106 49.0747C40.0657 48.4929 40.0314 48.4929 39.9972 49.0062C39.9972 49.7591 39.3128 49.8276 39.3128 49.1089C39.3128 48.8351 39.6208 48.4587 39.9972 48.2533C40.3737 48.048 40.579 47.7058 40.4763 47.3978C40.3394 47.124 40.4421 46.8844 40.6474 46.8844C40.8528 46.8844 41.0239 47.1924 41.0239 47.5689ZM44.6857 47.4662C44.8226 47.7742 44.7199 48.1164 44.5146 48.1849C44.275 48.2533 44.1039 48.5613 44.1039 48.8351C44.1039 49.28 44.2066 49.28 44.6172 48.9378C44.9252 48.6982 45.2674 48.5956 45.3701 48.7324C45.7123 49.0404 44.7541 49.6564 44.1039 49.5538C43.8301 49.4853 43.3852 49.588 43.1799 49.7249C42.9061 49.896 42.735 49.8618 42.735 49.6564C42.735 49.4511 42.9061 49.28 43.1114 49.28C43.3168 49.28 43.4537 48.9378 43.4194 48.4929C43.3852 48.0822 43.351 47.5347 43.3852 47.2951C43.4537 46.6791 44.4461 46.7818 44.6857 47.4662ZM49.2372 47.1582C49.2372 47.3293 48.9292 47.74 48.5528 48.0822C48.1763 48.4244 47.8683 48.9036 47.8683 49.1773C47.8683 49.5538 48.0052 49.5538 48.5528 49.28C48.9292 49.0747 49.2372 49.0404 49.2372 49.2116C49.2372 49.6222 48.2106 49.896 47.6288 49.7249C46.9786 49.4853 47.0812 49.0062 47.971 47.9111C48.7239 46.9187 49.2372 46.6449 49.2372 47.1582ZM51.9066 48.4929C52.2146 49.4169 52.1803 49.588 51.7012 49.5538C51.3932 49.5538 50.9141 49.588 50.6403 49.6564C49.8874 49.8618 49.7848 48.7324 50.5034 47.7742C51.1879 46.8502 51.3932 46.9187 51.9066 48.4929ZM57.1083 47.3978C57.1083 47.6716 57.3479 47.9111 57.6217 47.9111C57.8954 47.9111 58.135 48.0822 58.135 48.2876C58.135 48.4929 57.8954 48.5956 57.6217 48.4587C57.3479 48.356 57.1083 48.4244 57.1083 48.5956C57.1083 48.8009 57.2794 48.9378 57.4506 48.9378C57.6559 48.9378 57.7928 49.0747 57.7928 49.28C57.7928 49.4511 57.4848 49.6222 57.1083 49.6222C56.6634 49.6222 56.4239 49.3827 56.4239 48.9378C56.4239 48.4929 56.2528 48.3218 55.9106 48.4587C55.6368 48.5956 55.3972 48.4929 55.3972 48.2876C55.3972 48.0822 55.6368 47.9111 55.9106 47.9111C56.1843 47.9111 56.4239 47.6716 56.4239 47.3978C56.4239 47.124 56.595 46.8844 56.7661 46.8844C56.9714 46.8844 57.1083 47.124 57.1083 47.3978ZM38.5599 48.3902C38.731 49.8618 37.5674 50.4778 36.9172 49.28C36.6434 48.8009 36.6434 48.3902 36.9172 47.8769C37.4648 46.8844 38.423 47.1924 38.5599 48.3902Z" fill="#161925"/>
<path d="M19.1221 41.5802C19.1221 43.2913 19.8065 43.702 20.5252 42.4015C20.9701 41.5117 20.4567 40.0402 19.6354 40.0402C19.259 40.0402 19.1221 40.4166 19.1221 41.5802Z" fill="#161925"/>
<path d="M23.8102 40.6558C23.0573 41.4771 23.0573 44.078 23.776 45.1047C24.9053 46.7474 26.6507 45.4469 26.6507 42.9487C26.6507 40.5189 25.0765 39.2527 23.8102 40.6558Z" fill="#161925"/>
<path d="M41.948 40.6561C40.716 42.025 41.5373 45.8579 43.0431 45.8579C43.9671 45.8579 44.5146 45.0366 44.6858 43.3597C44.9253 40.793 43.2826 39.1504 41.948 40.6561Z" fill="#161925"/>
<path d="M43.7617 47.5689C43.7617 47.74 43.9328 47.9111 44.1039 47.9111C44.3093 47.9111 44.4462 47.74 44.4462 47.5689C44.4462 47.3636 44.3093 47.2267 44.1039 47.2267C43.9328 47.2267 43.7617 47.3636 43.7617 47.5689Z" fill="#161925"/>
<path d="M50.606 48.5953C50.606 48.7664 50.7771 48.9375 50.9482 48.9375C51.1535 48.9375 51.2904 48.7664 51.2904 48.5953C51.2904 48.3899 51.1535 48.2531 50.9482 48.2531C50.7771 48.2531 50.606 48.3899 50.606 48.5953Z" fill="#161925"/>
<path d="M37.4312 47.9112C37.3285 48.0823 37.4654 48.2534 37.7734 48.2534C38.0814 48.2534 38.2183 48.0823 38.1156 47.9112C38.0129 47.7059 37.8418 47.569 37.7734 47.569C37.7049 47.569 37.5338 47.7059 37.4312 47.9112Z" fill="#161925"/>
<path d="M37.2598 48.904C37.2598 49.4858 37.8758 49.6226 38.0811 49.1093C38.1838 48.8013 38.0811 48.596 37.7731 48.596C37.4993 48.596 37.2598 48.7329 37.2598 48.904Z" fill="#161925"/>
</svg>
