<svg width="77" height="77" viewBox="0 0 77 77" fill="none" xmlns="http://www.w3.org/2000/svg">
<path d="M0.000976562 38.5V77H38.501H77.001V38.5V0H38.501H0.000976562V38.5ZM29.7401 26.8987C33.881 28.9862 34.8392 34.3249 31.725 37.884C30.3561 39.424 28.9188 40.04 26.5916 40.04C22.8614 40.04 19.9868 37.4733 19.6103 33.7773C19.4392 32.1347 19.5419 31.5871 20.329 29.9787C22.177 26.2142 25.9072 25.0164 29.7401 26.8987ZM40.7254 27.0013C42.7103 28.4387 42.8814 31.108 41.1019 32.8533L40.1779 33.8116L41.9916 36.3098C42.9841 37.7129 44.0792 39.0476 44.3872 39.2529C44.8663 39.6293 44.7294 39.6978 43.3948 39.6978C41.8548 39.6978 41.8547 39.6978 40.0067 37.0285C38.7747 35.3173 37.885 34.3591 37.3716 34.2907C36.653 34.188 36.6188 34.2907 36.6188 36.9258V39.6978H35.421H34.2232V33.0587V26.3853L35.6948 26.2485C37.885 26.0089 39.7672 26.3169 40.7254 27.0013ZM51.1974 26.6591C53.6272 27.7542 54.1063 30.8685 52.1556 32.8876L51.2659 33.8116L52.8059 36.0018C54.6881 38.6369 55.6805 39.5951 56.0912 39.1502C56.2623 38.9791 57.6654 35.9676 59.2396 32.4427C61.2588 27.9253 62.2854 26.0089 62.6619 26.0089C63.0383 26.0089 63.8254 27.412 65.1943 30.5262C66.2894 33.0244 67.6925 36.1044 68.3085 37.3707L69.4379 39.6978H67.8979C66.7001 39.6978 66.3921 39.5951 66.3921 39.0818C66.3921 38.7738 66.0841 37.8498 65.7076 37.0285L65.0574 35.5911H62.2854H59.5134L58.8632 37.1653C58.4867 38.0209 58.1787 38.9449 58.1787 39.2187C58.1787 39.5951 57.597 39.6978 55.5436 39.6978L52.8743 39.6636L50.9921 36.96C49.5547 34.8724 48.9045 34.2222 48.3228 34.2222C47.5356 34.2222 47.5356 34.2907 47.6383 36.96L47.741 39.6978H46.5432H45.3454V33.0244V26.3853L46.7143 26.2485C49.4521 26.0089 49.8285 26.0431 51.1974 26.6591ZM9.99386 29.26L9.82275 32.1689H13.3476H16.8725L16.7014 29.26L16.4961 26.3511H17.7623H18.9943V33.0244V39.6978H17.7623H16.5303L16.7014 36.6178L16.8725 33.5378H13.3476H9.85698L9.99386 36.6178L10.1308 39.6978H8.93298H7.70098V33.0244V26.3511H8.93298H10.1992L9.99386 29.26ZM16.0512 43.3938C16.2565 43.7702 16.2565 44.2151 16.0854 44.5231C15.9143 44.7627 15.8459 45.276 15.9485 45.584C16.1881 46.3369 15.5379 46.4053 15.2641 45.6867C15.1614 45.4129 14.8534 45.1733 14.5454 45.1733C14.2716 45.1733 14.0321 45.4129 14.0321 45.6867C14.0321 45.9604 13.8952 46.2 13.6899 46.2C13.5188 46.2 13.3476 45.4129 13.3476 44.4889V42.7778H14.5454C15.3325 42.7778 15.8116 42.9831 16.0512 43.3938ZM21.2188 43.12C21.2188 43.2911 20.7739 43.4622 20.1921 43.4622C19.6445 43.4622 19.1654 43.5991 19.1654 43.8044C19.1654 43.9756 19.5419 44.1467 20.021 44.1467C20.5001 44.1467 20.8765 44.2836 20.8765 44.4889C20.8765 44.66 20.5001 44.8311 20.021 44.8311C19.5419 44.8311 19.1654 44.968 19.1654 45.1733C19.1654 45.3444 19.6445 45.5156 20.1921 45.5156C20.7739 45.5156 21.2188 45.6524 21.2188 45.8578C21.2188 46.0289 20.6028 46.2 19.8499 46.2H18.481V44.4889V42.7778H19.8499C20.6028 42.7778 21.2188 42.9147 21.2188 43.12ZM25.9414 44.352C26.3863 45.2418 26.6259 46.0289 26.489 46.1658C26.3521 46.2684 26.181 46.1658 26.1125 45.9262C26.0099 45.7209 25.5308 45.5156 24.9832 45.5156C24.4356 45.5156 23.9565 45.7209 23.8539 45.9262C23.7854 46.1658 23.5801 46.2684 23.4774 46.1316C23.1694 45.8578 24.4699 42.7778 24.8805 42.7778C25.0516 42.7778 25.5308 43.4964 25.9414 44.352ZM29.4321 44.1467C29.4321 45.3787 29.5348 45.5156 30.2534 45.5156C30.7325 45.5156 31.2116 45.6524 31.3143 45.8578C31.4512 46.0631 30.9721 46.2 30.1508 46.2H28.7476V44.4889C28.7476 43.5307 28.9188 42.7778 29.0899 42.7778C29.2952 42.7778 29.4321 43.3938 29.4321 44.1467ZM39.1854 43.12C39.0827 43.2911 38.6036 43.4622 38.1245 43.4622C37.6796 43.4622 37.3032 43.5991 37.3032 43.8044C37.3032 43.9756 37.6796 44.1467 38.1587 44.1467C38.6379 44.1467 39.0143 44.2836 39.0143 44.4889C39.0143 44.66 38.6379 44.8311 38.1587 44.8311C37.6796 44.8311 37.3032 45.0364 37.3032 45.3102C37.3032 45.6182 37.577 45.7209 38.1245 45.6182C38.5694 45.5156 39.0485 45.6182 39.1512 45.8236C39.3223 46.0631 38.9116 46.2 38.0219 46.2H36.6188V44.4889V42.7778H38.0219C38.8432 42.7778 39.3223 42.9147 39.1854 43.12ZM43.8054 43.12C43.8054 43.2911 43.429 43.4622 42.9499 43.4622C41.7863 43.4622 41.889 43.9071 43.1552 44.3862C44.661 44.968 44.3872 45.9947 42.6761 46.1316C41.889 46.2 41.4099 46.0973 41.4099 45.8578C41.4099 45.584 41.7179 45.5156 42.2312 45.6524C43.4974 45.9604 43.6685 45.2076 42.4707 44.7969C41.4783 44.4547 41.0676 43.5649 41.6494 43.0173C41.9916 42.6409 43.8054 42.7436 43.8054 43.12ZM48.7676 43.12C48.665 43.2911 48.3228 43.4622 48.049 43.4622C47.7067 43.4622 47.5699 43.8729 47.5699 44.8311C47.5699 45.584 47.433 46.2 47.2276 46.2C47.0565 46.2 46.8854 45.584 46.8854 44.8311C46.8854 43.8387 46.7485 43.4622 46.3721 43.4622C46.0983 43.4622 45.8587 43.2911 45.8587 43.12C45.8587 42.9147 46.5774 42.7778 47.433 42.7778C48.357 42.7778 48.9045 42.9147 48.7676 43.12ZM53.0796 44.352C53.4903 45.2076 53.6614 46.0289 53.5245 46.1316C53.4219 46.2684 53.2165 46.1658 53.1481 45.9262C53.0454 45.7209 52.5663 45.5156 52.0187 45.5156C51.4712 45.5156 50.9921 45.7209 50.8894 45.9262C50.821 46.1658 50.6499 46.2684 50.513 46.1658C50.205 45.892 51.6081 42.7778 52.053 42.7778C52.2583 42.7778 52.7032 43.4964 53.0796 44.352ZM58.1787 43.12C58.1787 43.2911 57.9392 43.4622 57.6654 43.4622C57.289 43.4622 57.1521 43.8387 57.1521 44.8311C57.1521 45.584 57.0152 46.2 56.8099 46.2C56.6387 46.2 56.4676 45.584 56.4676 44.8311C56.4676 43.8387 56.3307 43.4622 55.9543 43.4622C55.6805 43.4622 55.441 43.2911 55.441 43.12C55.441 42.9147 56.057 42.7778 56.8099 42.7778C57.5627 42.7778 58.1787 42.9147 58.1787 43.12ZM62.9699 43.12C62.9699 43.2911 62.525 43.4622 61.9432 43.4622C61.3956 43.4622 60.9165 43.5991 60.9165 43.8044C60.9165 43.9756 61.293 44.1467 61.7721 44.1467C62.2512 44.1467 62.6276 44.2836 62.6276 44.4889C62.6276 44.66 62.2512 44.8311 61.7721 44.8311C61.293 44.8311 60.9165 44.968 60.9165 45.1733C60.9165 45.3444 61.3956 45.5156 61.9432 45.5156C62.525 45.5156 62.9699 45.6524 62.9699 45.8578C62.9699 46.0289 62.3539 46.2 61.601 46.2H60.2321V44.4889V42.7778H61.601C62.3539 42.7778 62.9699 42.9147 62.9699 43.12Z" fill="#161925"/>
<path d="M24.3333 27.7887C22.6564 28.6785 22.0746 29.9447 22.1088 32.614C22.1088 35.3518 22.6906 36.7892 24.1622 37.9527C25.2573 38.8083 27.6186 38.9109 29.0559 38.158C31.7595 36.7892 31.8279 30.6634 29.1586 28.2678C28.2346 27.4465 25.4626 27.1727 24.3333 27.7887Z" fill="#161925"/>
<path d="M36.6191 30.321V33.2642L37.7485 33.0588C39.1858 32.785 40.0414 31.7242 40.0414 30.1499C40.0414 28.3704 39.2543 27.3779 37.7827 27.3779H36.6191V30.321Z" fill="#161925"/>
<path d="M47.5693 30.2864C47.5693 33.1611 47.5693 33.1953 48.4249 33.1953C49.8622 33.1953 50.9916 31.7922 50.9916 29.9784C50.9916 28.1304 50.3413 27.3775 48.7329 27.3775H47.5693V30.2864Z" fill="#161925"/>
<path d="M61.1212 31.8608C60.6421 32.9902 60.2314 33.9826 60.2314 34.0853C60.2314 34.1537 61.1554 34.2222 62.2848 34.2222C63.4141 34.2222 64.3381 34.1537 64.3381 34.0853C64.3381 33.6404 62.4901 29.7733 62.2848 29.7733C62.1479 29.7733 61.6346 30.6973 61.1212 31.8608Z" fill="#161925"/>
<path d="M14.0322 44.1123C14.0322 44.6599 14.1691 44.7625 14.7509 44.5572C15.7091 44.1807 15.7433 43.6674 14.8193 43.5305C14.2033 43.4279 14.0322 43.599 14.0322 44.1123Z" fill="#161925"/>
<path d="M24.5033 44.3182C24.4007 44.6262 24.5033 44.8315 24.8113 44.8315C25.3589 44.8315 25.4958 44.284 25.0167 44.0102C24.8456 43.9075 24.6402 44.0444 24.5033 44.3182Z" fill="#161925"/>
<path d="M51.8479 44.1465C51.5742 44.5914 51.8137 44.9678 52.327 44.7967C52.5324 44.6941 52.5666 44.4545 52.3955 44.1807C52.1902 43.8385 52.0533 43.8385 51.8479 44.1465Z" fill="#161925"/>
</svg>
