<svg width="22" height="22" viewBox="0 0 22 22" fill="none" xmlns="http://www.w3.org/2000/svg">
<path opacity="0.5" d="M1 11.2188C1 6.50475 1 4.14775 2.464 2.68275C3.93 1.21875 6.286 1.21875 11 1.21875C15.714 1.21875 18.071 1.21875 19.535 2.68275C21 4.14875 21 6.50475 21 11.2188C21 15.9328 21 18.2897 19.535 19.7537C18.072 21.2187 15.714 21.2188 11 21.2188C6.286 21.2188 3.929 21.2187 2.464 19.7537C1 18.2907 1 15.9328 1 11.2188Z" stroke="#4784C4" stroke-width="1.25"/>
<path d="M13.5 8.71875L8.5 13.7187M8.5 8.71875L13.5 13.7187" stroke="#4784C4" stroke-width="1.25" stroke-linecap="round"/>
</svg>
