<svg width="57" height="42" viewBox="0 0 57 42" fill="none" xmlns="http://www.w3.org/2000/svg">
<path d="M9.16834 9.37761C3.89812 14.6478 -0.0716597 18.8572 0.270563 18.7545C0.647007 18.6518 5.02745 15.4349 10.0239 11.6021C17.8266 5.54472 19.1612 4.65494 19.6403 5.03138C26.3137 9.8225 32.1315 13.3132 38.8732 16.5643C47.9079 20.9105 46.9155 19.9181 35.8617 13.5185C33.1923 11.9443 33.1239 11.8758 33.0212 10.4727C32.9528 9.58294 33.1581 8.45361 33.603 7.46116C34.0137 6.57138 34.3217 5.78427 34.3217 5.71583C34.3217 5.06561 29.7359 6.77672 28.5039 7.83761C28.059 8.24827 27.4088 7.73494 23.8839 4.38116C21.6252 2.22516 19.5377 0.342937 19.2297 0.171825C18.819 -0.101952 16.7315 1.8145 9.16834 9.37761Z" fill="#161925"/>
<path d="M28.1618 2.08846C28.4356 2.19113 28.9147 2.46491 29.1884 2.67024C29.6333 3.01246 29.6333 2.97824 29.2227 2.43068C28.9831 2.12268 28.504 1.84891 28.196 1.88313C27.7511 1.88313 27.7169 1.91735 28.1618 2.08846Z" fill="#161925"/>
<path d="M26.9641 2.56766C26.8272 2.77299 26.793 2.97833 26.8956 3.08099C26.9641 3.18366 27.1352 3.01255 27.2379 2.70455C27.4774 2.12277 27.2721 2.0201 26.9641 2.56766Z" fill="#161925"/>
<path d="M28.2645 3.73126C28.949 4.38148 28.949 4.4157 28.333 4.55259C27.9907 4.62104 27.4774 4.38148 27.2379 4.03926C26.9983 3.69704 26.793 3.59437 26.793 3.7997C26.793 4.48415 27.7854 4.99748 28.6752 4.79215C29.1543 4.65526 29.5307 4.4157 29.5307 4.21037C29.5307 4.00504 29.3939 3.97081 29.1885 4.07348C28.8805 4.24459 28.7094 3.86815 28.7779 3.21793C28.7779 3.11526 28.5041 3.01259 28.1619 3.01259C27.5459 3.01259 27.5459 3.08104 28.2645 3.73126Z" fill="#161925"/>
<path d="M17.5527 7.66669C17.5527 8.4538 17.6896 8.69336 18.2372 8.69336C18.7847 8.69336 18.9216 8.4538 18.9216 7.66669C18.9216 6.87958 18.7847 6.64003 18.2372 6.64003C17.6896 6.64003 17.5527 6.87958 17.5527 7.66669Z" fill="#161925"/>
<path d="M19.9482 7.66669C19.9482 8.4538 20.0851 8.69336 20.6327 8.69336C21.1802 8.69336 21.3171 8.4538 21.3171 7.66669C21.3171 6.87958 21.1802 6.64003 20.6327 6.64003C20.0851 6.64003 19.9482 6.87958 19.9482 7.66669Z" fill="#161925"/>
<path d="M17.5527 10.7468C17.5527 11.5339 17.6896 11.7734 18.2372 11.7734C18.7847 11.7734 18.9216 11.5339 18.9216 10.7468C18.9216 9.95966 18.7847 9.7201 18.2372 9.7201C17.6896 9.7201 17.5527 9.95966 17.5527 10.7468Z" fill="#161925"/>
<path d="M19.9482 10.7468C19.9482 11.5339 20.0851 11.7734 20.6327 11.7734C21.1802 11.7734 21.3171 11.5339 21.3171 10.7468C21.3171 9.95966 21.1802 9.7201 20.6327 9.7201C20.0851 9.7201 19.9482 9.95966 19.9482 10.7468Z" fill="#161925"/>
<path d="M17.9637 15.9485C17.3819 16.5302 17.3819 29.9111 17.9637 29.9111C18.2375 29.9111 18.2717 28.6449 18.1348 25.1542C18.0321 22.5534 18.1006 19.3707 18.2717 18.1045C18.6139 15.6062 18.5797 15.3325 17.9637 15.9485Z" fill="#161925"/>
<path d="M14.7808 17.2832C11.1874 19.5761 9.68164 20.945 9.68164 21.9032C9.68164 22.9641 10.1265 22.9641 10.7083 21.9032C10.9479 21.4241 11.3585 20.9792 11.6665 20.8423C12.0772 20.7054 12.1456 21.0819 12.043 23.1352C12.0088 24.5041 12.0088 26.3863 12.0772 27.3446L12.1456 29.0557L12.4536 27.105C12.6932 25.4623 12.9328 24.9832 14.0279 23.9566C15.431 22.6903 15.3968 21.9374 13.9936 22.8614C13.5145 23.1694 13.0354 23.409 12.9328 23.409C12.8301 23.409 12.7616 22.6561 12.7616 21.6979C12.7616 20.021 12.7959 19.9868 14.9861 18.2072C16.8683 16.7014 17.6212 15.8801 17.1079 15.8801C17.0394 15.8801 15.9785 16.5303 14.7808 17.2832Z" fill="#161925"/>
<path d="M6.05339 18.5153C6.60095 21.253 6.63517 22.1086 6.29295 23.9566C6.08761 25.0517 5.40317 27.0024 4.75295 28.2686C4.10273 29.569 3.62361 30.5957 3.69206 30.5957C4.03428 30.5957 6.36139 26.2837 7.11428 24.2988C7.93561 22.1428 8.20939 19.3366 7.7645 18.1388C7.66184 17.8308 7.18273 17.5913 6.70361 17.5913C5.98495 17.5913 5.88228 17.6939 6.05339 18.5153Z" fill="#161925"/>
<path d="M19.5028 19.1994C19.1263 19.5416 19.229 21.0132 19.6055 21.0132C19.8108 21.0132 19.9819 18.9599 19.7423 18.9599C19.7423 18.9599 19.6055 19.0625 19.5028 19.1994Z" fill="#161925"/>
<path d="M29.7703 20.4656C29.6334 20.842 29.5992 22.1767 29.7361 23.4087C29.9414 25.5647 29.9072 25.7016 29.2227 25.9069C28.4698 26.078 27.9223 27.0363 28.2987 27.4469C28.4356 27.5496 28.8463 27.4469 29.2569 27.2074C29.8387 26.8309 30.0098 26.8309 30.2494 27.2416C30.4205 27.4812 30.5574 27.8234 30.5574 27.9603C30.5574 28.1314 30.8654 28.7132 31.2761 29.2607C32.0289 30.3216 33.6374 30.6638 33.6374 29.7398C33.6374 29.4318 33.3294 29.2265 32.7818 29.2265C32.2001 29.2265 31.7894 28.9185 31.4129 28.1998C30.6258 26.694 30.7627 26.2492 32.0974 26.0096C33.9796 25.6332 33.9454 25.0514 32.0289 25.1883L30.3863 25.2909L30.2152 22.5532C30.1125 20.7394 29.9414 20.0549 29.7703 20.4656Z" fill="#161925"/>
<path d="M38.2911 20.4317C38.12 20.7739 38.0858 22.1086 38.2227 23.409C38.3938 25.5308 38.3596 25.7361 37.7436 25.9072C37.0249 26.0783 36.4773 27.0366 36.8538 27.413C36.9565 27.5499 37.2645 27.4472 37.4698 27.2419C38.1542 26.5574 38.5991 26.7628 39.044 27.9948C39.7627 29.9797 41.6791 30.9721 42.124 29.6032C42.2267 29.261 42.124 29.1926 41.7133 29.3294C41.0631 29.569 39.4547 28.0974 39.4547 27.3103C39.4547 27.0366 39.4547 26.7286 39.4205 26.5574C39.4205 26.4206 39.968 26.1468 40.6525 25.9757C41.3369 25.7703 41.8502 25.4623 41.8502 25.2912C41.816 25.0859 41.6107 25.0174 41.3711 25.0517C41.1658 25.1201 40.5156 25.257 39.8996 25.3597L38.8045 25.5308L38.7018 22.6903C38.6333 20.7054 38.4965 20.021 38.2911 20.4317Z" fill="#161925"/>
<path d="M44.2462 22.6905C44.2462 22.8616 44.4515 23.1696 44.7253 23.3749C45.9915 24.4358 45.3755 27.5158 43.904 27.5158C43.0142 27.5158 43.0142 26.4549 43.904 25.6336C44.6911 24.9149 44.7938 24.0936 44.1093 24.0936C42.9115 24.0936 42.0218 27.2078 42.8431 28.474C43.288 29.2269 44.3146 28.8163 45.1702 27.55C45.9915 26.318 46.1969 24.5043 45.6151 23.4434C45.2729 22.7589 44.2462 22.2114 44.2462 22.6905Z" fill="#161925"/>
<path d="M35.074 23.5117C34.0816 24.5384 34.1158 25.7704 35.1767 27.8921C35.7585 28.9873 35.998 29.877 35.8269 30.3219C35.69 30.8353 35.7242 30.9379 36.0322 30.7668C36.6482 30.3904 36.2718 27.7553 35.4162 26.5575L34.6976 25.565L35.5189 24.8464C36.4429 24.0593 36.5113 23.8197 36.1007 23.1353C35.8953 22.8273 35.6216 22.9299 35.074 23.5117Z" fill="#161925"/>
<path d="M54.3418 24.3329C53.4862 25.5991 53.2124 27.7551 53.6915 29.0556C53.9311 29.6716 55.8475 30.7667 56.1555 30.4245C56.2582 30.3218 55.9502 29.8427 55.4026 29.3636C54.1364 28.1658 53.76 27.1049 54.2049 25.8045C54.4102 25.2569 54.7182 24.7778 54.9235 24.7778C55.1289 24.7778 55.1631 25.0516 55.0262 25.3596C54.8893 25.7018 54.684 26.352 54.6155 26.8311C54.4444 27.6182 54.4786 27.6525 54.992 27.1391C55.3342 26.8311 55.7791 26.0098 56.0529 25.2569C56.8742 22.8271 55.7791 22.2453 54.3418 24.3329Z" fill="#161925"/>
<path d="M20.3246 25.5648C20.2904 27.0364 20.393 27.5497 20.7353 27.4128C21.1801 27.2759 21.1117 25.5306 20.6326 24.2986C20.4273 23.7853 20.3246 24.1275 20.3246 25.5648Z" fill="#161925"/>
<path d="M22.1726 24.4014C21.8988 24.8463 22.2411 27.1049 22.6517 27.8236C22.8913 28.2 23.1993 28.0289 24.0548 27.0365C25.4579 25.428 26.2108 25.4623 26.8953 27.0707C27.3059 28.1316 27.4086 28.2343 27.4428 27.584C27.4771 26.5574 26.6215 24.9147 25.9371 24.6409C25.2526 24.4014 24.2259 24.9147 23.9179 25.6334C23.6442 26.352 23.0282 26.2836 23.0282 25.5307C23.0282 24.6409 22.4806 23.9223 22.1726 24.4014Z" fill="#161925"/>
<path d="M47.1211 26.0441C47.2238 26.9339 47.4634 27.7894 47.6002 27.9263C47.7371 28.0632 48.3874 27.6526 49.0376 27.0023C49.6878 26.3521 50.4065 25.8046 50.646 25.8046C50.8856 25.8046 51.3647 26.3863 51.7411 27.0708C52.5283 28.5766 52.6994 27.7552 51.9807 26.0099C51.2962 24.3672 50.2696 24.1277 49.0376 25.2912L48.0451 26.2494L47.8056 25.3254C47.4291 23.7512 46.8816 24.2988 47.1211 26.0441Z" fill="#161925"/>
<path d="M24.8766 28.6448C24.7397 28.987 24.7397 30.4244 24.8423 31.7932L25.0135 34.2915L23.7472 35.1812C21.8992 36.4817 21.6597 36.379 21.6597 34.0861C21.6597 31.9301 21.1806 30.6639 20.7699 31.7248C20.6672 32.067 20.6672 33.2648 20.7699 34.3941C20.9752 36.2421 20.941 36.5159 20.2566 37.0635C19.6748 37.5426 19.5721 37.8164 19.8459 38.2955C20.0855 38.7061 20.2908 38.7746 20.4277 38.5008C20.8041 37.919 21.3175 38.0559 21.3175 38.7061C21.3175 39.0484 21.4886 39.5617 21.6939 39.8355C21.9677 40.2119 22.0019 40.0066 21.8308 39.0141C21.6597 38.0217 21.7623 37.5426 22.2415 37.0292C22.8917 36.3106 24.7055 35.2497 24.9108 35.455C24.9792 35.5235 25.2188 36.6528 25.4241 37.9532C25.6295 39.2537 25.869 40.383 25.9717 40.4857C26.2112 40.7595 26.1086 38.9799 25.7663 37.0977C25.4583 35.455 25.4926 35.1812 26.1086 34.531C26.9983 33.607 26.9641 33.2306 26.1086 33.5044C25.4241 33.7097 25.4241 33.6412 25.6295 31.5195C25.7663 30.1848 25.6979 29.0555 25.4926 28.679C25.1503 28.063 25.1161 28.063 24.8766 28.6448Z" fill="#161925"/>
<path d="M44.1091 33.8467C43.2878 35.1129 43.4247 36.0711 44.7594 37.9534C45.6491 39.1854 45.9229 39.8698 45.786 40.4516C45.6491 40.9649 45.7176 41.1703 45.9571 41.0334C46.7443 40.5543 46.1967 38.1587 44.9647 36.8583C44.1091 35.9685 44.0749 35.6263 44.7594 35.0445C45.3411 34.5654 45.4438 33.4703 44.9647 33.1965C44.7936 33.0938 44.4171 33.3676 44.1091 33.8467Z" fill="#161925"/>
<path d="M40.6872 34.6681C40.3792 35.2156 40.1396 36.5503 40.1396 37.577C40.1396 39.1854 40.2765 39.5276 41.0294 40.1436C41.5428 40.5543 42.2614 40.8623 42.6379 40.8623C43.2196 40.8623 43.0828 40.6227 41.9192 39.5619C40.4476 38.193 40.2423 37.4743 40.8241 35.8659C41.3374 34.5654 41.6796 35.113 41.2005 36.4476C40.961 37.0979 40.9268 37.6796 41.1321 37.885C41.5085 38.2614 42.6379 35.3867 42.4668 34.497C42.2614 33.4361 41.269 33.5387 40.6872 34.6681Z" fill="#161925"/>
<path d="M28.5043 35.0444C28.5043 35.2155 28.6412 35.3866 28.8466 35.3866C29.3599 35.3866 29.9759 36.7897 29.9417 37.8848C29.9074 38.9799 29.3257 39.8355 28.607 39.8355C27.7857 39.8355 27.7172 38.8088 28.5043 37.9533C29.2572 37.1662 29.1888 36.4133 28.3674 36.4133C27.3066 36.4133 26.759 39.5275 27.5803 40.6568C28.2306 41.5466 29.2572 41.2044 29.9759 39.8355C30.6946 38.4324 30.5577 36.3448 29.6679 35.3524C29.0177 34.6337 28.5043 34.4968 28.5043 35.0444Z" fill="#161925"/>
<path d="M33.2956 35.5582C33.1245 36.003 32.577 36.9955 32.0636 37.7484C31.2423 39.0146 31.1739 39.8359 31.9267 39.8359C32.0636 39.8359 32.5427 38.9804 32.9876 37.9537C33.3983 36.927 33.8774 36.0715 34.0143 36.0715C34.117 36.0715 34.425 36.5164 34.6645 37.0982C35.1779 38.2959 35.5543 38.3986 35.8965 37.3719C36.1019 36.6875 36.1703 36.7217 37.197 37.9537L38.3263 39.2542L38.8739 38.467C39.5583 37.5088 39.2503 36.7902 38.5316 37.6799C38.2579 38.0222 37.9841 38.1248 37.8814 37.9537C37.813 37.7484 37.4023 37.0982 37.0259 36.4479L36.3072 35.2502L35.6912 36.0373L35.1094 36.8586L34.733 35.7635C34.2881 34.4973 33.7405 34.3946 33.2956 35.5582Z" fill="#161925"/>
</svg>
