<svg width="22" height="20" viewBox="0 0 22 20" fill="none" xmlns="http://www.w3.org/2000/svg">
<path d="M1 9.21875C1 5.44775 1 3.56175 2.172 2.39075C3.343 1.21875 5.229 1.21875 9 1.21875H13C16.771 1.21875 18.657 1.21875 19.828 2.39075C21 3.56175 21 5.44775 21 9.21875V11.2188C21 14.9897 21 16.8757 19.828 18.0467C18.657 19.2187 16.771 19.2188 13 19.2188H9C5.229 19.2188 3.343 19.2187 2.172 18.0467C1 16.8757 1 14.9897 1 11.2188V9.21875Z" stroke="#161925" stroke-width="1.25"/>
<path d="M4.5 8.21875H10.5M5.5 12.2188H9.5" stroke="#161925" stroke-width="1.25" stroke-linecap="round"/>
<path opacity="0.5" d="M14 19.2188V1.21875" stroke="#161925" stroke-width="1.25" stroke-linecap="round"/>
</svg>
