<svg xmlns="http://www.w3.org/2000/svg" width="16" height="16" viewBox="0 0 16 16" fill="none">
  <path d="M7.33333 4.66602L5.33333 11.3327M10.6667 4.66602L8.66667 11.3327M12 6.66602H4.66667M11.3333 9.33268H4" stroke="#555456" stroke-width="0.8" stroke-linecap="round" stroke-linejoin="round"/>
  <path opacity="0.5" d="M1.33301 7.99967C1.33301 4.85701 1.33301 3.28567 2.30901 2.30901C3.28634 1.33301 4.85701 1.33301 7.99967 1.33301C11.1423 1.33301 12.7137 1.33301 13.6897 2.30901C14.6663 3.28634 14.6663 4.85701 14.6663 7.99967C14.6663 11.1423 14.6663 12.7137 13.6897 13.6897C12.7143 14.6663 11.1423 14.6663 7.99967 14.6663C4.85701 14.6663 3.28567 14.6663 2.30901 13.6897C1.33301 12.7143 1.33301 11.1423 1.33301 7.99967Z" stroke="#555456"/>
</svg>