<svg xmlns="http://www.w3.org/2000/svg" width="16" height="17" viewBox="0 0 16 17" fill="none">
  <path d="M14.6663 15.1035L1.33301 15.1035" stroke="#161925" stroke-linecap="round"/>
  <path d="M1.33301 7.77013L6.75028 3.43631C7.48072 2.85196 8.51863 2.85196 9.24906 3.43631L14.6663 7.77013" stroke="#161925" stroke-linecap="round"/>
  <path d="M10.333 4.10417V2.77083C10.333 2.58674 10.4822 2.4375 10.6663 2.4375H12.333C12.5171 2.4375 12.6663 2.58674 12.6663 2.77083V6.10417" stroke="#161925" stroke-linecap="round"/>
  <path d="M2.66699 15.1048V6.77148" stroke="#161925" stroke-linecap="round"/>
  <path d="M13.333 15.1048V6.77148" stroke="#161925" stroke-linecap="round"/>
  <path d="M10 15.1048V11.7715C10 10.8287 10 10.3573 9.70711 10.0644C9.41421 9.77148 8.94281 9.77148 8 9.77148C7.05719 9.77148 6.58579 9.77148 6.29289 10.0644C6 10.3573 6 10.8287 6 11.7715V15.1048" stroke="#161925"/>
  <path d="M9.33366 6.77083C9.33366 7.50721 8.73671 8.10417 8.00033 8.10417C7.26395 8.10417 6.66699 7.50721 6.66699 6.77083C6.66699 6.03445 7.26395 5.4375 8.00033 5.4375C8.73671 5.4375 9.33366 6.03445 9.33366 6.77083Z" stroke="#161925"/>
</svg>