<svg xmlns="http://www.w3.org/2000/svg" width="20" height="20" viewBox="0 0 20 20" fill="none">
<path opacity="0.5" d="M10.0003 1.66699C6.07199 1.66699 4.10783 1.66699 2.88699 2.88699C1.66699 4.10866 1.66699 6.07199 1.66699 10.0003C1.66699 13.9287 1.66699 15.8928 2.88699 17.1128C4.10866 18.3337 6.07199 18.3337 10.0003 18.3337C13.9287 18.3337 15.8928 18.3337 17.1128 17.1128C18.3337 15.8937 18.3337 13.9287 18.3337 10.0003C18.3337 6.07199 18.3337 4.10783 17.1128 2.88699C15.8937 1.66699 13.9287 1.66699 10.0003 1.66699Z" fill="#6D6C6E"/>
<path d="M10.0003 5.20801C10.1661 5.20801 10.3251 5.27386 10.4423 5.39107C10.5595 5.50828 10.6253 5.66725 10.6253 5.83301V10.833C10.6253 10.9988 10.5595 11.1577 10.4423 11.2749C10.3251 11.3922 10.1661 11.458 10.0003 11.458C9.83457 11.458 9.67559 11.3922 9.55838 11.2749C9.44117 11.1577 9.37533 10.9988 9.37533 10.833V5.83301C9.37533 5.66725 9.44117 5.50828 9.55838 5.39107C9.67559 5.27386 9.83457 5.20801 10.0003 5.20801ZM10.0003 14.1663C10.2213 14.1663 10.4333 14.0785 10.5896 13.9223C10.7459 13.766 10.8337 13.554 10.8337 13.333C10.8337 13.112 10.7459 12.9 10.5896 12.7438C10.4333 12.5875 10.2213 12.4997 10.0003 12.4997C9.77931 12.4997 9.56735 12.5875 9.41107 12.7438C9.25479 12.9 9.16699 13.112 9.16699 13.333C9.16699 13.554 9.25479 13.766 9.41107 13.9223C9.56735 14.0785 9.77931 14.1663 10.0003 14.1663Z" fill="#6D6C6E"/>
</svg>