<svg xmlns="http://www.w3.org/2000/svg" width="15" height="16" viewBox="0 0 15 16" fill="none">
    <path d="M3.125 3.25H5C6.03553 3.25 6.875 4.08947 6.875 5.125C6.875 6.16053 6.03553 7 5 7C3.96447 7 3.125 6.16053 3.125 5.125V3.25Z" fill="#C2BFC4"/>
    <path d="M3.125 10.125C3.125 9.08947 3.96447 8.25 5 8.25C6.03553 8.25 6.875 9.08947 6.875 10.125C6.875 11.1605 6.03553 12 5 12H3.125V10.125Z" fill="#C2BFC4"/>
    <path d="M8.125 5.125C8.125 4.08947 8.96447 3.25 10 3.25H11.875V5.125C11.875 6.16053 11.0355 7 10 7C8.96447 7 8.125 6.16053 8.125 5.125Z" fill="#C2BFC4"/>
    <path d="M8.125 10.125C8.125 9.08947 8.96447 8.25 10 8.25C11.0355 8.25 11.875 9.08947 11.875 10.125V12H10C8.96447 12 8.125 11.1605 8.125 10.125Z" fill="#C2BFC4"/>
</svg>