<svg xmlns="http://www.w3.org/2000/svg" width="20" height="20" viewBox="0 0 20 20" fill="none">
<path d="M5.41683 17.916C3.84548 17.916 3.05981 17.916 2.57165 17.4279C2.0835 16.9397 2.0835 16.154 2.0835 14.5827C2.0835 13.0113 2.0835 12.2257 2.57165 11.7375C3.05981 11.2493 3.84548 11.2493 5.41683 11.2493H14.5835C16.1548 11.2493 16.9405 11.2493 17.4287 11.7375C17.9168 12.2257 17.9168 13.0113 17.9168 14.5827C17.9168 16.154 17.9168 16.9397 17.4287 17.4279C16.9405 17.916 16.1548 17.916 14.5835 17.916H5.41683Z" stroke="#928F93" stroke-width="1.5"/>
<path d="M5.41683 9.16602C3.84548 9.16602 3.05981 9.16602 2.57165 8.67786C2.0835 8.1897 2.0835 7.40403 2.0835 5.83268C2.0835 4.26133 2.0835 3.47566 2.57165 2.9875C3.05981 2.49935 3.84548 2.49935 5.41683 2.49935L14.5835 2.49935C16.1548 2.49935 16.9405 2.49935 17.4287 2.9875C17.9168 3.47566 17.9168 4.26133 17.9168 5.83268C17.9168 7.40403 17.9168 8.1897 17.4287 8.67786C16.9405 9.16602 16.1548 9.16602 14.5835 9.16602H5.41683Z" stroke="#928F93" stroke-width="1.5"/>
</svg>