
<svg xmlns="http://www.w3.org/2000/svg" width="20" height="21" viewBox="0 0 20 21" fill="none">
<path opacity="0.5" d="M10.0007 2.26758C6.31898 2.26758 3.33398 5.60341 3.33398 9.35091C3.33398 13.0692 5.46148 17.1109 8.78148 18.6626C9.16308 18.8413 9.57929 18.9339 10.0007 18.9339C10.422 18.9339 10.8382 18.8413 11.2198 18.6626C14.5398 17.1109 16.6673 13.0692 16.6673 9.35091C16.6673 5.60341 13.6823 2.26758 10.0007 2.26758Z" fill="#E8E8E9"/>
<path d="M9.99935 11.0182C10.5519 11.0182 11.0818 10.7987 11.4725 10.408C11.8632 10.0173 12.0827 9.48743 12.0827 8.9349C12.0827 8.38236 11.8632 7.85246 11.4725 7.46176C11.0818 7.07106 10.5519 6.85156 9.99935 6.85156C9.44681 6.85156 8.91691 7.07106 8.52621 7.46176C8.13551 7.85246 7.91602 8.38236 7.91602 8.9349C7.91602 9.48743 8.13551 10.0173 8.52621 10.408C8.91691 10.7987 9.44681 11.0182 9.99935 11.0182Z" fill="#E8E8E9"/>
</svg>