<svg xmlns="http://www.w3.org/2000/svg" width="22" height="23" viewBox="0 0 22 23" fill="none">
    <path d="M19 11.502C19 13.6237 18.1571 15.6585 16.6569 17.1588C15.1566 18.6591 13.1217 19.502 11 19.502C8.87827 19.502 6.84344 18.6591 5.34315 17.1588C3.84285 15.6585 3 13.6237 3 11.502C3 9.38022 3.84285 7.34539 5.34315 5.8451C6.84344 4.34481 8.87827 3.50195 11 3.50195C13.1217 3.50195 15.1566 4.34481 16.6569 5.8451C18.1571 7.34539 19 9.38022 19 11.502Z" stroke="#555456" stroke-width="1.5"/>
    <path opacity="0.5" d="M14 11.502C14 12.2976 13.6839 13.0607 13.1213 13.6233C12.5587 14.1859 11.7956 14.502 11 14.502C10.2044 14.502 9.44129 14.1859 8.87868 13.6233C8.31607 13.0607 8 12.2976 8 11.502C8 10.7063 8.31607 9.94324 8.87868 9.38063C9.44129 8.81802 10.2044 8.50195 11 8.50195C11.7956 8.50195 12.5587 8.81802 13.1213 9.38063C13.6839 9.94324 14 10.7063 14 11.502Z" stroke="#555456"/>
    <path opacity="0.5" d="M1 11.502H3M19 11.502H21M11 3.50195V1.50195M11 21.502V19.502" stroke="#555456" stroke-width="1.5" stroke-linecap="round"/>
</svg>