<svg xmlns="http://www.w3.org/2000/svg" width="18" height="19" viewBox="0 0 18 19" fill="none">
  <path d="M5.66797 5.27018C5.67797 3.45768 5.75797 2.47602 6.3988 1.83602C7.13047 1.10352 8.30964 1.10352 10.6663 1.10352H11.4996C13.8563 1.10352 15.0355 1.10352 15.7671 1.83602C16.4996 2.56768 16.4996 3.74685 16.4996 6.10352V12.7702C16.4996 15.1268 16.4996 16.306 15.7671 17.0377C15.0355 17.7702 13.8563 17.7702 11.4996 17.7702H10.6663C8.30964 17.7702 7.13047 17.7702 6.3988 17.0377C5.75797 16.3977 5.67797 15.416 5.66797 13.6035" stroke="#BB730D" stroke-width="1.25" stroke-linecap="round"/>
  <path opacity="0.5" d="M5.66667 15.6875C3.7025 15.6875 2.72 15.6875 2.11 15.0775C1.5 14.4667 1.5 13.485 1.5 11.5208V7.35417C1.5 5.39 1.5 4.4075 2.11 3.7975C2.72 3.1875 3.7025 3.1875 5.66667 3.1875" stroke="#BB730D" stroke-width="1.25"/>
  <path d="M11.5 9.4362H4M4 9.4362L5.66667 11.1029M4 9.4362L5.66667 7.76953" stroke="#BB730D" stroke-width="1.25" stroke-linecap="round" stroke-linejoin="round"/>
</svg>