<svg xmlns="http://www.w3.org/2000/svg" width="22" height="21" viewBox="0 0 22 21" fill="none">
  <path d="M1.5 4.9375C1.5 3.87663 1.92143 2.85922 2.67157 2.10907C3.42172 1.35893 4.43913 0.9375 5.5 0.9375C6.56087 0.9375 7.57828 1.35893 8.32843 2.10907C9.07857 2.85922 9.5 3.87663 9.5 4.9375C9.5 5.99837 9.07857 7.01578 8.32843 7.76593C7.57828 8.51607 6.56087 8.9375 5.5 8.9375C4.43913 8.9375 3.42172 8.51607 2.67157 7.76593C1.92143 7.01578 1.5 5.99837 1.5 4.9375Z" stroke="#6D6C6E" stroke-width="1.5"/>
  <path opacity="0.5" d="M12.5 15.9375C12.5 14.8766 12.9214 13.8592 13.6716 13.1091C14.4217 12.3589 15.4391 11.9375 16.5 11.9375C17.5609 11.9375 18.5783 12.3589 19.3284 13.1091C20.0786 13.8592 20.5 14.8766 20.5 15.9375C20.5 16.9984 20.0786 18.0158 19.3284 18.7659C18.5783 19.5161 17.5609 19.9375 16.5 19.9375C15.4391 19.9375 14.4217 19.5161 13.6716 18.7659C12.9214 18.0158 12.5 16.9984 12.5 15.9375Z" stroke="#6D6C6E" stroke-width="1.5"/>
  <path d="M1.5 15.9375C1.5 14.0515 1.5 13.1095 2.086 12.5235C2.672 11.9375 3.614 11.9375 5.5 11.9375C7.386 11.9375 8.328 11.9375 8.914 12.5235C9.5 13.1095 9.5 14.0515 9.5 15.9375C9.5 17.8235 9.5 18.7655 8.914 19.3515C8.328 19.9375 7.386 19.9375 5.5 19.9375C3.614 19.9375 2.672 19.9375 2.086 19.3515C1.5 18.7655 1.5 17.8235 1.5 15.9375Z" stroke="#6D6C6E" stroke-width="1.5"/>
  <path opacity="0.5" d="M12.5 4.9375C12.5 3.0515 12.5 2.1095 13.086 1.5235C13.672 0.9375 14.614 0.9375 16.5 0.9375C18.386 0.9375 19.328 0.9375 19.914 1.5235C20.5 2.1095 20.5 3.0515 20.5 4.9375C20.5 6.8235 20.5 7.7655 19.914 8.3515C19.328 8.9375 18.386 8.9375 16.5 8.9375C14.614 8.9375 13.672 8.9375 13.086 8.3515C12.5 7.7655 12.5 6.8235 12.5 4.9375Z" stroke="#6D6C6E" stroke-width="1.5"/>
</svg>