<svg xmlns="http://www.w3.org/2000/svg" width="20" height="21" viewBox="0 0 20 21" fill="none">
  <path d="M9.05712 18.4017L9.70253 18.7838L9.05712 18.4017ZM9.27331 18.0365L8.6279 17.6545L8.6279 17.6545L9.27331 18.0365ZM7.39202 18.0365L8.03744 17.6545L8.03744 17.6545L7.39202 18.0365ZM7.60822 18.4017L6.9628 18.7838L7.60822 18.4017ZM1.91975 14.7522L2.61266 14.4652H2.61266L1.91975 14.7522ZM5.24044 16.7974L5.26441 16.0478H5.26441L5.24044 16.7974ZM3.72374 16.5562L3.43672 17.2491H3.43672L3.72374 16.5562ZM14.7456 14.7522L15.4385 15.0392V15.0392L14.7456 14.7522ZM11.4249 16.7974L11.4009 16.0478L11.4249 16.7974ZM12.9416 16.5562L13.2286 17.2491L13.2286 17.2491L12.9416 16.5562ZM13.4077 5.96776L13.7996 5.32828L13.7996 5.32828L13.4077 5.96776ZM14.5081 7.06824L15.1476 6.67637V6.67637L14.5081 7.06824ZM3.25769 5.96776L2.86581 5.32828V5.32828L3.25769 5.96776ZM2.15722 7.06824L1.51773 6.67637H1.51773L2.15722 7.06824ZM6.59633 16.9952L6.21449 17.6407L6.59633 16.9952ZM9.70253 18.7838L9.91873 18.4185L8.6279 17.6545L8.4117 18.0197L9.70253 18.7838ZM6.74661 18.4185L6.9628 18.7838L8.25363 18.0197L8.03744 17.6545L6.74661 18.4185ZM8.4117 18.0197C8.40255 18.0352 8.39321 18.0428 8.38333 18.0482C8.37136 18.0546 8.35381 18.0599 8.33267 18.0599C8.31153 18.0599 8.29397 18.0546 8.28201 18.0482C8.27212 18.0428 8.26279 18.0352 8.25363 18.0197L6.9628 18.7838C7.57532 19.8186 9.09001 19.8186 9.70253 18.7838L8.4117 18.0197ZM7.33268 6.22656H9.33268V4.72656H7.33268V6.22656ZM14.2493 11.1433V11.8099H15.7493V11.1433H14.2493ZM2.41602 11.8099V11.1433H0.916016V11.8099H2.41602ZM0.916016 11.8099C0.916016 12.5762 0.915609 13.1885 0.949472 13.6848C0.983794 14.1879 1.05581 14.6263 1.22684 15.0392L2.61266 14.4652C2.52996 14.2655 2.4751 14.0094 2.44599 13.5827C2.41642 13.1493 2.41602 12.5968 2.41602 11.8099H0.916016ZM5.26441 16.0478C4.60716 16.0268 4.26735 15.9696 4.01075 15.8633L3.43672 17.2491C3.956 17.4642 4.52359 17.5248 5.21646 17.547L5.26441 16.0478ZM1.22684 15.0392C1.64127 16.0398 2.43619 16.8347 3.43672 17.2491L4.01075 15.8633C3.37776 15.6011 2.87485 15.0982 2.61266 14.4652L1.22684 15.0392ZM14.2493 11.8099C14.2493 12.5968 14.2489 13.1493 14.2194 13.5827C14.1903 14.0094 14.1354 14.2655 14.0527 14.4652L15.4385 15.0392C15.6096 14.6263 15.6816 14.1879 15.7159 13.6848C15.7498 13.1885 15.7493 12.5762 15.7493 11.8099H14.2493ZM11.4489 17.547C12.1418 17.5248 12.7094 17.4642 13.2286 17.2491L12.6546 15.8633C12.398 15.9696 12.0582 16.0268 11.4009 16.0478L11.4489 17.547ZM14.0527 14.4652C13.7905 15.0982 13.2876 15.6011 12.6546 15.8633L13.2286 17.2491C14.2292 16.8347 15.0241 16.0398 15.4385 15.0392L14.0527 14.4652ZM9.33268 6.22656C10.4383 6.22656 11.2149 6.22735 11.817 6.2846C12.4078 6.34078 12.7527 6.44599 13.0158 6.60724L13.7996 5.32828C13.2611 4.99833 12.6596 4.85795 11.9589 4.79133C11.2694 4.72577 10.4093 4.72656 9.33268 4.72656V6.22656ZM15.7493 11.1433C15.7493 10.0666 15.7501 9.20649 15.6846 8.51698C15.618 7.81631 15.4776 7.2148 15.1476 6.67637L13.8687 7.46011C14.0299 7.72325 14.1351 8.06809 14.1913 8.65896C14.2486 9.261 14.2493 10.0376 14.2493 11.1433H15.7493ZM13.0158 6.60724C13.3634 6.82025 13.6557 7.11251 13.8687 7.46011L15.1476 6.67637C14.8109 6.12693 14.349 5.66498 13.7996 5.32828L13.0158 6.60724ZM7.33268 4.72656C6.25606 4.72656 5.39593 4.72577 4.70642 4.79133C4.00576 4.85795 3.40424 4.99833 2.86581 5.32828L3.64956 6.60724C3.9127 6.44599 4.25754 6.34078 4.8484 6.2846C5.45043 6.22735 6.22702 6.22656 7.33268 6.22656V4.72656ZM2.41602 11.1433C2.41602 10.0376 2.41681 9.261 2.47405 8.65896C2.53023 8.06809 2.63545 7.72325 2.7967 7.46011L1.51773 6.67637C1.18778 7.2148 1.0474 7.81631 0.980783 8.51698C0.915224 9.20649 0.916016 10.0666 0.916016 11.1433H2.41602ZM2.86581 5.32828C2.31638 5.66498 1.85443 6.12693 1.51773 6.67637L2.7967 7.46011C3.00971 7.11251 3.30196 6.82025 3.64956 6.60724L2.86581 5.32828ZM8.03744 17.6545C7.87128 17.3737 7.72114 17.1186 7.57455 16.9168C7.41906 16.7027 7.23563 16.502 6.97817 16.3497L6.21449 17.6407C6.23299 17.6516 6.27417 17.6789 6.36091 17.7983C6.45656 17.93 6.56628 18.1139 6.74661 18.4185L8.03744 17.6545ZM5.21646 17.547C5.58991 17.559 5.82066 17.567 5.99406 17.5882C6.15566 17.6079 6.2006 17.6325 6.21449 17.6407L6.97817 16.3497C6.71608 16.1946 6.44306 16.1318 6.17568 16.0992C5.92012 16.068 5.61091 16.0589 5.26441 16.0478L5.21646 17.547ZM9.91873 18.4185C10.0991 18.1139 10.2088 17.93 10.3044 17.7983C10.3912 17.6789 10.4323 17.6516 10.4509 17.6407L9.68717 16.3497C9.42971 16.5019 9.24628 16.7027 9.09078 16.9168C8.9442 17.1186 8.79405 17.3738 8.6279 17.6545L9.91873 18.4185ZM11.4009 16.0478C11.0544 16.0589 10.7452 16.068 10.4897 16.0992C10.2223 16.1318 9.94925 16.1946 9.68717 16.3497L10.4509 17.6407C10.4647 17.6325 10.5097 17.6079 10.6713 17.5882C10.8447 17.567 11.0754 17.559 11.4489 17.547L11.4009 16.0478Z" fill="#6D6C6E"/>
  <path d="M18.0957 10.8385L18.7886 11.1255L18.0957 10.8385ZM16.4045 12.5297L16.6915 13.2227L16.6915 13.2227L16.4045 12.5297ZM16.8414 2.60308L16.4495 3.24256L16.8414 2.60308ZM17.8731 3.63478L18.5126 3.2429L18.5126 3.2429L17.8731 3.63478ZM7.32581 2.60308L6.93393 1.9636V1.9636L7.32581 2.60308ZM6.29411 3.63478L5.65463 3.2429H5.65463L6.29411 3.63478ZM11.1461 2.89258H13.0211V1.39258H11.1461V2.89258ZM17.5836 7.4551V8.0801H19.0836V7.4551H17.5836ZM17.5836 8.0801C17.5836 8.8184 17.5832 9.33456 17.5556 9.73892C17.5285 10.1365 17.4776 10.371 17.4028 10.5515L18.7886 11.1255C18.9517 10.7318 19.0198 10.315 19.0521 9.84103C19.084 9.37377 19.0836 8.79788 19.0836 8.0801H17.5836ZM17.4028 10.5515C17.1618 11.1334 16.6994 11.5958 16.1175 11.8368L16.6915 13.2227C17.641 12.8294 18.3954 12.075 18.7886 11.1255L17.4028 10.5515ZM13.0211 2.89258C14.0586 2.89258 14.784 2.89337 15.3457 2.94677C15.8962 2.99912 16.2115 3.09666 16.4495 3.24256L17.2333 1.9636C16.7199 1.649 16.148 1.51629 15.4877 1.45351C14.8385 1.39179 14.0295 1.39258 13.0211 1.39258V2.89258ZM19.0836 7.4551C19.0836 6.44667 19.0844 5.63768 19.0227 4.98854C18.9599 4.32823 18.8272 3.75629 18.5126 3.2429L17.2336 4.02665C17.3795 4.26474 17.4771 4.58001 17.5294 5.13052C17.5828 5.69219 17.5836 6.41763 17.5836 7.4551H19.0836ZM16.4495 3.24256C16.7691 3.43839 17.0378 3.70708 17.2336 4.02665L18.5126 3.2429C18.1931 2.7215 17.7547 2.28312 17.2333 1.9636L16.4495 3.24256ZM11.1461 1.39258C10.1377 1.39258 9.3287 1.39179 8.67956 1.45351C8.01925 1.51629 7.44731 1.649 6.93393 1.9636L7.71768 3.24256C7.95577 3.09666 8.27103 2.99912 8.82154 2.94677C9.38321 2.89337 10.1086 2.89258 11.1461 2.89258V1.39258ZM6.93393 1.9636C6.41253 2.28312 5.97415 2.7215 5.65463 3.2429L6.9336 4.02665C7.12943 3.70708 7.39811 3.43839 7.71768 3.24256L6.93393 1.9636ZM6.61032 5.51487C6.65167 4.71984 6.75464 4.31868 6.9336 4.02665L5.65463 3.2429C5.27351 3.86484 5.157 4.57843 5.11234 5.43695L6.61032 5.51487ZM15.0252 13.5049C15.6673 13.4835 16.2009 13.4259 16.6915 13.2227L16.1175 11.8368C15.8875 11.9321 15.5796 11.9856 14.9754 12.0057L15.0252 13.5049Z" fill="#6D6C6E"/>
  <path d="M5.42383 11.3105H5.43133M8.33276 11.3105H8.34026M11.2419 11.3105H11.2494" stroke="#6D6C6E" stroke-width="2" stroke-linecap="round" stroke-linejoin="round"/>
</svg>