<svg xmlns="http://www.w3.org/2000/svg" width="16" height="17" viewBox="0 0 16 17" fill="none">
  <path fill-rule="evenodd" clip-rule="evenodd" d="M4.66634 1.60352C4.79895 1.60352 4.92613 1.65619 5.01989 1.74996C5.11366 1.84373 5.16634 1.97091 5.16634 2.10352V2.61218C5.60767 2.60352 6.09367 2.60352 6.62901 2.60352H9.37034C9.90567 2.60352 10.3917 2.60352 10.833 2.61218V2.10352C10.833 1.97091 10.8857 1.84373 10.9795 1.74996C11.0732 1.65619 11.2004 1.60352 11.333 1.60352C11.4656 1.60352 11.5928 1.65619 11.6866 1.74996C11.7803 1.84373 11.833 1.97091 11.833 2.10352V2.65485C12.0063 2.66818 12.1703 2.68485 12.3257 2.70552C13.107 2.81085 13.7397 3.03218 14.239 3.53085C14.7377 4.03018 14.959 4.66285 15.0643 5.44418C15.0977 5.69418 15.1203 5.96685 15.1357 6.26418C15.1721 6.36252 15.1765 6.46984 15.1483 6.57085C15.1663 7.10485 15.1663 7.71218 15.1663 8.39952V9.80752C15.1663 11.0328 15.1663 12.0035 15.0643 12.7628C14.959 13.5442 14.7377 14.1768 14.239 14.6762C13.7397 15.1748 13.107 15.3962 12.3257 15.5015C11.5657 15.6035 10.5957 15.6035 9.37034 15.6035H6.62901C5.40367 15.6035 4.43301 15.6035 3.67367 15.5015C2.89234 15.3962 2.25967 15.1748 1.76034 14.6762C1.26167 14.1768 1.04034 13.5442 0.935008 12.7628C0.833008 12.0028 0.833008 11.0328 0.833008 9.80752V8.39952C0.833008 7.71218 0.833008 7.10485 0.851008 6.57018C0.823188 6.46909 0.827853 6.36181 0.864341 6.26352C0.879008 5.96685 0.901674 5.69418 0.935008 5.44418C1.04034 4.66285 1.26167 4.03018 1.76034 3.53085C2.25967 3.03218 2.89234 2.81085 3.67367 2.70552C3.82901 2.68485 3.99367 2.66818 4.16634 2.65485V2.10352C4.16634 1.97091 4.21902 1.84373 4.31279 1.74996C4.40656 1.65619 4.53373 1.60352 4.66634 1.60352ZM1.84167 6.93685C1.83301 7.37218 1.83301 7.86752 1.83301 8.43685V9.77018C1.83301 11.0415 1.83434 11.9448 1.92634 12.6302C2.01634 13.3002 2.18567 13.6868 2.46767 13.9688C2.74967 14.2508 3.13634 14.4202 3.80701 14.5102C4.49234 14.6022 5.39501 14.6035 6.66634 14.6035H9.33301C10.6043 14.6035 11.5077 14.6022 12.193 14.5102C12.863 14.4202 13.2497 14.2508 13.5317 13.9688C13.8137 13.6868 13.983 13.3002 14.073 12.6295C14.165 11.9448 14.1663 11.0415 14.1663 9.77018V8.43685C14.1663 7.86752 14.1663 7.37218 14.1577 6.93685H1.84167ZM14.1117 5.93685H1.88767C1.89834 5.81018 1.91101 5.69085 1.92634 5.57685C2.01634 4.90685 2.18567 4.52018 2.46767 4.23818C2.74967 3.95618 3.13634 3.78685 3.80701 3.69685C4.49234 3.60485 5.39501 3.60352 6.66634 3.60352H9.33301C10.6043 3.60352 11.5077 3.60485 12.193 3.69685C12.863 3.78685 13.2497 3.95618 13.5317 4.23818C13.8137 4.52018 13.983 4.90685 14.073 5.57752C14.0883 5.69085 14.101 5.81085 14.1117 5.93685ZM10.9997 10.9368C10.8671 10.9368 10.7399 10.9895 10.6461 11.0833C10.5524 11.1771 10.4997 11.3042 10.4997 11.4368C10.4997 11.5695 10.5524 11.6966 10.6461 11.7904C10.7399 11.8842 10.8671 11.9368 10.9997 11.9368C11.1323 11.9368 11.2595 11.8842 11.3532 11.7904C11.447 11.6966 11.4997 11.5695 11.4997 11.4368C11.4997 11.3042 11.447 11.1771 11.3532 11.0833C11.2595 10.9895 11.1323 10.9368 10.9997 10.9368ZM9.49967 11.4368C9.49967 11.2399 9.53847 11.0448 9.61385 10.8628C9.68924 10.6808 9.79973 10.5155 9.93901 10.3762C10.0783 10.2369 10.2437 10.1264 10.4256 10.051C10.6076 9.97565 10.8027 9.93685 10.9997 9.93685C11.1967 9.93685 11.3917 9.97565 11.5737 10.051C11.7557 10.1264 11.921 10.2369 12.0603 10.3762C12.1996 10.5155 12.3101 10.6808 12.3855 10.8628C12.4609 11.0448 12.4997 11.2399 12.4997 11.4368C12.4997 11.8347 12.3416 12.2162 12.0603 12.4975C11.779 12.7788 11.3975 12.9368 10.9997 12.9368C10.6018 12.9368 10.2203 12.7788 9.93901 12.4975C9.65771 12.2162 9.49967 11.8347 9.49967 11.4368Z" fill="#161925"/>
</svg>