<svg xmlns="http://www.w3.org/2000/svg" width="16" height="17" viewBox="0 0 16 17" fill="none">
  <path opacity="0.5" d="M8.73732 15.1042H7.26265C4.96465 15.1042 3.81598 15.1042 3.03265 14.4295C2.24932 13.7548 2.08665 12.6262 1.76198 10.3675L1.57599 9.07618C1.32265 7.31818 1.19599 6.43884 1.55665 5.68751C1.91665 4.93618 2.68398 4.47884 4.21798 3.56551L5.14132 3.01551C6.53332 2.18551 7.23065 1.77084 7.99998 1.77084C8.76932 1.77084 9.46598 2.18551 10.8587 3.01551L11.782 3.56551C13.3153 4.47884 14.0827 4.93618 14.4433 5.68751C14.8033 6.43884 14.6767 7.31818 14.4233 9.07618L14.238 10.3675C13.9133 12.6262 13.7507 13.7548 12.9673 14.4295C12.184 15.1042 11.0353 15.1042 8.73732 15.1042Z" fill="#4784C4"/>
  <path d="M8 6.60416C8.13261 6.60416 8.25978 6.65684 8.35355 6.7506C8.44732 6.84437 8.5 6.97155 8.5 7.10416V8.60416H10C10.1326 8.60416 10.2598 8.65684 10.3536 8.7506C10.4473 8.84437 10.5 8.97155 10.5 9.10416C10.5 9.23676 10.4473 9.36394 10.3536 9.45771C10.2598 9.55148 10.1326 9.60416 10 9.60416H8.5V11.1042C8.5 11.2368 8.44732 11.3639 8.35355 11.4577C8.25978 11.5515 8.13261 11.6042 8 11.6042C7.86739 11.6042 7.74022 11.5515 7.64645 11.4577C7.55268 11.3639 7.5 11.2368 7.5 11.1042V9.60416H6C5.86739 9.60416 5.74022 9.55148 5.64645 9.45771C5.55268 9.36394 5.5 9.23676 5.5 9.10416C5.5 8.97155 5.55268 8.84437 5.64645 8.7506C5.74022 8.65684 5.86739 8.60416 6 8.60416H7.5V7.10416C7.5 6.97155 7.55268 6.84437 7.64645 6.7506C7.74022 6.65684 7.86739 6.60416 8 6.60416Z" fill="#4784C4"/>
</svg>