<svg xmlns="http://www.w3.org/2000/svg" width="20" height="21" viewBox="0 0 20 21" fill="none">
<path d="M15.6243 8.56722V7.98005C15.6243 4.7561 13.1062 2.14258 10 2.14258C6.8938 2.14258 4.37573 4.7561 4.37573 7.98005V8.56722C4.37573 9.27188 4.17476 9.96077 3.79817 10.5471L2.8753 11.9839C2.03235 13.2962 2.67587 15.08 4.14197 15.495C7.97728 16.5807 12.0227 16.5807 15.858 15.495C17.3241 15.08 17.9676 13.2962 17.1247 11.9839L16.2018 10.5471C15.8252 9.96077 15.6243 9.27188 15.6243 8.56722Z" stroke="#6D6C6E" stroke-width="1.5"/>
<path d="M6.25 16.3105C6.79586 17.767 8.26871 18.8105 10 18.8105C11.7313 18.8105 13.2041 17.767 13.75 16.3105" stroke="#6D6C6E" stroke-width="1.5" stroke-linecap="round"/>
</svg>