<svg xmlns="http://www.w3.org/2000/svg" width="20" height="21" viewBox="0 0 20 21" fill="none">
  <path opacity="0.5" d="M12.9632 12.7249L12.584 13.1249C12.584 13.1249 11.6815 14.0741 9.21905 11.4816C6.75655 8.8891 7.65905 7.93994 7.65905 7.93994L7.89821 7.68744C8.48655 7.06744 8.54238 6.07244 8.02821 5.34577L6.97821 3.85994C6.34155 2.95994 5.11238 2.8416 4.38321 3.6091L3.07571 4.98494C2.71488 5.36577 2.47321 5.85827 2.50238 6.40577C2.57738 7.80577 3.17571 10.8166 6.51238 14.3308C10.0515 18.0558 13.3724 18.2041 14.7299 18.0699C15.1599 18.0283 15.5332 17.7958 15.834 17.4791L17.0174 16.2324C17.8174 15.3908 17.5924 13.9491 16.569 13.3608L14.9774 12.4441C14.3057 12.0583 13.4882 12.1716 12.9632 12.7241" fill="#E8E8E9"/>
  <path d="M11.0499 2.16727C11.0767 2.00369 11.1673 1.85741 11.3018 1.76055C11.4363 1.66369 11.6038 1.62415 11.7674 1.6506C11.7883 1.65477 11.8566 1.66727 11.8924 1.6756C11.9633 1.6906 12.0624 1.7156 12.1858 1.7506C12.4333 1.8231 12.7791 1.94227 13.1941 2.13227C14.0241 2.5131 15.1283 3.17894 16.2749 4.32477C17.4216 5.47144 18.0874 6.57644 18.4683 7.40644C18.6583 7.82144 18.7766 8.16644 18.8491 8.41477C18.8856 8.53955 18.917 8.66576 18.9433 8.7931L18.9474 8.81894C18.9749 8.98397 18.9363 9.15317 18.8402 9.29005C18.744 9.42692 18.5978 9.5205 18.4333 9.5506C18.2701 9.5771 18.1031 9.53787 17.9688 9.44151C17.8344 9.34515 17.7438 9.1995 17.7166 9.03644C17.6996 8.94434 17.677 8.85334 17.6491 8.76394C17.564 8.47775 17.4581 8.19812 17.3324 7.92727C17.0074 7.21894 16.4224 6.2406 15.3908 5.20894C14.3599 4.17727 13.3816 3.5931 12.6724 3.2681C12.4019 3.14245 12.1225 3.03662 11.8366 2.95144C11.7489 2.9267 11.6605 2.90447 11.5716 2.88477C11.4079 2.85752 11.2615 2.76703 11.1639 2.63281C11.0663 2.49859 11.0254 2.33139 11.0499 2.16727Z" fill="#E8E8E9"/>
  <path fill-rule="evenodd" clip-rule="evenodd" d="M11.2391 5.04379C11.2615 4.96483 11.2993 4.89106 11.3503 4.82671C11.4013 4.76235 11.4645 4.70868 11.5362 4.66875C11.608 4.62881 11.6869 4.60341 11.7684 4.59398C11.85 4.58455 11.9326 4.59128 12.0116 4.61379L12.0141 4.61463L12.0166 4.61546L12.0232 4.61713L12.0399 4.62213L12.0866 4.63879C12.308 4.72412 12.5219 4.8281 12.7257 4.94963C13.1332 5.19129 13.6899 5.59129 14.3441 6.24629C14.9982 6.90046 15.3991 7.45713 15.6407 7.86463C15.7616 8.06879 15.8416 8.23463 15.8932 8.35629C15.9209 8.41994 15.946 8.48472 15.9682 8.55046L15.9724 8.56713L15.9749 8.57379V8.57629L15.9757 8.57713C15.9757 8.57713 15.9757 8.57879 15.3757 8.75046L15.9757 8.57879C16.0181 8.73648 15.997 8.90447 15.9171 9.04682C15.8371 9.18918 15.7046 9.2946 15.548 9.34055C15.3913 9.38649 15.2229 9.36931 15.0787 9.29267C14.9346 9.21603 14.8261 9.08603 14.7766 8.93046L14.7741 8.92213C14.7155 8.777 14.6458 8.63659 14.5657 8.50213C14.3791 8.18796 14.0432 7.71296 13.4599 7.12963C12.8766 6.54629 12.4024 6.21129 12.0882 6.02546C11.9538 5.94535 11.8134 5.8757 11.6682 5.81713L11.6599 5.81379C11.5025 5.76647 11.37 5.65903 11.2913 5.51475C11.2125 5.37047 11.1937 5.2018 11.2391 5.04379Z" fill="#E8E8E9"/>
</svg>