<svg width="18" height="18" viewBox="0 0 18 18" fill="none" xmlns="http://www.w3.org/2000/svg">
<g id="Group">
<path id="Vector" d="M10.25 1.06641C10.25 1.06641 12.195 1.24307 14.6692 3.71807C17.1442 6.19307 17.3208 8.13724 17.3208 8.13724M10.8392 4.01307C10.8392 4.01307 11.6642 4.24807 12.9017 5.48557C14.1392 6.72307 14.375 7.54807 14.375 7.54807" stroke="#EEF6FE" stroke-width="1.25" stroke-linecap="round"/>
<path id="Vector_2" opacity="0.5" d="M12.0375 12.352L12.4167 11.952L11.51 11.0911L11.1308 11.492L12.0375 12.352ZM13.6658 11.7836L15.2575 12.7011L15.8817 11.617L14.2892 10.7003L13.6658 11.7836ZM15.565 14.6003L14.3817 15.8461L15.2875 16.7078L16.4708 15.462L15.565 14.6003ZM13.6692 16.2461C12.4733 16.3636 9.3525 16.2636 5.96583 12.6986L5.06 13.5586C8.75083 17.4445 12.2717 17.6411 13.7917 17.4903L13.6692 16.2461ZM5.96583 12.6986C2.73583 9.29781 2.19417 6.42864 2.12667 5.17031L0.878334 5.23781C0.961668 6.77948 1.615 9.93198 5.06 13.5586L5.96583 12.6986ZM7.1125 7.16698L7.35083 6.91531L6.445 6.05448L6.20583 6.30614L7.1125 7.16698ZM7.53917 3.78198L6.48833 2.29698L5.4675 3.01864L6.5175 4.50448L7.53917 3.78198ZM2.93083 1.97531L1.62417 3.35364L2.53083 4.21448L3.83917 2.83698L2.93083 1.97531ZM6.65917 6.73614C6.50919 6.59161 6.35779 6.44854 6.205 6.30698L6.20333 6.30864L6.20083 6.31114C6.1862 6.3266 6.1723 6.34273 6.15917 6.35948C6.07748 6.4676 6.01284 6.58761 5.9675 6.71531C5.88583 6.94448 5.8425 7.24781 5.8975 7.62614C6.00583 8.36948 6.49333 9.36864 7.76583 10.7095L8.6725 9.84781C7.4825 8.59531 7.18917 7.82448 7.13417 7.44448C7.1075 7.26114 7.13417 7.16531 7.145 7.13448L7.15167 7.11864C7.14487 7.12963 7.13705 7.13995 7.12833 7.14948C7.12344 7.15513 7.11844 7.16068 7.11333 7.16614C7.11333 7.16614 7.11167 7.16614 6.65917 6.73614ZM7.76583 10.7095C9.035 12.0461 9.99333 12.5703 10.7242 12.6895C11.1 12.7503 11.4042 12.7011 11.6342 12.6103C11.7616 12.5603 11.8801 12.4899 11.985 12.402C11.9953 12.3928 12.0053 12.3834 12.015 12.3736L12.0267 12.362C12.0286 12.3603 12.0306 12.3587 12.0325 12.357L12.035 12.3545L12.0358 12.3528C12.0358 12.3528 12.0375 12.352 11.5842 11.9211C11.1308 11.4911 11.1317 11.4903 11.1317 11.4895L11.1333 11.4886L11.135 11.4861C11.1364 11.4848 11.1378 11.4834 11.1392 11.482L11.1475 11.4736C11.1573 11.4642 11.1676 11.4553 11.1783 11.447C11.1867 11.442 11.1858 11.4436 11.175 11.4478C11.1583 11.4545 11.0833 11.4811 10.925 11.4553C10.59 11.4003 9.86667 11.1053 8.6725 9.84781L7.76583 10.7095ZM6.48833 2.29698C5.64333 1.10198 3.95333 0.899478 2.93167 1.97614L3.83667 2.83698C4.2725 2.37864 5.04083 2.41448 5.4675 3.01864L6.48833 2.29698ZM2.12667 5.17031C2.10833 4.83698 2.25417 4.50448 2.53083 4.21448L1.62417 3.35364C1.1775 3.82364 0.837501 4.47614 0.878334 5.23781L2.12667 5.17031ZM14.3808 15.847C14.1483 16.092 13.9058 16.2228 13.6692 16.2461L13.7917 17.4903C14.4142 17.4295 14.9183 17.097 15.2875 16.7078L14.3808 15.847ZM7.35083 6.91614C8.1575 6.06698 8.21417 4.73864 7.53917 3.78281L6.51833 4.50448C6.87 5.00198 6.81583 5.66448 6.445 6.05448L7.35083 6.91614ZM15.2575 12.7011C15.9417 13.0953 16.0758 14.0636 15.565 14.6011L16.4708 15.462C17.5583 14.317 17.2417 12.4003 15.8817 11.617L15.2575 12.7011ZM12.4167 11.9528C12.7375 11.6145 13.2383 11.5386 13.6658 11.7845L14.2892 10.7011C13.3733 10.1745 12.2392 10.3261 11.51 11.0928L12.4167 11.9528Z" fill="#EEF6FE"/>
</g>
</svg>
