<svg xmlns="http://www.w3.org/2000/svg" width="16" height="16" viewBox="0 0 16 16" fill="none">
  <path d="M11.3327 14.6667V10.6667C11.3327 9.40933 11.3327 8.78133 10.942 8.39067C10.5513 8 9.92335 8 8.66602 8H7.33268C6.07535 8 5.44735 8 5.05668 8.39067C4.66602 8.78133 4.66602 9.40933 4.66602 10.6667V14.6667" stroke="#6D6C6E"/>
  <path opacity="0.5" d="M13.9993 14.6661V5.1808C13.9993 4.28746 13.9993 3.84013 13.762 3.49746C13.5247 3.1548 13.106 2.99746 12.2687 2.68413C10.632 2.07013 9.81402 1.76346 9.24002 2.1608C8.66602 2.55946 8.66602 3.4328 8.66602 5.1808V7.99946" stroke="#6D6C6E"/>
  <path opacity="0.5" d="M2.16667 5.33301C2.16667 5.46562 2.21935 5.59279 2.31312 5.68656C2.40688 5.78033 2.53406 5.83301 2.66667 5.83301C2.79928 5.83301 2.92645 5.78033 3.02022 5.68656C3.11399 5.59279 3.16667 5.46562 3.16667 5.33301H2.16667ZM6.16667 5.33301C6.16667 5.46562 6.21935 5.59279 6.31312 5.68656C6.40688 5.78033 6.53406 5.83301 6.66667 5.83301C6.79928 5.83301 6.92645 5.78033 7.02022 5.68656C7.11399 5.59279 7.16667 5.46562 7.16667 5.33301H6.16667ZM4.16667 2.66634C4.16667 2.79895 4.21935 2.92613 4.31312 3.01989C4.40688 3.11366 4.53406 3.16634 4.66667 3.16634C4.79928 3.16634 4.92645 3.11366 5.02022 3.01989C5.11399 2.92613 5.16667 2.79895 5.16667 2.66634H4.16667ZM5.16667 1.33301C5.16667 1.2004 5.11399 1.07322 5.02022 0.979454C4.92645 0.885686 4.79928 0.833008 4.66667 0.833008C4.53406 0.833008 4.40688 0.885686 4.31312 0.979454C4.21935 1.07322 4.16667 1.2004 4.16667 1.33301H5.16667ZM2.5 14.6663V7.99967H1.5V14.6663H2.5ZM4.66667 5.83301C5.30934 5.83301 5.74134 5.83434 6.06334 5.87767C6.37067 5.91901 6.50267 5.99034 6.58934 6.07767L7.296 5.36967C6.99267 5.06634 6.61467 4.94301 6.196 4.88634C5.792 4.83167 5.28134 4.83301 4.66667 4.83301V5.83301ZM7.83334 7.99967C7.83334 7.38501 7.83467 6.87434 7.78 6.47034C7.724 6.05167 7.6 5.67301 7.296 5.36967L6.58934 6.07767C6.676 6.16434 6.74734 6.29567 6.78934 6.60367C6.832 6.92501 6.83334 7.35701 6.83334 7.99967H7.83334ZM4.66667 4.83301C4.052 4.83301 3.54134 4.83167 3.13734 4.88634C2.71867 4.94234 2.34067 5.06634 2.03734 5.36967L2.744 6.07701C2.83067 5.99034 2.96267 5.91901 3.27067 5.87701C3.592 5.83434 4.024 5.83301 4.66667 5.83301V4.83301ZM2.5 7.99967C2.5 7.35701 2.50134 6.92501 2.54467 6.60301C2.586 6.29567 2.65667 6.16367 2.744 6.07701L2.03667 5.37034C1.73334 5.67367 1.61 6.05167 1.55334 6.47034C1.49867 6.87434 1.5 7.38501 1.5 7.99967H2.5ZM3.16667 5.33301V4.33301H2.16667V5.33301H3.16667ZM4 3.49967H5.33334V2.49967H4V3.49967ZM6.16667 4.33301V5.33301H7.16667V4.33301H6.16667ZM5.33334 3.49967C5.662 3.49967 5.858 3.50101 5.998 3.51967C6.03909 3.52392 6.07943 3.53356 6.118 3.54834L6.82467 2.84167C6.61867 2.63501 6.36867 2.56034 6.13134 2.52834C5.90867 2.49834 5.63334 2.49967 5.33334 2.49967V3.49967ZM7.16667 4.33301C7.16667 4.03301 7.168 3.75767 7.138 3.53501C7.106 3.29767 7.03134 3.04767 6.82467 2.84167L6.118 3.54834L6.11867 3.55034C6.13305 3.5883 6.14246 3.62796 6.14667 3.66834C6.16534 3.80834 6.16667 4.00434 6.16667 4.33301H7.16667ZM3.16667 4.33301C3.16667 4.00434 3.168 3.80834 3.18667 3.66834C3.19092 3.62726 3.20056 3.58691 3.21534 3.54834L2.50867 2.84167C2.302 3.04767 2.22734 3.29767 2.19534 3.53501C2.16534 3.75767 2.16667 4.03301 2.16667 4.33301H3.16667ZM4 2.49967C3.7 2.49967 3.42467 2.49834 3.202 2.52834C2.96467 2.56034 2.71467 2.63501 2.50867 2.84167L3.21534 3.54834L3.21734 3.54767C3.2553 3.53329 3.29496 3.52388 3.33534 3.51967C3.47534 3.50101 3.67134 3.49967 4 3.49967V2.49967ZM5.16667 2.66634V1.33301H4.16667V2.66634H5.16667Z" fill="#6D6C6E"/>
  <path d="M14.6663 14.666H1.33301" stroke="#6D6C6E" stroke-linecap="round"/>
  <path opacity="0.5" d="M6.66602 10H9.33268M6.66602 12H9.33268" stroke="#6D6C6E" stroke-width="0.8" stroke-linecap="round"/>
</svg>