<svg xmlns="http://www.w3.org/2000/svg" width="20" height="20" viewBox="0 0 20 20" fill="none">
  <path fill-rule="evenodd" clip-rule="evenodd" d="M1.66602 17.7083C1.32084 17.7083 1.04102 17.9882 1.04102 18.3333C1.04102 18.6785 1.32084 18.9583 1.66602 18.9583H18.3327C18.6779 18.9583 18.9577 18.6785 18.9577 18.3333C18.9577 17.9882 18.6779 17.7083 18.3327 17.7083H17.4993H15.416H14.166V13.3333C14.166 11.762 14.166 10.9763 13.6779 10.4882C13.1897 10 12.404 10 10.8327 10H9.16602C7.59467 10 6.80899 10 6.32084 10.4882C5.83268 10.9763 5.83268 11.762 5.83268 13.3333V17.7083H4.58268H2.49935H1.66602ZM7.70768 12.5C7.70768 12.1548 7.9875 11.875 8.33268 11.875H11.666C12.0112 11.875 12.291 12.1548 12.291 12.5C12.291 12.8452 12.0112 13.125 11.666 13.125H8.33268C7.9875 13.125 7.70768 12.8452 7.70768 12.5ZM7.70768 15C7.70768 14.6548 7.9875 14.375 8.33268 14.375H11.666C12.0112 14.375 12.291 14.6548 12.291 15C12.291 15.3452 12.0112 15.625 11.666 15.625H8.33268C7.9875 15.625 7.70768 15.3452 7.70768 15Z" fill="#161925"/>
  <g opacity="0.5">
    <path d="M6.66667 3.75C7.45234 3.75 7.84518 3.75 8.08925 3.99408C8.33333 4.23816 8.33333 4.63099 8.33333 5.41667L8.33332 6.91036C8.46397 6.97386 8.5776 7.05391 8.67851 7.15482C9.01525 7.49156 9.1197 7.96987 9.1521 8.74999V10C7.59046 10 6.80813 10.0015 6.32149 10.4882C5.83333 10.9763 5.83333 11.762 5.83333 13.3333V17.7083H2.5V10C2.5 8.42865 2.5 7.64298 2.98816 7.15482C3.08906 7.05391 3.20269 6.97386 3.33333 6.91036V5.41667C3.33333 4.63099 3.33333 4.23816 3.57741 3.99408C3.82149 3.75 4.21433 3.75 5 3.75H5.20833V2.5C5.20833 2.15482 5.48816 1.875 5.83333 1.875C6.17851 1.875 6.45833 2.15482 6.45833 2.5V3.75H6.66667Z" fill="#161925"/>
    <path d="M17.2032 4.3723C16.9064 3.94403 16.3833 3.74786 15.3371 3.35553C13.291 2.58826 12.268 2.20463 11.5507 2.70175C10.8333 3.19886 10.8333 4.29145 10.8333 6.47662V10C12.4047 10 13.1904 10 13.6785 10.4882C14.1667 10.9763 14.1667 11.762 14.1667 13.3333V17.7083H17.5V6.47662C17.5 5.35925 17.5 4.80057 17.2032 4.3723Z" fill="#161925"/>
  </g>
</svg>