<svg xmlns="http://www.w3.org/2000/svg" width="12" height="12" viewBox="0 0 12 12" fill="none">
<circle cx="6" cy="4.5" r="3.5" stroke="#161925"/>
<path d="M3.67556 7.5L3.35712 8.66148C3.04295 9.80741 2.88586 10.3804 3.09549 10.694C3.16895 10.804 3.2675 10.8922 3.38186 10.9504C3.70817 11.1166 4.212 10.854 5.21967 10.329C5.55494 10.1543 5.72258 10.0669 5.90071 10.0479C5.96674 10.0409 6.03326 10.0409 6.09929 10.0479C6.27742 10.0669 6.44506 10.1543 6.78033 10.329C7.788 10.854 8.29183 11.1166 8.61814 10.9504C8.7325 10.8922 8.83105 10.804 8.90451 10.694C9.11414 10.3804 8.95705 9.80741 8.64288 8.66148L8.32444 7.5" stroke="#161925" stroke-linecap="round"/>
</svg>