<svg width="53" height="53" viewBox="0 0 53 53" fill="none" xmlns="http://www.w3.org/2000/svg">
<path d="M18.5 35.502V41.262H19.348V38.782H19.14V38.4821L19.02 38.358H19.14V38.094H19.348V36.198H20.748C21.1373 36.198 21.4307 36.2806 21.628 36.446C21.8253 36.6113 21.924 36.8433 21.924 37.142C21.924 37.4406 21.8227 37.6753 21.62 37.846C21.4227 38.0113 21.132 38.094 20.748 38.094H19.348V38.358H20.052L20.4888 38.782H20.772C21.188 38.782 21.5427 38.7126 21.836 38.574C22.1293 38.4353 22.356 38.2433 22.516 37.998C22.676 37.7526 22.756 37.4646 22.756 37.134C22.756 36.8033 22.676 36.518 22.516 36.278C22.356 36.0326 22.1293 35.8433 21.836 35.71C21.5427 35.5713 21.188 35.502 20.772 35.502H18.5Z" fill="#FEFDFE"/>
<path d="M19.348 38.358V38.094H19.14V38.358H19.348Z" fill="#FEFDFE"/>
<path d="M19.14 38.358H19.02L19.14 38.4821V38.358Z" fill="#FEFDFE"/>
<path d="M19.348 38.358H19.14V38.4821L19.348 38.6972V38.358Z" fill="#FEFDFE"/>
<path d="M19.14 38.4821V38.782H19.348V38.6972L19.14 38.4821Z" fill="#FEFDFE"/>
<path d="M20.4888 38.782L20.052 38.358H19.348V38.6972L19.43 38.782H20.4888Z" fill="#FEFDFE"/>
<path d="M21.828 41.262H23.044L20.4888 38.782H19.43L21.828 41.262Z" fill="#FEFDFE"/>
<path d="M24.2792 38.8456V39.4696H24.5713C24.5633 39.388 24.5592 39.3026 24.5592 39.2136C24.5592 39.0826 24.5681 38.96 24.586 38.8456H24.2792Z" fill="#FEFDFE"/>
<path d="M24.7112 41.0696C25.0259 41.2509 25.3886 41.3416 25.7992 41.3416C26.2419 41.3416 26.6206 41.2322 26.9352 41.0136C27.2552 40.7949 27.4819 40.4936 27.6152 40.1096H26.8312C26.7459 40.3016 26.6152 40.4482 26.4392 40.5496C26.2632 40.6456 26.0552 40.6936 25.8152 40.6936C25.4206 40.6936 25.1112 40.5629 24.8872 40.3016C24.7105 40.0904 24.6052 39.8131 24.5713 39.4696H24.2792V38.8456H24.586C24.6306 38.5592 24.731 38.3245 24.8872 38.1416C25.1112 37.8802 25.4126 37.7496 25.7912 37.7496C26.1432 37.7496 26.4179 37.8642 26.6152 38.0936C26.7734 38.2774 26.8682 38.5281 26.8996 38.8456H27.1192L26.9112 39.0936C26.9112 39.0068 26.9074 38.9241 26.8996 38.8456H24.586C24.5681 38.96 24.5592 39.0826 24.5592 39.2136C24.5592 39.3026 24.5633 39.388 24.5713 39.4696H27.7032C27.7139 39.4109 27.7192 39.3549 27.7192 39.3016C27.7246 39.2429 27.7272 39.1816 27.7272 39.1176C27.7272 38.7069 27.6472 38.3522 27.4872 38.0536C27.3326 37.7549 27.1086 37.5229 26.8152 37.3576C26.5272 37.1869 26.1859 37.1016 25.7912 37.1016C25.3859 37.1016 25.0259 37.1896 24.7112 37.3656C24.3966 37.5416 24.1512 37.7896 23.9752 38.1096C23.8046 38.4242 23.7192 38.7922 23.7192 39.2136C23.7192 39.6296 23.8072 39.9976 23.9832 40.3176C24.1592 40.6376 24.4019 40.8882 24.7112 41.0696Z" fill="#FEFDFE"/>
<path d="M29.8701 38.1416H29.9101V39.0616C29.9101 38.8056 29.9608 38.5842 30.0621 38.3976C30.1688 38.2109 30.3128 38.0642 30.4941 37.9576C30.6808 37.8509 30.8941 37.7976 31.1341 37.7976C31.4115 37.7976 31.6195 37.8669 31.7581 38.0056C31.9021 38.1442 31.9741 38.3549 31.9741 38.6376V41.2616H32.7981V38.4456C32.7981 38.0402 32.6728 37.7149 32.4221 37.4696C32.1715 37.2242 31.8275 37.1016 31.3901 37.1016C31.0221 37.1016 30.6995 37.1896 30.4221 37.3656C30.1859 37.5155 30.0019 37.7119 29.8701 37.9547V38.1416Z" fill="#FEFDFE"/>
<path d="M29.9101 38.1416H29.8701V37.9547C29.8472 37.9969 29.8259 38.0405 29.8061 38.0856L29.9101 39.0616V38.1416Z" fill="#FEFDFE"/>
<path d="M29.0781 37.1816V41.2616H29.9101V39.0616L29.8061 38.0856C29.8259 38.0405 29.8472 37.9969 29.8701 37.9547V37.1816H29.0781Z" fill="#FEFDFE"/>
<path d="M33.8408 37.1816V37.8456H34.6252V37.1816H33.8408Z" fill="#FEFDFE"/>
<path d="M35.4808 37.1816H34.6568V37.8456H35.4808V37.1816Z" fill="#FEFDFE"/>
<path d="M35.4808 35.9336L34.6568 36.2456V37.1816H35.4808V35.9336Z" fill="#FEFDFE"/>
<path d="M36.6408 37.8456V37.1816H35.4808V37.8456H36.6408Z" fill="#FEFDFE"/>
<path fill-rule="evenodd" clip-rule="evenodd" d="M47.1528 25.605L45.4585 24.2486V46.5436H48.1668C48.5978 46.5436 49.0111 46.7148 49.3159 47.0196C49.6206 47.3243 49.7918 47.7377 49.7918 48.1686C49.7918 48.5996 49.6206 49.0129 49.3159 49.3177C49.0111 49.6224 48.5978 49.7936 48.1668 49.7936H4.8335C4.40252 49.7936 3.98919 49.6224 3.68445 49.3177C3.3797 49.0129 3.2085 48.5996 3.2085 48.1686C3.2085 47.7377 3.3797 47.3243 3.68445 47.0196C3.98919 46.7148 4.40252 46.5436 4.8335 46.5436H7.54183V24.2486L5.84966 25.605C5.68293 25.7383 5.49157 25.8374 5.28651 25.8968C5.08146 25.9561 4.86672 25.9745 4.65456 25.9509C4.4424 25.9272 4.23698 25.862 4.05002 25.759C3.86305 25.656 3.69822 25.5171 3.56491 25.3504C3.43161 25.1836 3.33245 24.9923 3.2731 24.7872C3.21376 24.5822 3.19538 24.3674 3.21902 24.1553C3.24266 23.9431 3.30785 23.7377 3.41088 23.5507C3.51391 23.3638 3.65276 23.1989 3.8195 23.0656L21.4237 8.9823C22.8645 7.82933 24.6548 7.20117 26.5002 7.20117C28.3455 7.20117 30.1359 7.82933 31.5767 8.9823L49.1808 23.0656C49.3504 23.1978 49.4921 23.3623 49.5977 23.5497C49.7033 23.737 49.7706 23.9434 49.7958 24.157C49.821 24.3705 49.8035 24.5869 49.7445 24.7937C49.6854 25.0005 49.5859 25.1934 49.4517 25.3615C49.3175 25.5295 49.1513 25.6692 48.9628 25.7725C48.7742 25.8758 48.567 25.9407 48.3531 25.9634C48.1393 25.986 47.9231 25.966 47.7171 25.9045C47.511 25.8429 47.3192 25.7411 47.1528 25.605ZM26.5002 15.127C24.9199 15.127 23.4044 15.7547 22.287 16.8721C21.1696 17.9895 20.5418 19.505 20.5418 21.0853C20.5418 22.6655 21.1696 24.1811 22.287 25.2985C23.4044 26.4159 24.9199 27.0436 26.5002 27.0436C28.0804 27.0436 29.5959 26.4159 30.7133 25.2985C31.8307 24.1811 32.4585 22.6655 32.4585 21.0853C32.4585 19.505 31.8307 17.9895 30.7133 16.8721C29.5959 15.7547 28.0804 15.127 26.5002 15.127ZM30.2832 29.3446C29.2887 29.2103 28.0472 29.2103 26.6063 29.2103H26.394C24.9532 29.2103 23.7117 29.2103 22.7172 29.3446C21.6533 29.4876 20.6307 29.8105 19.803 30.6381C19.2528 31.1883 18.9257 31.8246 18.7262 32.502H14.5C13.3954 32.502 12.5 33.3974 12.5 34.502V42.502C12.5 43.6065 13.3954 44.502 14.5 44.502H18.3752V46.5436H34.6252V44.502H39.5C40.6046 44.502 41.5 43.6065 41.5 42.502V34.502C41.5 33.3974 40.6046 32.502 39.5 32.502H34.2741C34.0746 31.8246 33.7475 31.1883 33.1973 30.6381C32.3697 29.8105 31.3492 29.4876 30.2832 29.3446ZM34.6252 37.1816V37.8456H34.6568V40.0296C34.6568 40.4616 34.7662 40.7896 34.9848 41.0136C35.2088 41.2323 35.5582 41.3416 36.0328 41.3416C36.1662 41.3416 36.2862 41.3336 36.3928 41.3176C36.4995 41.3016 36.5822 41.2803 36.6408 41.2536V40.5816C36.5875 40.6029 36.5235 40.6216 36.4488 40.6376C36.3742 40.6536 36.2888 40.6616 36.1928 40.6616C35.9422 40.6616 35.7608 40.6109 35.6488 40.5096C35.5368 40.4083 35.4808 40.2509 35.4808 40.0376V37.8456H34.6568V37.1816H34.6252Z" fill="#FEFDFE"/>
<g opacity="0.5">
<path d="M23.7915 21.0853C23.7915 20.367 24.0768 19.6781 24.5848 19.1702C25.0927 18.6623 25.7815 18.377 26.4998 18.377C27.2181 18.377 27.907 18.6623 28.4149 19.1702C28.9228 19.6781 29.2082 20.367 29.2082 21.0853C29.2082 21.8036 28.9228 22.4925 28.4149 23.0004C27.907 23.5083 27.2181 23.7936 26.4998 23.7936C25.7815 23.7936 25.0927 23.5083 24.5848 23.0004C24.0768 22.4925 23.7915 21.8036 23.7915 21.0853Z" fill="#FEFDFE"/>
<path d="M23.7915 21.0853C23.7915 20.367 24.0768 19.6781 24.5848 19.1702C25.0927 18.6623 25.7815 18.377 26.4998 18.377C27.2181 18.377 27.907 18.6623 28.4149 19.1702C28.9228 19.6781 29.2082 20.367 29.2082 21.0853C29.2082 21.8036 28.9228 22.4925 28.4149 23.0004C27.907 23.5083 27.2181 23.7936 26.4998 23.7936C25.7815 23.7936 25.0927 23.5083 24.5848 23.0004C24.0768 22.4925 23.7915 21.8036 23.7915 21.0853Z" fill="#FEFDFE"/>
</g>
<path opacity="0.5" fill-rule="evenodd" clip-rule="evenodd" d="M40.5833 7.00195H35.1667C34.8794 7.00195 34.6038 7.11609 34.4006 7.31925C34.1975 7.52242 34.0833 7.79797 34.0833 8.08529V10.9886L41.6667 17.0553V8.08529C41.6667 7.79797 41.5525 7.52242 41.3494 7.31925C41.1462 7.11609 40.8707 7.00195 40.5833 7.00195Z" fill="#FEFDFE"/>
</svg>
