<svg xmlns="http://www.w3.org/2000/svg" width="20" height="20" viewBox="0 0 20 20" fill="none">
<path d="M17.5 13.4094V9.24826C17.5 5.67441 17.5 3.88749 16.4017 2.77724C15.3033 1.66699 13.5355 1.66699 10 1.66699C6.46447 1.66699 4.6967 1.66699 3.59835 2.77724C2.5 3.88749 2.5 5.67441 2.5 9.24826V13.4094C2.5 15.9899 2.5 17.2801 3.11176 17.8439C3.40351 18.1128 3.77179 18.2817 4.1641 18.3266C4.98668 18.4207 5.94728 17.5711 7.86847 15.8718C8.71768 15.1207 9.14229 14.7452 9.63356 14.6462C9.87548 14.5975 10.1245 14.5975 10.3664 14.6462C10.8577 14.7452 11.2823 15.1207 12.1315 15.8718C14.0527 17.5711 15.0133 18.4207 15.8359 18.3266C16.2282 18.2817 16.5965 18.1128 16.8882 17.8439C17.5 17.2801 17.5 15.9899 17.5 13.4094Z" stroke="#6D6C6E" stroke-width="1.5"/>
<path d="M12.5 5H7.5" stroke="#6D6C6E" stroke-width="1.5" stroke-linecap="round"/>
</svg>