<svg xmlns="http://www.w3.org/2000/svg" width="18" height="22" viewBox="0 0 18 22" fill="none">
  <path opacity="0.5" d="M1 9.143C1 4.646 4.582 1 9 1C13.418 1 17 4.646 17 9.143C17 13.605 14.447 18.813 10.463 20.674C10.0051 20.8884 9.50563 20.9996 9 20.9996C8.49437 20.9996 7.99492 20.8884 7.537 20.674C3.553 18.812 1 13.606 1 9.144V9.143Z" stroke="#4784C4" stroke-width="1.6"/>
  <path d="M11.1253 11.1183L12.5003 12.5003M11.1253 11.1183C11.4034 10.8392 11.6238 10.5081 11.774 10.1438C11.9242 9.77958 12.0012 9.38931 12.0005 8.99531C11.9999 8.60131 11.9216 8.2113 11.7702 7.84754C11.6189 7.48378 11.3973 7.1534 11.1183 6.87526C10.8392 6.59712 10.5081 6.37667 10.1438 6.22649C9.77958 6.07631 9.38931 5.99935 8.99531 6C8.60131 6.00065 8.2113 6.0789 7.84754 6.23028C7.48378 6.38166 7.1534 6.6032 6.87526 6.88226C6.31353 7.44584 5.99869 8.20949 6 9.00521C6.00132 9.80092 6.31867 10.5635 6.88226 11.1253C7.44584 11.687 8.20949 12.0018 9.00521 12.0005C9.80092 11.9992 10.5635 11.6818 11.1253 11.1183Z" stroke="#4784C4" stroke-width="1.2" stroke-linecap="round"/>
</svg>