<svg width="52" height="53" viewBox="0 0 52 53" fill="none" xmlns="http://www.w3.org/2000/svg">
<path d="M13.5632 46.8425H12.9998C10.9567 46.8425 9.93617 46.8425 9.30134 46.2076C8.6665 45.5771 8.6665 44.5545 8.6665 42.5113V40.102C8.6665 38.9796 8.6665 38.4185 8.95467 37.9158C9.24284 37.4153 9.67834 37.1618 10.5493 36.6548C16.2823 33.3203 24.4225 31.444 29.8543 34.6831C30.2183 34.902 30.5477 35.1663 30.8293 35.4805C31.1203 35.7994 31.3445 36.1733 31.4886 36.5803C31.6327 36.9872 31.6938 37.4189 31.6684 37.8499C31.6429 38.2809 31.5314 38.7024 31.3404 39.0895C31.1494 39.4767 30.8828 39.8217 30.5563 40.1041C30.2959 40.3516 29.978 40.5304 29.6312 40.6241C29.8912 40.5938 30.1403 40.5591 30.3787 40.5223C32.3525 40.2081 34.01 39.1508 35.5267 38.0046L39.444 35.0471C40.1429 34.5388 40.9848 34.265 41.849 34.265C42.7132 34.265 43.5551 34.5388 44.254 35.0471C45.4955 35.9853 45.8768 37.5301 45.0903 38.7911C44.1738 40.2601 42.8825 42.1386 41.6432 43.287C40.4017 44.4353 38.5535 45.4623 37.0455 46.1903C35.3728 46.9985 33.5268 47.4621 31.6483 47.7676C27.8393 48.383 23.87 48.2876 20.1 47.512C17.9491 47.0697 15.759 46.844 13.5632 46.8425Z" fill="#FEFDFE"/>
<path fill-rule="evenodd" clip-rule="evenodd" d="M15.0835 26.6374C14.8763 26.6374 14.6776 26.7197 14.5311 26.8662C14.3846 27.0127 14.3022 27.2114 14.3022 27.4186C14.3022 27.6258 14.3846 27.8245 14.5311 27.971C14.6776 28.1176 14.8763 28.1999 15.0835 28.1999H35.9168C36.124 28.1999 36.3227 28.1176 36.4693 27.971C36.6158 27.8245 36.6981 27.6258 36.6981 27.4186C36.6981 27.2114 36.6158 27.0127 36.4693 26.8662C36.3227 26.7197 36.124 26.6374 35.9168 26.6374H30.7085V21.1686C30.7085 19.204 30.7085 18.2228 30.0981 17.6124C29.4877 17.002 28.5064 17.002 26.5418 17.002H24.4585C22.4939 17.002 21.5127 17.002 20.9022 17.6124C20.2918 18.2228 20.2918 19.204 20.2918 21.1686V26.6374H16.1252H15.0835ZM22.6356 20.127C22.6356 19.9198 22.7179 19.721 22.8644 19.5745C23.0109 19.428 23.2096 19.3457 23.4168 19.3457H27.5835C27.7907 19.3457 27.9894 19.428 28.1359 19.5745C28.2824 19.721 28.3647 19.9198 28.3647 20.127C28.3647 20.3342 28.2824 20.5329 28.1359 20.6794C27.9894 20.8259 27.7907 20.9082 27.5835 20.9082H23.4168C23.2096 20.9082 23.0109 20.8259 22.8644 20.6794C22.7179 20.5329 22.6356 20.3342 22.6356 20.127ZM22.6356 23.252C22.6356 23.0448 22.7179 22.846 22.8644 22.6995C23.0109 22.553 23.2096 22.4707 23.4168 22.4707H27.5835C27.7907 22.4707 27.9894 22.553 28.1359 22.6995C28.2824 22.846 28.3647 23.0448 28.3647 23.252C28.3647 23.4592 28.2824 23.6579 28.1359 23.8044C27.9894 23.9509 27.7907 24.0332 27.5835 24.0332H23.4168C23.2096 24.0332 23.0109 23.9509 22.8644 23.8044C22.7179 23.6579 22.6356 23.4592 22.6356 23.252Z" fill="#FEFDFE"/>
<path opacity="0.5" d="M21.3333 9.18945C22.3156 9.18945 22.8062 9.18945 23.1115 9.49466C23.4167 9.79987 23.4167 10.2905 23.4167 11.2728V13.1395C23.5802 13.2197 23.7219 13.3197 23.8479 13.4457C24.2687 13.8665 24.4 14.4645 24.4406 15.4395V17.002C22.4885 17.002 21.5104 17.004 20.9021 17.6124C20.2917 18.2228 20.2917 19.204 20.2917 21.1686V26.6374H16.125V17.002C16.125 15.0374 16.125 14.0561 16.7354 13.4457C16.8608 13.32 17.0067 13.2165 17.1667 13.1395V11.2728C17.1667 10.2905 17.1667 9.79987 17.4719 9.49466C17.7771 9.18945 18.2677 9.18945 19.25 9.18945H19.5104V7.62695C19.5104 7.41975 19.5927 7.22104 19.7392 7.07453C19.8858 6.92801 20.0845 6.8457 20.2917 6.8457C20.4989 6.8457 20.6976 6.92801 20.8441 7.07453C20.9906 7.22104 21.0729 7.41975 21.0729 7.62695V9.18945H21.3333ZM34.5042 9.96758C34.1333 9.43216 33.4792 9.18633 32.1708 8.69674C29.6135 7.73737 28.3354 7.2582 27.4385 7.87904C26.5417 8.50195 26.5417 9.86654 26.5417 12.5978V17.002C28.5062 17.002 29.4875 17.002 30.0979 17.6124C30.7083 18.2228 30.7083 19.204 30.7083 21.1686V26.6374H34.875V12.5978C34.875 11.202 34.875 10.503 34.5042 9.96758Z" fill="#FEFDFE"/>
</svg>
