<svg xmlns="http://www.w3.org/2000/svg" width="19" height="19" viewBox="0 0 19 19" fill="none">
  <path d="M15.0294 12.7402L16.4594 8.44858C17.7094 4.70025 18.3344 2.82608 17.3444 1.83691C16.3553 0.847748 14.4811 1.47191 10.7319 2.72191L6.44111 4.15191C3.41611 5.16025 1.90361 5.66525 1.47445 6.40441C1.27371 6.7499 1.16797 7.14235 1.16797 7.54191C1.16797 7.94148 1.27371 8.33393 1.47445 8.67941C1.90361 9.41941 3.41611 9.92358 6.44111 10.9327C6.92778 11.0944 7.17028 11.1752 7.37361 11.3111C7.57028 11.4427 7.73945 11.6119 7.87111 11.8086C8.00695 12.0119 8.08778 12.2544 8.24945 12.7402C9.25778 15.7652 9.76278 17.2786 10.5019 17.7086C10.8476 17.9092 11.2402 18.0149 11.6399 18.0149C12.0395 18.0149 12.4321 17.9092 12.7778 17.7086C13.5169 17.2786 14.0203 15.7661 15.0294 12.7402Z" stroke="#EEF6FE" stroke-width="1.25"/>
  <path opacity="0.5" d="M14.3236 4.85645L10.8145 8.32728" stroke="#EEF6FE" stroke-width="1.25" stroke-linecap="round"/>
</svg>