<svg xmlns="http://www.w3.org/2000/svg" width="18" height="19" viewBox="0 0 18 19" fill="none">
  <path d="M14.5299 12.4951L15.9599 8.20346C17.2099 4.45513 17.8349 2.58096 16.8449 1.5918C15.8558 0.602631 13.9816 1.2268 10.2324 2.4768L5.9416 3.9068C2.9166 4.91513 1.4041 5.42013 0.974935 6.1593C0.774195 6.50478 0.668457 6.89723 0.668457 7.2968C0.668457 7.69636 0.774195 8.08882 0.974935 8.4343C1.4041 9.1743 2.9166 9.67846 5.9416 10.6876C6.42827 10.8493 6.67077 10.9301 6.8741 11.066C7.07077 11.1976 7.23993 11.3668 7.3716 11.5635C7.50743 11.7668 7.58827 12.0093 7.74994 12.4951C8.75827 15.5201 9.26327 17.0335 10.0024 17.4635C10.3481 17.6641 10.7407 17.7698 11.1404 17.7698C11.54 17.7698 11.9326 17.6641 12.2783 17.4635C13.0174 17.0335 13.5208 15.521 14.5299 12.4951Z" stroke="#4784C4" stroke-width="1.25"/>
  <path opacity="0.5" d="M13.8251 4.61133L10.3159 8.08216" stroke="#4784C4" stroke-width="1.25" stroke-linecap="round"/>
</svg>