<svg xmlns="http://www.w3.org/2000/svg" width="20" height="20" viewBox="0 0 20 20" fill="none">
  <path d="M7.50065 10.0003C7.50065 11.1509 6.56791 12.0837 5.41732 12.0837C4.26672 12.0837 3.33398 11.1509 3.33398 10.0003C3.33398 8.84973 4.26672 7.91699 5.41732 7.91699C6.56791 7.91699 7.50065 8.84973 7.50065 10.0003Z" stroke="#6D6C6E" stroke-width="1.5"/>
  <path d="M11.6667 5.41699L7.5 8.33366" stroke="#6D6C6E" stroke-width="1.5" stroke-linecap="round"/>
  <path d="M11.6667 14.583L7.5 11.6663" stroke="#6D6C6E" stroke-width="1.5" stroke-linecap="round"/>
  <path d="M15.8327 15.4163C15.8327 16.5669 14.8999 17.4997 13.7493 17.4997C12.5988 17.4997 11.666 16.5669 11.666 15.4163C11.666 14.2657 12.5988 13.333 13.7493 13.333C14.8999 13.333 15.8327 14.2657 15.8327 15.4163Z" stroke="#6D6C6E" stroke-width="1.5"/>
  <path d="M15.8327 4.58333C15.8327 5.73393 14.8999 6.66667 13.7493 6.66667C12.5988 6.66667 11.666 5.73393 11.666 4.58333C11.666 3.43274 12.5988 2.5 13.7493 2.5C14.8999 2.5 15.8327 3.43274 15.8327 4.58333Z" stroke="#6D6C6E" stroke-width="1.5"/>
</svg>