<svg width="52" height="52" viewBox="0 0 52 52" fill="none" xmlns="http://www.w3.org/2000/svg">
<g id="solar:city-bold-duotone">
<path id="Vector" fill-rule="evenodd" clip-rule="evenodd" d="M4.33337 46.0417C3.9024 46.0417 3.48907 46.2129 3.18433 46.5176C2.87958 46.8224 2.70837 47.2357 2.70837 47.6667C2.70837 48.0976 2.87958 48.511 3.18433 48.8157C3.48907 49.1205 3.9024 49.2917 4.33337 49.2917H47.6667C48.0977 49.2917 48.511 49.1205 48.8158 48.8157C49.1205 48.511 49.2917 48.0976 49.2917 47.6667C49.2917 47.2357 49.1205 46.8224 48.8158 46.5176C48.511 46.2129 48.0977 46.0417 47.6667 46.0417H36.8334V34.6667C36.8334 30.5803 36.8334 28.5393 35.5637 27.2697C34.294 26 32.253 26 28.1667 26H23.8334C19.747 26 17.706 26 16.4364 27.2697C15.1667 28.5393 15.1667 30.5803 15.1667 34.6667V46.0417H6.50004H4.33337ZM20.0417 32.5C20.0417 32.069 20.2129 31.6557 20.5177 31.351C20.8224 31.0462 21.2357 30.875 21.6667 30.875H30.3334C30.7643 30.875 31.1777 31.0462 31.4824 31.351C31.7872 31.6557 31.9584 32.069 31.9584 32.5C31.9584 32.931 31.7872 33.3443 31.4824 33.649C31.1777 33.9538 30.7643 34.125 30.3334 34.125H21.6667C21.2357 34.125 20.8224 33.9538 20.5177 33.649C20.2129 33.3443 20.0417 32.931 20.0417 32.5ZM20.0417 39C20.0417 38.569 20.2129 38.1557 20.5177 37.8509C20.8224 37.5462 21.2357 37.375 21.6667 37.375H30.3334C30.7643 37.375 31.1777 37.5462 31.4824 37.8509C31.7872 38.1557 31.9584 38.569 31.9584 39C31.9584 39.431 31.7872 39.8443 31.4824 40.149C31.1777 40.4538 30.7643 40.625 30.3334 40.625H21.6667C21.2357 40.625 20.8224 40.4538 20.5177 40.149C20.2129 39.8443 20.0417 39.431 20.0417 39Z" fill="#FEFDFE"/>
<path id="Vector_2" opacity="0.5" d="M17.3333 9.75C19.3765 9.75 20.397 9.75 21.0318 10.3848C21.6667 11.0197 21.6667 12.0402 21.6667 14.0833V17.966C22.0068 18.1328 22.3015 18.3408 22.5637 18.603C23.439 19.4783 23.712 20.722 23.7965 22.75V26C19.7362 26 17.7017 26.0043 16.4363 27.2697C15.1667 28.5393 15.1667 30.5803 15.1667 34.6667V46.0417H6.5V26C6.5 21.9137 6.5 19.8727 7.76967 18.603C8.03057 18.3416 8.33385 18.1262 8.66667 17.966V14.0833C8.66667 12.0402 8.66667 11.0197 9.3015 10.3848C9.93633 9.75 10.9568 9.75 13 9.75H13.5417V6.5C13.5417 6.06902 13.7129 5.6557 14.0176 5.35095C14.3224 5.0462 14.7357 4.875 15.1667 4.875C15.5976 4.875 16.011 5.0462 16.3157 5.35095C16.6205 5.6557 16.7917 6.06902 16.7917 6.5V9.75H17.3333ZM44.7287 11.3685C43.9573 10.2548 42.5967 9.7435 39.8753 8.72517C34.5562 6.72967 31.8977 5.733 30.0322 7.02433C28.1667 8.32 28.1667 11.1583 28.1667 16.8393V26C32.253 26 34.294 26 35.5637 27.2697C36.8333 28.5393 36.8333 30.5803 36.8333 34.6667V46.0417H45.5V16.8393C45.5 13.936 45.5 12.4822 44.7287 11.3685Z" fill="#FEFDFE"/>
</g>
</svg>
