<svg width="16" height="16" viewBox="0 0 16 16" fill="none" xmlns="http://www.w3.org/2000/svg">
<path opacity="0.5" d="M2.66699 6.76167C2.66699 3.76367 5.05499 1.33301 8.00033 1.33301C10.9457 1.33301 13.3337 3.76367 13.3337 6.76167C13.3337 9.73634 11.6317 13.2083 8.97566 14.449C8.67038 14.592 8.33741 14.666 8.00033 14.666C7.66324 14.666 7.33027 14.592 7.02499 14.449C4.36899 13.2077 2.66699 9.73701 2.66699 6.76234V6.76167Z" stroke="#555456"/>
<path d="M8 8.66602C9.10457 8.66602 10 7.77059 10 6.66602C10 5.56145 9.10457 4.66602 8 4.66602C6.89543 4.66602 6 5.56145 6 6.66602C6 7.77059 6.89543 8.66602 8 8.66602Z" stroke="#555456" stroke-width="0.8"/>
</svg>
