<svg width="53" height="52" viewBox="0 0 53 52" fill="none" xmlns="http://www.w3.org/2000/svg">
<g id="solar:city-bold-duotone">
<path id="Vector" fill-rule="evenodd" clip-rule="evenodd" d="M4.83334 46.0417C4.40236 46.0417 3.98903 46.2129 3.68429 46.5176C3.37954 46.8224 3.20834 47.2357 3.20834 47.6667C3.20834 48.0976 3.37954 48.511 3.68429 48.8157C3.98903 49.1205 4.40236 49.2917 4.83334 49.2917H48.1667C48.5976 49.2917 49.011 49.1205 49.3157 48.8157C49.6205 48.511 49.7917 48.0976 49.7917 47.6667C49.7917 47.2357 49.6205 46.8224 49.3157 46.5176C49.011 46.2129 48.5976 46.0417 48.1667 46.0417H37.3333V34.6667C37.3333 30.5803 37.3333 28.5393 36.0637 27.2697C34.794 26 32.753 26 28.6667 26H24.3333C20.247 26 18.206 26 16.9363 27.2697C15.6667 28.5393 15.6667 30.5803 15.6667 34.6667V46.0417H7H4.83334ZM20.5417 32.5C20.5417 32.069 20.7129 31.6557 21.0176 31.351C21.3224 31.0462 21.7357 30.875 22.1667 30.875H30.8333C31.2643 30.875 31.6776 31.0462 31.9824 31.351C32.2871 31.6557 32.4583 32.069 32.4583 32.5C32.4583 32.931 32.2871 33.3443 31.9824 33.649C31.6776 33.9538 31.2643 34.125 30.8333 34.125H22.1667C21.7357 34.125 21.3224 33.9538 21.0176 33.649C20.7129 33.3443 20.5417 32.931 20.5417 32.5ZM20.5417 39C20.5417 38.569 20.7129 38.1557 21.0176 37.8509C21.3224 37.5462 21.7357 37.375 22.1667 37.375H30.8333C31.2643 37.375 31.6776 37.5462 31.9824 37.8509C32.2871 38.1557 32.4583 38.569 32.4583 39C32.4583 39.431 32.2871 39.8443 31.9824 40.149C31.6776 40.4538 31.2643 40.625 30.8333 40.625H22.1667C21.7357 40.625 21.3224 40.4538 21.0176 40.149C20.7129 39.8443 20.5417 39.431 20.5417 39Z" fill="#FEFDFE"/>
<path id="Vector_2" opacity="0.5" d="M17.8333 9.75C19.8765 9.75 20.897 9.75 21.5318 10.3848C22.1667 11.0197 22.1667 12.0402 22.1667 14.0833V17.966C22.5068 18.1328 22.8015 18.3408 23.0637 18.603C23.939 19.4783 24.212 20.722 24.2965 22.75V26C20.2362 26 18.2017 26.0043 16.9363 27.2697C15.6667 28.5393 15.6667 30.5803 15.6667 34.6667V46.0417H7V26C7 21.9137 7 19.8727 8.26967 18.603C8.53057 18.3416 8.83385 18.1262 9.16667 17.966V14.0833C9.16667 12.0402 9.16667 11.0197 9.8015 10.3848C10.4363 9.75 11.4568 9.75 13.5 9.75H14.0417V6.5C14.0417 6.06902 14.2129 5.6557 14.5176 5.35095C14.8224 5.0462 15.2357 4.875 15.6667 4.875C16.0976 4.875 16.511 5.0462 16.8157 5.35095C17.1205 5.6557 17.2917 6.06902 17.2917 6.5V9.75H17.8333ZM45.2287 11.3685C44.4573 10.2548 43.0967 9.7435 40.3753 8.72517C35.0562 6.72967 32.3977 5.733 30.5322 7.02433C28.6667 8.32 28.6667 11.1583 28.6667 16.8393V26C32.753 26 34.794 26 36.0637 27.2697C37.3333 28.5393 37.3333 30.5803 37.3333 34.6667V46.0417H46V16.8393C46 13.936 46 12.4822 45.2287 11.3685Z" fill="#FEFDFE"/>
</g>
</svg>
