<svg xmlns="http://www.w3.org/2000/svg" width="22" height="23" viewBox="0 0 22 23" fill="none">
  <path d="M16 6.50195H13M16 6.50195V9.50195M16 6.50195L12.5 10.002M6 16.502H9M6 16.502V13.502M6 16.502L9.5 13.002M6 6.50195H9M6 6.50195V9.50195M6 6.50195L9.5 10.002M16 16.502H13M16 16.502V13.502M16 16.502L12.5 13.002" stroke="#555456" stroke-linecap="round" stroke-linejoin="round"/>
  <path opacity="0.5" d="M1 11.502C1 6.78795 1 4.43095 2.464 2.96595C3.93 1.50195 6.286 1.50195 11 1.50195C15.714 1.50195 18.071 1.50195 19.535 2.96595C21 4.43195 21 6.78795 21 11.502C21 16.216 21 18.573 19.535 20.037C18.072 21.502 15.714 21.502 11 21.502C6.286 21.502 3.929 21.502 2.464 20.037C1 18.574 1 16.216 1 11.502Z" stroke="#555456" stroke-width="1.5"/>
</svg>