<svg xmlns="http://www.w3.org/2000/svg" width="20" height="20" viewBox="0 0 20 20" fill="none">
  <path d="M5.79935 1.66699C6.14768 1.66699 6.42935 1.92533 6.42935 2.24366V3.40866C6.98768 3.39866 7.61435 3.39866 8.31935 3.39866H11.6793C12.3843 3.39866 13.0102 3.39866 13.5693 3.40866V2.24366C13.5693 1.92533 13.851 1.66699 14.1993 1.66699C14.5477 1.66699 14.8293 1.92533 14.8293 2.24366V3.45866C16.0377 3.54699 16.8318 3.76533 17.4152 4.29866C17.9985 4.83283 18.236 5.55949 18.3327 6.66699V7.50033H1.66602V6.66699C1.76268 5.55949 2.00018 4.83366 2.58352 4.29866C3.16685 3.76533 3.96018 3.54699 5.16935 3.45866V2.24366C5.16935 1.92533 5.45185 1.66699 5.79935 1.66699Z" fill="#6D6C6E"/>
  <path opacity="0.5" d="M18.3325 11.6667V10C18.3325 9.30083 18.3217 8.05417 18.3108 7.5H1.67083C1.66 8.05417 1.67083 9.30083 1.67083 10V11.6667C1.67083 14.8092 1.67083 16.3808 2.64583 17.3567C3.62333 18.3333 5.19416 18.3333 8.33583 18.3333H11.6692C14.8108 18.3333 16.3808 18.3333 17.3575 17.3567C18.3325 16.3808 18.3325 14.8092 18.3325 11.6667Z" fill="#6D6C6E"/>
  <path fill-rule="evenodd" clip-rule="evenodd" d="M11.6673 10.208C11.2805 10.208 10.9096 10.3617 10.6361 10.6351C10.3626 10.9086 10.209 11.2796 10.209 11.6663V13.333C10.209 13.7198 10.3626 14.0907 10.6361 14.3642C10.9096 14.6377 11.2805 14.7913 11.6673 14.7913C12.0541 14.7913 12.425 14.6377 12.6985 14.3642C12.972 14.0907 13.1257 13.7198 13.1257 13.333V11.6663C13.1257 11.2796 12.972 10.9086 12.6985 10.6351C12.425 10.3617 12.0541 10.208 11.6673 10.208ZM11.6673 11.458C11.6121 11.458 11.5591 11.48 11.52 11.519C11.4809 11.5581 11.459 11.6111 11.459 11.6663V13.333C11.459 13.3883 11.4809 13.4413 11.52 13.4803C11.5591 13.5194 11.6121 13.5413 11.6673 13.5413C11.7226 13.5413 11.7756 13.5194 11.8146 13.4803C11.8537 13.4413 11.8757 13.3883 11.8757 13.333V11.6663C11.8757 11.6111 11.8537 11.5581 11.8146 11.519C11.7756 11.48 11.7226 11.458 11.6673 11.458Z" fill="#6D6C6E"/>
  <path d="M9.37504 10.8334C9.37493 10.7099 9.33821 10.5892 9.26953 10.4865C9.20085 10.3838 9.10327 10.3038 8.98914 10.2565C8.875 10.2093 8.74942 10.1969 8.62825 10.221C8.50709 10.245 8.39577 10.3045 8.30837 10.3918L7.05837 11.6418C6.94797 11.7602 6.88787 11.917 6.89072 12.0789C6.89358 12.2408 6.95917 12.3953 7.07368 12.5098C7.18819 12.6243 7.34268 12.6899 7.5046 12.6927C7.66652 12.6956 7.82322 12.6355 7.9417 12.5251L8.12504 12.3418V14.1668C8.12504 14.3325 8.19088 14.4915 8.30809 14.6087C8.4253 14.7259 8.58427 14.7918 8.75004 14.7918C8.9158 14.7918 9.07477 14.7259 9.19198 14.6087C9.30919 14.4915 9.37504 14.3325 9.37504 14.1668V10.8334Z" fill="#6D6C6E"/>
</svg>