<svg width="788" height="485" viewBox="0 0 788 485" fill="none" xmlns="http://www.w3.org/2000/svg">
<path opacity="0.1" d="M787.639 311.517C787.653 324.658 786.065 337.751 782.912 350.507C781.851 354.805 780.618 359.014 779.214 363.134C777.495 368.219 775.504 373.207 773.249 378.077C772.112 380.54 770.91 382.955 769.644 385.32C769.665 398.796 766.894 412.129 761.506 424.478C751.767 446.634 734.399 464.549 712.57 474.957C698.921 481.477 684.005 484.906 668.882 484.999H149.531C126.424 485.049 103.717 478.971 83.7164 467.385L83.4088 467.211C80.5601 465.542 77.7827 463.775 75.0766 461.909C68.9881 457.698 63.2678 452.977 57.9776 447.796C50.8173 440.791 44.5078 432.964 39.18 424.478C26.667 404.587 20.0382 381.553 20.0615 358.046C7.3893 335.785 0 309.12 0 280.466C0 244.314 11.7426 211.336 31.0351 186.371C35.0572 181.155 39.4629 176.247 44.2154 171.689C48.9047 167.178 53.9449 163.048 59.2883 159.337C63.5634 156.365 68.0314 153.681 72.6626 151.303C74.5952 150.319 76.5344 149.388 78.5072 148.525C80.2391 147.755 81.9912 147.038 83.7633 146.362C85.8898 145.554 88.043 144.811 90.2231 144.133C92.4031 143.455 94.5541 142.861 96.6761 142.352C99.7968 141.589 102.971 140.969 106.199 140.491C108.874 140.096 111.548 139.821 114.223 139.614C116.35 139.453 118.496 139.366 120.656 139.339H121.827C124.207 139.339 126.574 139.433 128.922 139.594C129.169 139.098 129.436 138.596 129.684 138.108C130.62 136.32 131.59 134.539 132.566 132.799C132.564 132.783 132.564 132.767 132.566 132.752C132.733 132.444 132.9 132.143 133.074 131.848C133.863 130.422 134.686 129.009 135.529 127.61C135.916 126.941 136.298 126.311 136.692 125.682C136.776 125.526 136.867 125.374 136.966 125.227C137.367 124.557 137.775 123.888 138.19 123.218C140.254 119.916 142.401 116.671 144.63 113.484L145.198 112.667C145.546 112.172 145.867 111.69 146.255 111.194C147.178 109.902 148.127 108.604 149.083 107.332C149.752 106.421 150.421 105.517 151.143 104.654C152.882 102.422 154.665 100.19 156.493 97.9588C158.321 95.7272 160.22 93.5246 162.19 91.351C162.458 91.0498 162.725 90.7552 163.006 90.4606L165.861 87.3408C166.002 87.1935 166.122 87.0596 166.256 86.9258C166.597 86.5575 166.925 86.1893 167.292 85.8345C168.824 84.2077 170.395 82.6143 171.973 81.0276C180.005 73.0189 188.561 65.5555 197.585 58.687C197.94 58.4058 198.301 58.138 198.655 57.8703C200.354 56.5915 202.079 55.3262 203.804 54.081C213.294 47.2653 223.214 41.0709 233.502 35.5363C234.211 35.128 234.933 34.7464 235.662 34.3715C244.885 29.4863 254.371 25.1147 264.076 21.2764C269.365 19.1809 274.775 17.2126 280.218 15.4117C283.843 14.2201 287.481 13.0886 291.165 12.0242C296.925 10.3638 302.725 8.87537 308.565 7.55872C325.771 3.6937 343.274 1.30614 360.885 0.422044C366.235 0.149789 371.645 0.00919924 377.115 0.000272816C403.509 -0.0347102 429.801 3.29483 455.355 9.9086C455.619 10.3083 455.98 10.6342 456.405 10.8556C456.83 11.0769 457.304 11.1865 457.782 11.1739H460.029C461.006 11.4417 461.975 11.7095 462.951 11.9907C468.404 13.5617 473.778 15.2778 479.074 17.139L480.412 17.621C493.483 22.2746 506.202 27.8681 518.468 34.3581C529.525 40.1943 540.171 46.7794 550.332 54.0676C551.897 55.1923 553.44 56.326 554.96 57.4686C556.806 56.2858 558.682 55.1522 560.591 54.0676C567.959 49.8662 575.785 46.5259 583.915 44.1124C600.913 39.0767 618.897 38.3725 636.236 42.0638C658.47 46.7836 678.599 58.4996 694.855 75.163C701.474 81.9809 707.366 89.4704 712.436 97.5103C712.804 98.086 713.171 98.6685 713.526 99.2576C717.883 106.373 721.628 113.847 724.72 121.598C724.834 121.886 724.947 122.154 725.048 122.435C727.903 129.693 730.205 137.157 731.935 144.762C732.016 145.151 732.109 145.532 732.19 145.92C733.808 153.281 734.907 160.746 735.48 168.261C735.48 168.529 735.48 168.803 735.533 169.085C735.814 172.972 735.957 176.9 735.961 180.867C735.961 184.416 735.841 187.937 735.62 191.432C735.62 191.813 735.567 192.208 735.533 192.603C735.473 193.614 735.386 194.612 735.299 195.629C740.406 199.754 745.186 204.269 749.596 209.133C751.544 211.262 753.43 213.471 755.254 215.761C760.807 222.73 765.689 230.21 769.832 238.101C781.14 259.471 787.639 284.61 787.639 311.517Z" fill="#59A5F5"/>
<path opacity="0.1" d="M683.07 473.615C683.07 477.766 668.769 481.657 643.813 485H171.784C150.783 485.045 130.144 479.527 111.966 469.007L111.687 468.849C118.858 466.235 131.804 463.798 149.424 461.597L150.214 461.5C158.115 460.533 166.946 459.616 176.598 458.746C176.841 458.746 177.09 458.71 177.333 458.679C184.991 457.999 193.138 457.36 201.772 456.765C202.046 456.765 202.313 456.716 202.587 456.704C205.917 456.465 209.317 456.238 212.785 456.023L214.122 455.938C239.376 454.37 268.081 453.118 299.212 452.291H299.249C303.608 452.169 308.015 452.062 312.468 451.969C317.419 451.851 322.431 451.748 327.504 451.659C331.376 451.574 335.296 451.513 339.229 451.452H339.32C357.061 451.184 375.392 451.051 394.136 451.051C440.485 451.051 484.294 451.896 523.113 453.415H523.223C529.191 453.646 535.05 453.902 540.764 454.163L545.626 454.394C552.072 454.702 558.353 455.032 564.467 455.385C636.368 459.476 683.07 466.12 683.07 473.615Z" fill="#4784C4"/>
<g opacity="0.2">
<path opacity="0.2" d="M449.354 448.26C449.334 448.916 449.259 449.568 449.129 450.211C444.899 449.539 440.644 448.931 436.365 448.388C436.365 448.217 436.365 448.041 436.365 447.865C436.405 446.042 436.929 444.263 437.885 442.71C439.137 440.728 441.039 439.488 443.136 439.555C445.233 439.622 447.05 440.978 448.174 443.026C449.025 444.635 449.432 446.442 449.354 448.26Z" fill="#1F3A56"/>
<path opacity="0.2" d="M449.703 437.873C449.851 433.172 447.061 429.27 443.472 429.156C439.882 429.043 436.851 432.762 436.703 437.463C436.554 442.164 439.344 446.067 442.934 446.18C446.523 446.294 449.554 442.575 449.703 437.873Z" fill="#1F3A56"/>
<path opacity="0.2" d="M450.035 427.465C450.183 422.764 447.393 418.861 443.804 418.748C440.214 418.635 437.183 422.353 437.035 427.054C436.886 431.755 439.676 435.658 443.266 435.772C446.856 435.885 449.886 432.166 450.035 427.465Z" fill="#1F3A56"/>
<path opacity="0.2" d="M450.36 417.059C450.508 412.358 447.719 408.455 444.129 408.342C440.539 408.228 437.508 411.947 437.36 416.648C437.211 421.349 440.001 425.252 443.591 425.366C447.181 425.479 450.211 421.76 450.36 417.059Z" fill="#1F3A56"/>
<path opacity="0.2" d="M450.685 406.653C450.834 401.952 448.044 398.049 444.454 397.935C440.864 397.822 437.834 401.541 437.685 406.242C437.536 410.943 440.326 414.846 443.916 414.959C447.506 415.073 450.536 411.354 450.685 406.653Z" fill="#1F3A56"/>
<path opacity="0.2" d="M422.064 334.444C421.208 333.285 420.436 332.066 419.754 330.797L436.93 328.529L418.442 328.085C416.792 324.171 415.957 319.962 415.99 315.714C416.022 311.467 416.92 307.27 418.63 303.382L443.014 317.028L420.678 299.498C422.931 295.853 425.912 292.712 429.433 290.271C432.955 287.83 436.942 286.141 441.145 285.31C445.349 284.479 449.678 284.524 453.864 285.442C458.049 286.36 462 288.131 465.47 290.645C468.94 293.159 471.855 296.361 474.032 300.052C476.209 303.743 477.602 307.843 478.123 312.096C478.645 316.35 478.284 320.665 477.063 324.772C475.842 328.88 473.787 332.692 471.027 335.969C472.358 337.772 473.489 339.715 474.4 341.762L451.857 352.582L475.762 345.391C477.267 350.359 477.51 355.624 476.467 360.709C475.425 365.794 473.131 370.539 469.793 374.514C473.264 379.223 475.339 384.815 475.782 390.648C476.225 396.482 475.017 402.322 472.298 407.501C469.578 412.681 465.456 416.99 460.402 419.937C455.349 422.883 449.569 424.348 443.722 424.164C437.876 423.98 432.199 422.153 427.341 418.894C422.483 415.635 418.641 411.075 416.253 405.734C413.865 400.394 413.028 394.489 413.837 388.695C414.646 382.901 417.07 377.452 420.83 372.97C416.684 367.342 414.549 360.484 414.77 353.497C414.99 346.509 417.553 339.799 422.046 334.444H422.064Z" fill="#4784C4"/>
<path opacity="0.1" d="M477.087 355.463C476.874 362.454 474.303 369.168 469.793 374.513C473.264 379.223 475.339 384.814 475.782 390.647C476.225 396.481 475.017 402.321 472.298 407.5C469.578 412.68 465.456 416.989 460.402 419.936C455.349 422.883 449.569 424.348 443.722 424.163C437.876 423.979 432.199 422.153 427.341 418.893C422.483 415.634 418.641 411.074 416.253 405.733C413.865 400.393 413.028 394.488 413.837 388.694C414.646 382.9 417.07 377.451 420.83 372.969C416.837 367.541 477.196 351.968 477.087 355.463Z" fill="#161925"/>
</g>
<g opacity="0.2">
<path opacity="0.2" d="M356.97 448.26C356.95 448.916 356.875 449.568 356.745 450.211C352.515 449.539 348.26 448.931 343.981 448.388C343.981 448.217 343.981 448.041 343.981 447.865C344.021 446.042 344.546 444.263 345.501 442.71C346.753 440.728 348.655 439.488 350.752 439.555C352.849 439.622 354.666 440.978 355.791 443.026C356.641 444.635 357.048 446.442 356.97 448.26Z" fill="#1F3A56"/>
<path opacity="0.2" d="M357.312 437.875C357.461 433.174 354.671 429.272 351.081 429.158C347.491 429.045 344.46 432.764 344.312 437.465C344.163 442.166 346.953 446.069 350.543 446.182C354.133 446.295 357.163 442.576 357.312 437.875Z" fill="#1F3A56"/>
<path opacity="0.2" d="M357.644 427.469C357.793 422.768 355.003 418.865 351.413 418.752C347.823 418.638 344.792 422.357 344.644 427.058C344.495 431.759 347.285 435.662 350.875 435.776C354.465 435.889 357.495 432.17 357.644 427.469Z" fill="#1F3A56"/>
<path opacity="0.2" d="M357.969 417.061C358.118 412.36 355.328 408.457 351.738 408.344C348.148 408.23 345.118 411.949 344.969 416.65C344.821 421.351 347.61 425.254 351.2 425.368C354.79 425.481 357.821 421.762 357.969 417.061Z" fill="#1F3A56"/>
<path opacity="0.2" d="M358.294 406.655C358.443 401.954 355.653 398.051 352.063 397.937C348.473 397.824 345.443 401.543 345.294 406.244C345.146 410.945 347.936 414.848 351.525 414.961C355.115 415.075 358.146 411.356 358.294 406.655Z" fill="#1F3A56"/>
<path opacity="0.2" d="M329.68 334.444C328.824 333.285 328.052 332.066 327.371 330.797L344.546 328.529L326.058 328.085C324.408 324.171 323.574 319.962 323.606 315.714C323.638 311.467 324.537 307.27 326.246 303.382L350.63 317.028L328.294 299.498C330.548 295.853 333.528 292.712 337.05 290.271C340.571 287.83 344.558 286.141 348.762 285.31C352.965 284.479 357.294 284.524 361.48 285.442C365.665 286.36 369.616 288.131 373.086 290.645C376.556 293.159 379.471 296.361 381.648 300.052C383.825 303.743 385.218 307.843 385.739 312.096C386.261 316.35 385.9 320.665 384.679 324.772C383.458 328.88 381.403 332.692 378.643 335.969C379.974 337.772 381.105 339.715 382.016 341.762L359.474 352.582L383.378 345.391C384.883 350.359 385.126 355.624 384.084 360.709C383.041 365.794 380.747 370.539 377.409 374.514C380.88 379.223 382.955 384.815 383.398 390.648C383.841 396.482 382.634 402.322 379.914 407.501C377.194 412.681 373.072 416.99 368.019 419.937C362.965 422.883 357.185 424.348 351.338 424.164C345.492 423.98 339.815 422.153 334.957 418.894C330.1 415.635 326.257 411.075 323.869 405.734C321.481 400.394 320.644 394.489 321.453 388.695C322.263 382.901 324.686 377.452 328.446 372.97C324.3 367.342 322.166 360.484 322.386 353.497C322.607 346.509 325.169 339.799 329.662 334.444H329.68Z" fill="#4784C4"/>
<path opacity="0.1" d="M384.703 355.463C384.49 362.454 381.92 369.168 377.409 374.513C380.88 379.223 382.955 384.814 383.398 390.647C383.841 396.481 382.634 402.321 379.914 407.5C377.194 412.68 373.072 416.989 368.019 419.936C362.965 422.883 357.185 424.348 351.338 424.163C345.492 423.979 339.815 422.153 334.957 418.893C330.1 415.634 326.257 411.074 323.869 405.733C321.481 400.393 320.644 394.488 321.453 388.694C322.263 382.9 324.686 377.451 328.446 372.969C324.453 367.541 384.812 351.968 384.703 355.463Z" fill="#161925"/>
</g>
<g opacity="0.2">
<path opacity="0.2" d="M609.321 454.909C609.275 456.151 609.127 457.387 608.878 458.605C600.733 457.304 592.53 456.141 584.269 455.116C584.269 454.788 584.269 454.453 584.269 454.113C584.346 450.603 585.357 447.176 587.198 444.187C589.629 440.375 593.276 437.986 597.305 438.108C601.335 438.23 604.842 440.849 607.03 444.794C608.68 447.902 609.471 451.394 609.321 454.909Z" fill="#1F3A56"/>
<path opacity="0.2" d="M609.983 434.897C610.269 425.844 604.895 418.328 597.981 418.11C591.066 417.891 585.229 425.053 584.943 434.106C584.657 443.159 590.03 450.675 596.945 450.894C603.86 451.112 609.697 443.951 609.983 434.897Z" fill="#1F3A56"/>
<path opacity="0.2" d="M610.615 414.862C610.901 405.809 605.527 398.293 598.613 398.075C591.698 397.856 585.861 405.018 585.575 414.071C585.289 423.124 590.662 430.64 597.577 430.859C604.492 431.077 610.329 423.915 610.615 414.862Z" fill="#1F3A56"/>
<path opacity="0.2" d="M611.253 394.825C611.539 385.772 606.165 378.256 599.25 378.037C592.336 377.819 586.498 384.981 586.212 394.034C585.926 403.087 591.3 410.603 598.215 410.821C605.129 411.04 610.967 403.878 611.253 394.825Z" fill="#1F3A56"/>
<path opacity="0.2" d="M611.172 373.879C611.443 364.821 606.055 357.31 599.137 357.103C592.219 356.895 586.391 364.07 586.119 373.127C585.847 382.185 591.235 389.696 598.153 389.903C605.072 390.111 610.9 382.936 611.172 373.879Z" fill="#1F3A56"/>
<path opacity="0.2" d="M556.779 235.799C555.139 233.568 553.654 231.226 552.336 228.79L585.399 224.426L549.814 223.569C546.635 216.034 545.027 207.93 545.088 199.753C545.148 191.575 546.876 183.496 550.166 176.009L597.118 202.275L554.123 168.527C558.47 161.526 564.212 155.497 570.992 150.813C577.771 146.13 585.442 142.893 593.527 141.305C601.612 139.717 609.937 139.811 617.984 141.581C626.031 143.352 633.627 146.761 640.299 151.597C646.971 156.432 652.576 162.59 656.764 169.686C660.952 176.783 663.633 184.666 664.642 192.845C665.65 201.024 664.963 209.322 662.624 217.224C660.285 225.125 656.344 232.46 651.046 238.771C653.607 242.245 655.785 245.985 657.543 249.926L614.142 270.769L660.157 256.91C663.057 266.462 663.529 276.587 661.531 286.368C659.532 296.148 655.127 305.276 648.712 312.925C655.392 321.991 659.386 332.755 660.238 343.984C661.09 355.214 658.765 366.457 653.529 376.427C648.293 386.397 640.357 394.693 630.629 400.365C620.901 406.037 609.774 408.857 598.519 408.502C587.264 408.147 576.336 404.632 566.985 398.358C557.634 392.084 550.236 383.305 545.638 373.025C541.041 362.744 539.428 351.378 540.986 340.224C542.543 329.07 547.207 318.58 554.445 309.952C546.467 299.118 542.36 285.917 542.784 272.469C543.207 259.02 548.136 246.104 556.779 235.793V235.799Z" fill="#4784C4"/>
<path opacity="0.1" d="M662.716 276.259C662.317 289.71 657.392 302.634 648.737 312.938C655.417 322.004 659.411 332.767 660.263 343.997C661.114 355.226 658.789 366.469 653.553 376.44C648.317 386.41 640.381 394.705 630.654 400.377C620.926 406.05 609.798 408.869 598.543 408.514C587.288 408.16 576.361 404.644 567.009 398.371C557.658 392.097 550.261 383.318 545.663 373.038C541.065 362.757 539.453 351.39 541.01 340.237C542.568 329.083 547.232 318.593 554.469 309.965C546.726 299.504 662.928 269.53 662.716 276.259Z" fill="#161925"/>
</g>
<path d="M131.811 455.98L138.186 455.962H147.175L158.541 271.305L271.096 83.4563L266.204 78.2044V64.9043L144.477 266.952L131.811 455.98Z" fill="#BB730D"/>
<path opacity="0.1" d="M138.867 455.963H147.176L158.541 271.305L271.097 83.457L266.204 78.2051L150.105 268.491L138.867 455.963Z" fill="#161925"/>
<path d="M113.023 457.518L404.668 479.839L404.918 479.857L687.166 462.497L687.379 462.485V450.564L376.376 444.857L116.907 444.607H115.011L114.804 445.945L113.023 457.518Z" fill="#BB730D"/>
<path opacity="0.1" d="M113.023 457.518L404.668 479.839L404.918 479.857L687.166 462.497L687.379 462.266V450.814H687.13L404.668 460.248L116.907 444.607H116.865L116.354 444.942L114.804 445.945L113.023 457.518Z" fill="#161925"/>
<path opacity="0.1" d="M113.023 457.518L404.668 479.839V460.247L116.354 444.941L114.804 445.944L113.023 457.518Z" fill="#161925"/>
<path d="M266.167 77.956L394.744 215.978L390.769 458.759L401.691 460.078L401.873 460.102H412.795L414.102 226.403L654.863 306.835L658.923 450.048L667.711 451.033L670.69 451.367L663.797 296.903L412.114 208.531L274.111 65.0449H266.167V77.956Z" fill="#BB730D"/>
<path opacity="0.1" d="M413.111 221.934L414.102 226.401L654.863 306.834L658.923 450.047L667.712 451.032L660.82 303.856L413.111 221.934Z" fill="#161925"/>
<path opacity="0.1" d="M266.167 77.956L394.744 215.978L390.769 458.759L401.691 460.078L404.669 208.033L266.167 65.0449V77.956Z" fill="#161925"/>
<path d="M413.579 319.37L501.884 336.761L501.914 336.767L656.577 367.239L663.658 364.4L663.633 363.902L663.171 354.024L413.67 303.602L413.579 319.37Z" fill="#BB730D"/>
<path opacity="0.1" d="M501.914 336.766L656.577 367.238L663.657 364.399L663.633 363.901L501.914 336.766Z" fill="#161925"/>
<path d="M507.828 257.713L510.217 389.218L511.451 456.685L522.324 456.321L529.167 456.09L527.04 259.616L522.324 258.047L521.29 257.713H507.828Z" fill="#BB730D"/>
<path opacity="0.1" d="M507.925 257.684V257.714L510.216 389.219L511.45 456.686L522.323 456.322V257.684H507.925Z" fill="#161925"/>
<path d="M337.508 291.298C338.146 291.644 338.756 292.041 339.332 292.483C340.013 293.079 340.624 293.75 341.155 294.483C343.762 297.856 346.169 301.777 345.914 306.032C345.919 306.651 345.803 307.265 345.57 307.839C345.337 308.413 344.994 308.935 344.559 309.376C343.483 310.293 341.939 310.336 340.529 310.336C338.997 310.336 337.387 310.336 336.062 309.546C334.737 308.756 333.631 307.218 332.063 307.254C331.841 307.291 331.615 307.291 331.394 307.254C330.853 307.078 330.744 306.367 330.391 305.917C329.783 305.108 328.501 305.309 327.547 305.661C326.593 306.014 325.535 306.543 324.593 306.136C324.046 305.847 323.599 305.4 323.311 304.853C321.056 301.206 320.576 296.823 320.15 292.586C319.889 290.009 317.895 281.219 323.396 283.219C325.827 284.094 328.1 285.845 330.312 287.128L337.508 291.298Z" fill="#3F3D56"/>
<path d="M332.075 292.166C332.566 292.52 333.161 292.699 333.766 292.674C334.371 292.65 334.95 292.424 335.411 292.033C336.316 291.215 336.893 290.096 337.034 288.884C337.642 288.695 337.952 289.492 338.341 289.978C339.022 290.805 340.407 290.792 341.027 291.674C341.459 292.282 341.362 293.127 341.666 293.814C342.061 294.701 343.039 295.163 343.708 295.88C344.339 296.664 344.795 297.574 345.045 298.549L346.042 301.54C346.518 302.783 346.825 304.086 346.953 305.412C347.016 306.074 346.946 306.743 346.748 307.379C346.55 308.014 346.227 308.604 345.798 309.113C344.461 310.554 342.267 310.706 340.328 310.664C339.681 310.677 339.035 310.602 338.408 310.439C336.688 309.904 335.588 308.171 335.132 306.427C334.676 304.682 334.725 302.852 334.457 301.065C334.168 299.31 333.658 297.598 332.938 295.971C332.403 294.707 330.932 292.823 330.956 291.479C331.394 291.479 331.71 291.881 332.075 292.166Z" fill="#3F3D56"/>
<path d="M334.257 286.009C333.972 285.146 333.807 284.248 333.764 283.341C333.764 281.517 334.597 279.803 335.436 278.174L328.489 279.116C327.65 279.232 326.714 279.402 326.24 280.101C326.06 280.447 325.966 280.832 325.966 281.222C325.966 281.613 326.06 281.997 326.24 282.344C326.588 283.037 326.865 283.764 327.066 284.514C327.082 285.17 327.158 285.823 327.291 286.465C327.508 286.937 327.811 287.364 328.185 287.723C330.172 289.924 331.661 292.519 333.144 295.091C333.102 295.018 337.332 291.741 337.162 290.672C337.065 290.064 335.843 289.334 335.454 288.751C334.917 287.904 334.513 286.979 334.257 286.009Z" fill="#AB8171"/>
<path d="M393.82 262.26V268.247L291.305 288.246L285.987 291.468H267.638V288.094L368.36 263.755L393.82 262.26Z" fill="#BB730D"/>
<path opacity="0.1" d="M393.82 268.248L291.305 288.247L285.987 291.468H267.638L369.107 269.749L393.82 268.248Z" fill="#161925"/>
<path d="M311.514 432.232C310.372 430.848 308.795 429.892 307.04 429.519C305.285 429.146 303.456 429.378 301.85 430.177C301.506 430.339 301.203 430.576 300.963 430.87C300.355 431.721 300.744 432.895 300.799 433.946C300.938 436.511 298.896 438.596 297.061 440.39C296.076 441.35 295.073 442.377 294.63 443.684C294.186 444.991 294.514 446.651 295.705 447.331C296.225 447.592 296.791 447.749 297.371 447.793C299.313 448.172 301.305 448.228 303.266 447.957C305.205 447.587 307.107 446.486 307.946 444.699C308.108 444.215 308.376 443.772 308.73 443.405C309.8 442.56 311.441 443.55 312.656 442.949C313.659 442.45 313.702 441.666 313.714 440.633C313.751 437.776 313.325 434.542 311.514 432.232Z" fill="#59A5F5"/>
<path d="M326.101 432.121C326.849 434.091 326.952 436.236 327.049 438.34C327.104 439.555 327.14 440.856 326.484 441.883C325.828 442.911 324.545 443.452 323.317 443.707C320.783 444.23 317.847 443.737 316.212 441.725C314.96 440.187 314.699 438.078 314.93 436.084C315.125 434.449 315.538 432.534 314.365 431.373C314.061 431.063 313.666 430.845 313.386 430.51C312.778 429.769 312.876 428.65 313.204 427.738C313.631 426.866 313.952 425.946 314.158 424.997C314.207 424.547 322.388 425.313 323.141 425.684C324.168 426.188 324.01 427.033 324.32 428.054C324.752 429.477 325.578 430.759 326.101 432.121Z" fill="#59A5F5"/>
<path d="M327.602 344.795C329.206 345.834 329.826 347.877 330.075 349.773C330.762 354.971 329.559 360.223 329.468 365.468C329.383 372.818 331.51 380.3 329.693 387.418C328.605 391.674 329.528 396.536 328.507 400.834C328.203 402.111 327.644 403.314 327.353 404.591C326.745 407.356 327.383 410.25 328.24 412.955C328.514 413.684 328.687 414.447 328.757 415.222C328.715 416.416 328.412 417.587 327.869 418.651L324.222 427.276C323.815 428.243 322.211 428.401 321.184 428.528C319.251 428.759 317.093 428.923 315.556 427.726C314.018 426.529 313.647 424.523 313.41 422.65C312.955 419.056 312.752 415.435 312.802 411.812C312.869 410.867 312.785 409.917 312.553 408.998C312.219 407.958 311.483 407.059 311.283 405.958C311.028 404.536 311.751 403.138 312.018 401.703C312.202 400.393 312.181 399.062 311.957 397.758C311.72 395.813 311.447 393.868 311.137 391.935C310.699 389.23 311.325 386.561 311.745 383.85C312.14 381.303 311.635 378.708 311.137 376.179C311.18 378.231 310.924 380.279 310.377 382.258C310.055 383.224 309.593 384.148 309.314 385.133C308.068 389.552 310.724 394.19 310.347 398.767C310.171 400.907 309.332 403.022 309.569 405.132C309.733 406.676 310.45 408.092 310.942 409.563C311.435 411.034 311.69 412.718 310.942 414.092C308.967 417.824 310.444 422.9 312.213 426.729C312.572 427.408 312.884 428.111 313.149 428.832C313.671 430.559 313.234 432.413 313.374 434.212C312.865 434.295 312.343 434.261 311.849 434.113C311.355 433.964 310.902 433.705 310.523 433.355C310.256 433.075 310.037 432.747 309.775 432.455C309.045 431.759 308.181 431.219 307.235 430.869C306.68 430.558 306.047 430.412 305.412 430.449C304.744 430.636 304.143 431.009 303.679 431.525C303.078 432.054 302.441 432.539 301.771 432.978C301.486 433.197 301.152 433.345 300.799 433.41C300.621 433.437 300.439 433.408 300.278 433.326C300.118 433.244 299.987 433.114 299.905 432.954C299.867 432.852 299.845 432.746 299.838 432.638C299.612 430.802 299.493 428.955 299.48 427.106C299.48 423.927 295.675 421.739 295.195 418.596C294.812 416.061 295.523 413.478 295.286 410.925C295.17 409.612 294.806 408.323 294.83 407.01C294.83 406.159 295.025 405.326 295.091 404.481C295.147 403.543 295.133 402.603 295.049 401.667L294.86 398.731C294.678 395.831 294.478 392.871 293.335 390.221C291.98 387.126 291.178 383.818 290.965 380.446C290.843 378.319 290.922 376.191 290.679 374.058C290.46 372.131 289.974 370.216 290.114 368.283C290.229 366.788 290.721 365.341 290.837 363.845C291.074 360.97 289.98 358.174 289.123 355.42C288.266 352.667 287.634 349.615 288.758 346.959C288.919 346.523 289.187 346.134 289.536 345.828C289.967 345.543 290.458 345.36 290.971 345.293C301.399 343.103 312.087 342.421 322.709 343.269C324.441 343.367 326.121 343.892 327.602 344.795Z" fill="#3F3D56"/>
<path d="M293.098 280.234C298.475 280.234 302.835 275.874 302.835 270.496C302.835 265.118 298.475 260.758 293.098 260.758C287.721 260.758 283.361 265.118 283.361 270.496C283.361 275.874 287.721 280.234 293.098 280.234Z" fill="#AB8171"/>
<path d="M291.214 282.661C291.354 283.217 291.354 283.8 291.214 284.357C291.061 284.746 290.845 285.107 290.576 285.426C289.633 286.642 288.59 287.777 287.458 288.818C288.035 290.107 289.074 291.133 290.369 291.694C291.656 292.241 293.005 292.627 294.387 292.842C295.076 293.024 295.794 293.073 296.502 292.988C297.154 292.824 297.772 292.544 298.325 292.162L303.734 288.922C304.551 288.48 305.306 287.934 305.983 287.299C306.975 286.279 307.537 284.916 307.551 283.493C307.577 283.239 307.507 282.983 307.357 282.776C307.15 282.596 306.889 282.487 306.615 282.466C304.713 282.047 303.212 280.503 302.361 278.752C301.592 276.958 301.094 275.058 300.884 273.117L295.116 276.157C294.259 276.612 293.408 277.068 292.521 277.463C291.956 277.719 290.813 277.931 290.412 278.448C289.646 279.403 291.014 281.512 291.214 282.661Z" fill="#AB8171"/>
<path d="M287.495 287.048C286.673 287.721 286.032 288.588 285.629 289.571C285.252 290.786 285.629 292.069 285.969 293.273C287.564 298.402 288.783 303.642 289.616 308.949C290.126 312.597 290.315 316.298 290.564 319.988C291.074 327.514 291.816 339.513 292.807 346.99C296.453 347.154 300.009 346.09 303.625 345.701C310.384 344.984 317.343 346.625 323.962 345.093C322.357 338.753 320.753 327.927 319.148 321.593C318.438 319.097 317.946 316.545 317.677 313.964C317.537 312.11 317.622 310.25 317.647 308.384C317.701 304.737 317.501 301.09 317.3 297.442C317.069 293.187 316.838 288.932 315.829 284.768C315.759 284.238 315.511 283.747 315.124 283.376C314.517 282.933 313.727 283.091 313.003 283.188C310.789 283.469 308.547 282.938 306.694 281.693C305.892 281.146 304.816 280.477 304.069 281.085C303.75 281.451 303.539 281.9 303.461 282.38C303.13 283.24 302.62 284.019 301.964 284.666C301.307 285.312 300.521 285.812 299.656 286.13C297.924 286.757 296.11 287.13 294.271 287.236C293.709 287.357 293.122 287.291 292.6 287.048C291.737 286.519 291.676 284.617 290.588 284.489C289.634 284.379 288.139 286.434 287.495 287.048Z" fill="#3F3D56"/>
<path d="M301.874 301.893C299.631 299.748 298.647 296.635 297.012 293.991C295.899 292.213 294.476 290.648 292.812 289.371C291.976 288.819 291.208 288.168 290.527 287.432C289.949 286.721 289.512 285.773 288.637 285.499C288.275 285.42 287.9 285.431 287.543 285.529C287.186 285.628 286.859 285.811 286.588 286.064C286.053 286.575 285.545 287.115 285.069 287.681C282.492 290.35 277.964 290.721 275.922 293.809C275.371 294.463 274.996 295.248 274.834 296.088C274.246 300.583 275.408 305.131 278.079 308.793C278.597 309.641 279.391 310.285 280.328 310.616C280.201 311.75 280.351 312.897 280.766 313.959C281.891 317.807 283.274 321.574 284.905 325.235C284.515 326.668 284.243 328.129 284.09 329.606C283.665 333.32 284.06 337.089 283.659 340.809C283.331 343.848 282.443 346.808 282.413 349.854C282.413 350.34 282.455 350.918 282.875 351.167C283.098 351.281 283.348 351.334 283.598 351.319L291.074 351.544C295.413 351.671 299.796 351.799 304.068 350.997C304.637 350.912 305.189 350.738 305.703 350.48C307.15 349.671 307.63 347.848 307.861 346.225C308.162 344.12 308.282 341.992 308.219 339.867C309.125 342.73 310.201 345.69 312.936 346.93C314.382 347.586 316.036 347.538 317.622 347.495C321.041 347.343 324.448 346.992 327.826 346.444C328.035 346.47 328.246 346.446 328.444 346.376C328.641 346.305 328.819 346.189 328.964 346.037C329.109 345.886 329.216 345.702 329.277 345.501C329.338 345.3 329.351 345.088 329.316 344.881L329.352 341.563C329.425 334.821 327.754 328.378 327.103 321.667C326.897 319.552 326.915 317.412 326.398 315.339C326.185 314.47 325.876 313.619 325.687 312.744C325.525 311.887 325.423 311.019 325.383 310.148L324.909 303.462C324.684 300.368 324.362 297.383 324.125 294.295C323.995 291.288 323.559 288.302 322.824 285.384C322.296 283.56 321.196 281.493 319.293 281.268C318.278 281.153 317.294 281.597 316.327 281.907C313.952 282.655 311.403 282.644 309.034 281.876C308.302 281.587 307.539 281.383 306.761 281.268C306.369 281.215 305.97 281.267 305.605 281.419C305.239 281.57 304.921 281.816 304.682 282.132C304.446 282.606 304.335 283.134 304.36 283.663C304.074 289.736 303.546 295.991 301.874 301.893Z" fill="#59A5F5"/>
<path d="M292.095 302.075C289.293 299.12 286.418 296.111 282.808 294.233C281.386 293.492 279.769 292.932 278.195 293.212C276.621 293.492 275.156 294.859 275.229 296.458C275.278 297.449 275.88 298.324 276.068 299.297C276.287 300.391 275.971 301.558 276.311 302.616C276.588 303.313 277.001 303.947 277.527 304.482L281.83 309.582C283.653 311.709 285.476 313.867 287.822 315.338C290.169 316.809 293.207 317.496 295.784 316.451C297.618 315.598 299.142 314.199 300.148 312.445C301.218 310.743 301.972 308.883 302.974 307.126C304.535 304.319 306.595 301.82 309.052 299.753C307.788 299.424 306.202 298.962 305.406 297.929C305.179 297.6 304.986 297.25 304.828 296.883L303.844 294.756C303.509 294.738 303.174 294.79 302.86 294.909C302.546 295.027 302.26 295.209 302.02 295.443C301.598 295.931 301.145 296.392 300.665 296.823C299.808 297.467 298.647 297.643 297.869 298.379C297.568 298.695 297.296 299.036 297.055 299.4C296.466 300.174 295.719 300.812 294.864 301.274C294.009 301.735 293.065 302.008 292.095 302.075Z" fill="#3F3D56"/>
<path d="M309.278 289.364C311.387 285.516 311.289 280.903 311.891 276.557C311.956 275.406 312.36 274.299 313.052 273.377C314.267 272.004 316.413 271.985 318.248 272.162C318.789 272.222 319.464 272.478 319.434 273.019C319.391 273.213 319.296 273.391 319.16 273.535C317.381 275.832 316.335 278.611 316.158 281.511C317.112 282.173 318.589 280.812 319.507 281.511C320.114 282.021 319.835 283.03 319.47 283.76C318.623 285.45 317.75 287.127 316.851 288.793C316.132 290.261 315.196 291.612 314.073 292.799C313.301 293.54 312.395 294.124 311.611 294.853C309.788 296.561 308.688 298.975 306.804 300.64C306.645 300.813 306.429 300.923 306.196 300.95C305.956 300.933 305.73 300.832 305.558 300.664C304.617 299.899 303.836 298.955 303.261 297.886C302.543 296.561 302.653 296.172 303.783 295.236C305.898 293.565 307.959 291.771 309.278 289.364Z" fill="#AB8171"/>
<path d="M288.57 299.461C288.935 299.686 289.384 299.941 289.786 299.753C289.95 299.654 290.089 299.519 290.193 299.358C290.888 298.431 291.467 297.422 291.919 296.355C291.997 296.204 292.04 296.038 292.047 295.869C292.047 295.48 291.7 295.194 291.378 294.969C289.652 293.869 287.796 292.987 285.853 292.343C284.249 291.735 282.571 291.206 280.869 291.358C280.23 291.401 279.606 291.573 279.035 291.864C278.463 292.154 277.956 292.557 277.545 293.048C276.329 294.61 278.365 295.085 279.642 295.65C282.596 296.993 285.792 297.771 288.57 299.461Z" fill="#59A5F5"/>
<path opacity="0.1" d="M286.655 309.794C286.635 309.933 286.647 310.075 286.691 310.208C286.736 310.341 286.811 310.462 286.91 310.56C287.087 309.697 286.856 308.785 287.038 307.916C287.305 306.609 288.576 305.624 288.685 304.311C286.357 303.855 286.673 308.384 286.655 309.794Z" fill="#161925"/>
<path opacity="0.2" d="M393.819 262.26V268.247L369.107 269.749L368.359 263.755L393.819 262.26Z" fill="#161925"/>
<path d="M284.334 271.943C285.878 270.684 284.984 268.046 286.03 266.356C286.637 265.432 287.665 264.946 288.674 264.533C289.891 263.963 291.196 263.601 292.533 263.463C293.203 263.398 293.878 263.486 294.51 263.718C295.141 263.951 295.712 264.323 296.18 264.806C296.575 265.256 296.842 265.803 297.213 266.271C297.672 266.817 298.27 267.229 298.945 267.462C299.619 267.695 300.344 267.742 301.042 267.596C301.85 267.414 302.689 266.8 302.634 265.973C302.543 265.47 302.286 265.013 301.905 264.672L300.167 262.746C298.191 260.557 295.997 258.235 293.098 257.688C291.08 257.305 289.014 257.846 287.069 258.497C286.285 258.758 285.404 259.147 285.185 259.943C285.039 260.49 285.258 261.086 285.13 261.639C284.881 262.739 283.471 263.11 282.814 264.034C282.158 264.958 282.359 266.052 282.17 267.074C281.982 268.095 281.435 269.092 281.368 270.149C281.325 270.788 281.648 271.973 282.365 272.204C283.082 272.435 283.89 271.183 284.334 271.943Z" fill="#3F3D56"/>
<path d="M302.044 265.098C301.532 262.424 300.427 259.898 298.811 257.707C297.374 255.659 295.375 254.072 293.055 253.136C291.896 252.682 290.649 252.498 289.407 252.596C288.166 252.694 286.964 253.072 285.889 253.701C284.295 254.839 283.054 256.405 282.31 258.217C280.735 261.609 280.152 265.755 281.981 269.013C282.711 268.126 283.963 268.527 285.069 268.205C286.455 267.81 287.628 266.886 288.947 266.308C292.928 264.551 297.79 265.974 302.044 265.098Z" fill="#FED253"/>
<path opacity="0.1" d="M282.911 264.91C282.772 263.816 282.68 262.545 283.458 261.767C283.497 261.72 283.546 261.682 283.602 261.656C283.658 261.631 283.719 261.619 283.781 261.621C283.835 261.639 283.885 261.668 283.928 261.705C283.971 261.743 284.005 261.789 284.03 261.84C284.479 262.549 284.861 263.298 285.172 264.077C284.719 263.973 284.246 264.007 283.812 264.175C283.379 264.343 283.006 264.637 282.741 265.019" fill="#161925"/>
<path opacity="0.1" d="M297.116 261.822L296.897 259.652C296.862 259.473 296.876 259.288 296.939 259.117C297.031 258.974 297.173 258.87 297.336 258.825C297.5 258.78 297.675 258.798 297.827 258.874C298.126 259.04 298.372 259.286 298.538 259.585C299.044 260.362 299.464 261.192 299.79 262.059C298.811 261.871 297.804 261.883 296.83 262.096" fill="#161925"/>
<path opacity="0.1" d="M302.556 349.896V354.857L298.368 355.136H276.342V349.896H302.556Z" fill="#161925"/>
<path d="M302.555 349.896V355.136H276.341L206.701 267.889V263.768H221.3L302.555 349.896Z" fill="#BB730D"/>
<path opacity="0.1" d="M302.555 349.896V355.136H276.341L206.701 267.889V263.768H221.3L302.555 349.896Z" fill="#161925"/>
<path opacity="0.1" d="M302.555 349.896V355.136H276.341L206.701 267.889V263.768L276.718 349.896H302.555Z" fill="#161925"/>
<path d="M215.831 437.344C215.876 437.59 215.871 437.844 215.814 438.088C215.758 438.332 215.651 438.563 215.502 438.764C215.353 438.965 215.163 439.134 214.946 439.259C214.728 439.383 214.487 439.462 214.238 439.49C212.549 440.061 210.756 440.626 209.558 441.921C208.361 443.216 208.124 445.617 209.558 446.668C210.291 447.111 211.133 447.34 211.989 447.331C214.743 447.52 217.611 447.483 220.109 446.316C221.896 445.489 223.58 444.079 225.543 444.207C226.558 444.267 227.64 444.742 228.545 444.28C229.451 443.818 229.706 442.529 229.712 441.453C229.735 439.207 229.397 436.972 228.709 434.833C228.618 434.542 224.753 434.317 224.291 434.226L219.605 433.618C218.718 433.502 216.803 432.833 216.104 433.575C215.405 434.317 215.831 436.462 215.831 437.344Z" fill="#59A5F5"/>
<path d="M243.794 422.171C243.993 423.266 244.315 424.335 244.755 425.357C245.405 427.01 246.238 428.767 247.83 429.569C249.277 430.292 251.051 430.031 252.522 429.344C253.136 429.09 253.674 428.682 254.084 428.159C254.559 427.332 254.771 426.38 254.692 425.429C254.692 423.077 254.552 420.646 253.476 418.555C252.552 416.731 250.942 415.163 250.918 413.145L245.381 414.214C245.084 414.243 244.802 414.355 244.566 414.537C244.391 414.721 244.269 414.95 244.214 415.199C243.623 417.474 243.48 419.842 243.794 422.171Z" fill="#59A5F5"/>
<path d="M177.674 364.424C177.443 366.381 177.54 368.478 178.561 370.168C179.582 371.858 181.734 372.976 183.594 372.302C183.689 372.277 183.779 372.234 183.857 372.175C183.935 372.115 184.001 372.041 184.05 371.955C184.099 371.75 184.071 371.533 183.971 371.347C183.15 369.156 183.217 366.73 184.159 364.588C184.281 364.308 184.542 363.98 184.828 364.089C184.947 364.15 185.043 364.248 185.101 364.369C185.395 364.878 185.543 365.459 185.527 366.047C185.441 366.579 185.424 367.121 185.478 367.658C185.593 368.18 186.153 368.673 186.639 368.448C186.779 368.362 186.901 368.248 186.996 368.113C187.091 367.978 187.158 367.825 187.192 367.664C188.547 363.743 187.933 359.458 187.314 355.354C187.319 355.26 187.303 355.166 187.268 355.079C187.233 354.991 187.179 354.912 187.11 354.848C187.041 354.784 186.958 354.735 186.869 354.706C186.779 354.677 186.684 354.668 186.59 354.68C183.722 354.394 182.153 353.707 180.512 356.376C179.102 358.625 177.674 361.719 177.674 364.424Z" fill="#59A5F5"/>
<path d="M211.211 354.449C210.36 357.986 209.503 361.567 209.448 365.202C209.463 367.466 209.634 369.727 209.959 371.967L210.597 377.231C210.816 379.006 211.028 380.775 211.338 382.532C211.536 383.437 211.644 384.359 211.661 385.286C211.601 386.199 211.456 387.104 211.229 387.991C210.847 389.852 210.633 391.744 210.591 393.644C210.524 396.683 210.901 399.722 211.138 402.762C211.611 408.818 211.54 414.905 210.925 420.949C210.68 422.58 211.034 424.245 211.922 425.636C212.282 426.074 212.579 426.561 212.803 427.082C213.259 428.474 212.195 429.866 211.922 431.295C211.747 432.409 212.021 433.547 212.684 434.458C213.348 435.37 214.346 435.981 215.459 436.158C220.322 436.735 225.317 436.474 229.7 438.699C230.162 437.349 229.153 435.817 229.615 434.444C229.906 433.593 230.709 433.039 231.256 432.322C231.99 431.229 232.357 429.93 232.301 428.614C232.322 426.897 232.017 425.191 231.401 423.587C230.885 422.25 230.143 420.931 230.186 419.496C230.186 418.791 230.435 418.05 230.149 417.399C229.953 417.025 229.687 416.693 229.365 416.42C227.549 414.43 226.433 411.901 226.187 409.217C225.95 406.554 226.035 403.872 226.442 401.23C226.74 398.713 227.141 396.057 228.739 394.094C227.998 388.14 228.434 382.099 230.022 376.314C230.18 375.779 230.429 375.159 230.976 375.031C231.193 375.009 231.413 375.039 231.616 375.119C231.819 375.2 232 375.328 232.143 375.493C233.097 376.387 233.553 377.681 233.966 378.921C234.422 380.265 234.884 381.699 234.538 383.073C234.392 383.681 234.1 384.216 233.93 384.799C233.56 385.972 233.625 387.239 234.112 388.368C234.35 388.78 234.499 389.238 234.55 389.711C234.493 390.117 234.37 390.512 234.185 390.878C233.96 391.597 233.888 392.356 233.975 393.105C234.062 393.854 234.305 394.576 234.69 395.224C235.464 396.515 236.42 397.688 237.528 398.707C236.999 401.04 237.135 403.475 237.923 405.734C237.98 405.836 238.016 405.948 238.03 406.064C238.043 406.179 238.034 406.297 238.002 406.409C237.893 406.64 237.613 406.725 237.394 406.889C236.786 407.388 237.163 408.33 237.57 408.98C238.686 410.765 239.919 412.475 241.26 414.098C242.475 415.551 242.366 418.353 244.177 418.876C244.938 419.041 245.726 419.041 246.487 418.876C248.273 418.603 250.267 418.086 251.142 416.506C251.501 415.855 251.647 415.065 252.206 414.579C252.765 414.092 253.488 414.007 253.798 413.424C254.108 412.84 253.762 412.074 253.865 411.4C253.968 410.725 254.558 410.184 254.746 409.473C255.196 407.831 253.282 406.482 253.02 404.804C252.643 402.373 255.707 400.549 255.579 398.118C255.312 392.835 255.141 387.529 254.868 382.246C254.525 377.515 254.476 372.766 254.722 368.028C254.935 365.08 255.33 361.992 254.248 359.251C252.692 355.385 248.401 353.215 244.25 352.801C240.099 352.388 235.96 353.373 231.845 354.017C225.016 355.07 218.078 355.215 211.211 354.449Z" fill="#3F3D56"/>
<path d="M223.549 296.349C228.927 296.349 233.286 291.989 233.286 286.611C233.286 281.233 228.927 276.873 223.549 276.873C218.172 276.873 213.812 281.233 213.812 286.611C213.812 291.989 218.172 296.349 223.549 296.349Z" fill="#CB9C8A"/>
<path d="M219.587 298.166C219.256 298.937 218.7 299.589 217.991 300.037C217.283 300.485 216.455 300.708 215.618 300.677C215.265 302.136 216.11 303.607 217.076 304.756C219.083 307.091 221.676 308.849 224.589 309.848C227.501 310.847 230.627 311.051 233.645 310.439C234.819 310.229 235.933 309.764 236.908 309.077C238.224 307.979 239.107 306.45 239.4 304.762C239.68 303.085 239.76 301.381 239.637 299.686C239.672 299.351 239.576 299.016 239.37 298.75C239.127 298.562 238.826 298.463 238.519 298.47C236.465 298.288 234.319 298.209 232.514 297.2C230.709 296.191 229.427 293.911 230.296 292.039C230.156 292.331 226.607 292.471 226.139 292.531C224.674 292.738 223.209 292.969 221.75 293.237C221.049 293.275 220.357 293.406 219.69 293.626C218.809 294.081 219.137 293.857 219.344 294.683C219.653 295.948 220.109 296.853 219.587 298.166Z" fill="#CB9C8A"/>
<path d="M226.996 304.088C225.684 304.103 224.376 303.958 223.1 303.656C221.811 303.355 220.675 302.597 219.903 301.523C219.453 300.842 219.161 299.985 218.444 299.602C217.271 298.994 215.934 300.021 214.998 300.963C214.146 301.892 213.158 302.688 212.068 303.322C210.768 304.009 209.248 304.252 208.021 305.06C207.061 305.785 206.238 306.674 205.589 307.686L196.977 319.418C193.519 324.135 190.51 329.199 187.429 334.177C184.761 338.487 183.363 343.447 181.351 348.097C181.192 348.382 181.126 348.709 181.163 349.033C181.236 349.349 181.618 349.605 181.886 349.422C180.98 350.322 181.776 351.854 181.564 353.118C181.322 354.003 180.818 354.793 180.117 355.385C181.455 355.211 182.813 355.275 184.129 355.574C185.488 355.959 186.771 356.576 187.921 357.397C188.657 357.282 188.59 355.975 189.137 355.489C189.465 355.203 189.951 355.24 190.383 355.154C192.005 354.838 192.65 352.887 193.896 351.787C194.935 350.869 196.406 350.571 197.506 349.708C199.293 348.304 199.676 345.805 200.612 343.733C201.408 341.976 202.66 340.444 203.359 338.645C203.815 337.478 204.033 336.213 204.684 335.137C205.723 333.399 207.68 332.475 209.546 331.642C210.725 331.113 211.977 330.566 213.247 330.651C213.181 333.478 212.822 336.262 213.436 339.022C213.649 339.994 213.946 340.943 214.202 341.909C215.363 346.261 215.636 350.796 215.691 355.282C218.483 354.643 221.335 354.301 224.2 354.261C226.455 354.194 228.703 354.486 230.958 354.443C233.633 354.395 236.276 353.878 238.951 353.696C241.625 353.513 244.421 353.696 246.785 354.911C246.593 351.059 246.701 347.197 247.107 343.362L247.751 337.32C247.897 335.564 248.167 333.821 248.56 332.104C248.912 330.718 249.423 329.381 249.812 328.001C251.179 323.138 250.93 317.947 250.669 312.884C250.535 310.282 249.532 307.723 248.353 305.407C247.926 304.547 247.439 303.718 246.894 302.927C245.47 300.963 243.571 299.393 241.375 298.362C239.179 297.331 236.758 296.873 234.338 297.03C234.028 297.04 233.724 297.106 233.438 297.225C232.925 297.553 232.524 298.031 232.289 298.593C231.032 300.853 229.207 302.747 226.996 304.088Z" fill="#3F3D56"/>
<path d="M214.985 289.838C215.259 289.23 215.994 289.005 216.444 288.519C217.307 287.595 216.918 286.118 217.052 284.872C217.271 283.048 218.784 281.522 220.516 280.872C222.283 280.305 224.162 280.186 225.986 280.525C226.864 280.589 227.712 280.872 228.454 281.346C228.77 281.577 229.062 281.875 229.359 282.088C229.902 282.416 230.552 282.519 231.17 282.374C231.787 282.23 232.324 281.85 232.666 281.316C230.514 278.726 228.132 275.991 224.862 275.194C223.74 274.965 222.597 274.857 221.452 274.872C219.939 274.842 218.377 274.818 216.979 275.395C215.076 276.179 213.739 277.984 213.053 279.93C212.452 281.901 212.131 283.947 212.098 286.008C211.974 287.383 211.974 288.767 212.098 290.142C212.333 292.02 213.031 293.81 214.128 295.351C214.277 295.591 214.487 295.786 214.736 295.917C217.508 297.132 214.76 290.342 214.985 289.838Z" fill="#3F3D56"/>
<path d="M232.349 279.815C232.015 276.952 229.973 274.587 227.803 272.685C226.054 271.035 223.971 269.781 221.695 269.007C219.404 268.332 216.766 268.478 214.803 269.846C213.223 270.946 212.22 272.697 211.448 274.46C210.434 276.54 209.932 278.832 209.983 281.146C210.135 283.444 211.253 285.772 213.247 286.933C213.964 285.875 215.21 285.328 216.407 284.897C221.626 282.916 226.948 281.22 232.349 279.815Z" fill="#FED253"/>
<path opacity="0.1" d="M213.916 278.623C214.11 278.623 214.238 278.824 214.335 278.988C214.83 279.759 215.255 280.573 215.606 281.42C214.894 281.572 213.673 281.742 213.32 281.116C213.132 280.8 213.357 278.593 213.916 278.623Z" fill="#161925"/>
<path opacity="0.1" d="M227.767 277.25C227.621 277.389 227.451 277.104 227.451 276.897V274.539C227.447 274.473 227.462 274.408 227.493 274.35C227.519 274.321 227.549 274.298 227.584 274.281C227.618 274.264 227.656 274.255 227.694 274.253C228.186 274.198 228.593 274.618 228.91 275.019C229.389 275.669 229.806 276.363 230.155 277.092L227.585 277.013" fill="#161925"/>
<path d="M259.852 316.305C260.411 315.774 261.008 315.284 261.639 314.84C263.322 313.715 265.358 313.272 267.248 312.554C269.139 311.837 271.059 310.676 271.795 308.792C272.163 307.613 272.283 306.372 272.147 305.145C272.165 304.631 272.074 304.119 271.88 303.643C271.648 303.222 271.319 302.864 270.919 302.598C268.355 300.701 264.915 300.549 261.73 300.744C254.708 301.179 247.826 302.897 241.424 305.813C241.085 305.925 240.788 306.137 240.573 306.421C240.448 306.685 240.392 306.975 240.409 307.266C240.295 309.059 240.529 310.856 241.095 312.561C241.934 314.725 243.66 316.469 244.384 318.676C244.712 319.666 244.821 320.718 245.107 321.715C245.341 322.745 245.95 323.65 246.815 324.256C249.215 325.69 251.482 323.764 253.148 322.268L259.852 316.305Z" fill="#3F3D56"/>
<path d="M228.412 324.725L225.33 318.002C224.878 317.07 224.488 316.11 224.163 315.127C223.811 313.954 223.64 312.738 223.312 311.559C222.23 307.632 219.501 304.361 218.17 300.514C218.086 300.166 217.915 299.846 217.672 299.584C217.478 299.446 217.256 299.353 217.021 299.311C216.787 299.269 216.547 299.279 216.317 299.341C214.457 299.663 213.004 301.079 211.302 301.881C210.512 302.246 209.661 302.489 208.871 302.909C208.476 303.096 208.126 303.366 207.845 303.7C207.564 304.035 207.359 304.426 207.242 304.848C207.054 305.778 207.516 306.671 207.905 307.577C209.558 311.309 209.935 315.479 210.008 319.564C210.063 322.312 209.923 325.26 208.3 327.466C205.182 331.721 207.176 337.97 208.343 343.119C208.482 343.727 208.646 344.383 208.744 345.028C208.847 345.834 208.893 346.646 208.883 347.459C208.883 350.188 208.732 353.003 207.589 355.477C208.717 356.077 209.96 356.429 211.236 356.51C214.765 356.96 218.308 357.276 221.866 357.458C222.98 357.563 224.104 357.506 225.202 357.288C226.507 356.936 227.656 356.159 228.47 355.08C229.283 354.001 229.714 352.682 229.694 351.331C229.888 353.015 230.247 354.845 231.469 356.012C232.69 357.179 234.471 357.355 236.13 357.446C240.813 357.695 245.509 357.563 250.17 357.051C250.468 357.038 250.76 356.97 251.033 356.851C251.933 356.401 251.981 355.161 251.908 354.164C251.775 352.298 251.635 350.432 251.41 348.578C251.219 347.396 251.122 346.201 251.118 345.003C251.211 343.772 251.414 342.551 251.726 341.356C252.541 337.563 253.185 333.691 252.911 329.807C252.803 328.86 252.765 327.908 252.796 326.956C252.954 324.81 254.084 322.768 253.872 320.634C253.264 314.361 252.772 307.924 251.021 301.869C250.705 300.787 250.304 299.626 249.362 299.006C248.146 298.192 246.438 298.617 245.047 298.1C244.394 297.797 243.773 297.428 243.193 297C241.933 296.212 240.49 295.768 239.005 295.712C237.887 295.669 236.641 295.918 235.966 296.818C235.654 297.324 235.447 297.889 235.359 298.477C234.477 302.185 233.444 305.851 232.411 309.516L231.42 313.03L228.764 322.464C228.503 323.467 228.679 323.777 228.412 324.725Z" fill="#59A5F5"/>
<path d="M243.952 287.918L302.743 349.707V354.947H276.529L232.35 297.279" fill="#BB730D"/>
<path opacity="0.1" d="M243.952 287.918L302.743 349.707V354.947H276.529L232.35 297.279" fill="#161925"/>
<path opacity="0.1" d="M233.286 296.465L233.474 296.532L276.906 349.708H302.743V354.947H276.529L232.35 297.279L233.286 296.465Z" fill="#161925"/>
<path d="M240.05 297.765C237.923 298.695 235.559 299.886 234.921 302.123C234.795 302.516 234.767 302.933 234.842 303.339C234.997 303.816 235.293 304.235 235.692 304.539C236.09 304.844 236.571 305.021 237.072 305.047C238.073 305.071 239.068 304.889 239.996 304.512L252.546 300.367C252.887 300.257 253.276 300.093 253.361 299.759C253.383 299.548 253.34 299.336 253.239 299.151C252.85 298.203 252.467 296.263 251.653 295.601C250.984 295.066 249.659 295.254 248.851 295.267C245.739 295.291 242.816 296.549 240.05 297.765Z" fill="#59A5F5"/>
<path d="M251.24 300.859C253.354 300.853 255.457 301.179 257.47 301.826C259.492 302.482 261.283 303.706 262.63 305.351C263.022 305.811 263.301 306.357 263.444 306.944C263.566 307.552 265.547 307.916 265.11 308.33C266.441 308.117 266.125 308.743 267.474 308.731C268.823 308.719 270.282 308.372 271.09 307.296C271.652 306.413 271.902 305.366 271.801 304.324C271.819 303.602 271.682 302.885 271.4 302.221C270.792 300.944 269.394 300.257 268.106 299.668L257.251 294.701C256.621 294.366 255.945 294.127 255.245 293.99C254.656 293.935 254.062 293.949 253.477 294.033L248.56 294.598C249.635 295.294 250.51 296.258 251.1 297.396C251.689 298.533 251.972 299.804 251.921 301.084" fill="#3F3D56"/>
</svg>
