<svg xmlns="http://www.w3.org/2000/svg" width="20" height="21" viewBox="0 0 20 21" fill="none">
  <path opacity="0.5" d="M18.3327 10.682C18.3327 15.2845 14.6018 19.0153 9.99935 19.0153C5.39685 19.0153 1.66602 15.2845 1.66602 10.682C1.66602 6.07947 5.39685 2.34863 9.99935 2.34863C14.6018 2.34863 18.3327 6.07947 18.3327 10.682Z" fill="#6D6C6E"/>
  <path d="M14.005 16.5241C12.8265 17.3345 11.4294 17.7673 9.99918 17.765C8.56895 17.7673 7.17185 17.3345 5.99335 16.5241C5.49002 16.1783 5.27502 15.52 5.56835 14.9841C6.17418 13.8733 7.42418 13.1816 9.99918 13.1816C12.5742 13.1816 13.8242 13.8733 14.4309 14.9841C14.7225 15.52 14.5083 16.1783 14.005 16.5241ZM9.99918 10.6816C10.6622 10.6816 11.2981 10.4182 11.7669 9.94941C12.2358 9.48057 12.4992 8.84468 12.4992 8.18164C12.4992 7.5186 12.2358 6.88271 11.7669 6.41387C11.2981 5.94503 10.6622 5.68164 9.99918 5.68164C9.33614 5.68164 8.70026 5.94503 8.23142 6.41387C7.76257 6.88271 7.49918 7.5186 7.49918 8.18164C7.49918 8.84468 7.76257 9.48057 8.23142 9.94941C8.70026 10.4182 9.33614 10.6816 9.99918 10.6816Z" fill="#6D6C6E"/>
</svg>